# This file uses centimeters as units for non-parametric coordinates.

mtllib KotaTua_geo.mtl
g default
v -1902.550136 0.000000 0.000000
v 1902.550020 0.000000 0.000000
v -1902.550020 999.999956 0.000000
v 1902.549905 1000.000188 0.000000
v -1902.550136 999.999956 -1468.699929
v 1902.550136 999.999956 -1468.699929
v -1902.549905 0.000116 -1468.699929
v 1902.550020 0.000000 -1468.699929
v 0.000000 0.000000 0.000000
v 0.000000 0.000000 -1468.699929
v 0.000000 1002.965292 -1468.699929
v 2002.461226 921.529874 205.039964
v 2002.549947 978.581129 205.039964
v 2002.461226 921.529585 -1682.880113
v 2002.549947 978.581014 -1682.880113
v 0.000000 921.530394 -1682.880229
v -0.000001 978.581823 -1682.879998
v -2002.461226 921.529585 205.039935
v -2002.550178 978.581014 205.039993
v -2002.461226 921.529585 -1682.880113
v -2002.550178 978.581014 -1682.880113
v -1902.550136 999.999956 -734.349965
v -2002.461226 921.529585 -738.920075
v -2002.550178 978.581014 -738.920075
v -1520.957944 1322.150048 -738.918977
v -0.000001 1322.147391 -738.863931
v 1520.957944 1322.150048 -738.918977
v 2002.549947 978.581014 -738.920075
v 2002.461226 921.529758 -738.920075
v 1902.550020 1000.000072 -734.349965
v 1902.550020 0.000000 -734.349965
v 0.000000 0.000000 -734.349965
v -1902.550020 0.000058 -734.349965
v 1685.755341 1204.583262 -415.902932
v -0.000001 1204.592388 -415.896694
v -1685.756150 1204.582684 -415.901488
v 407.272627 978.581707 205.038737
v -407.272656 978.581707 205.038737
v -407.271443 0.000000 0.000000
v -407.271616 1002.330498 0.000000
v 407.271414 0.000000 0.000000
v 407.271616 1002.330614 0.000000
v -407.272569 921.530278 205.038693
v 407.272511 921.530278 205.038708
v -407.272742 966.411979 585.085084
v -407.272569 921.530163 585.083120
v -0.000001 921.530278 585.083063
v -0.000000 1210.890072 585.084969
v 407.272742 966.411864 585.085026
v 407.272569 921.530163 585.083120
v -407.271529 384.437962 0.000000
v 0.000000 484.437888 0.000000
v 407.271529 384.437962 0.000000
v 1902.550020 411.992164 -734.349965
v 1902.550136 411.992164 -1468.699929
v -1902.549905 411.992164 -1468.699929
v 299.890726 484.437888 -0.000000
v 299.890697 1002.342744 0.004837
v -299.890668 921.542350 205.043531
v -299.890697 1002.342628 0.004840
v -299.890726 484.437888 -0.000000
v 299.890697 921.542350 205.043545
v -299.890640 921.531780 484.585294
v 299.890640 921.531780 484.585294
v -299.890640 484.440025 484.585294
v 299.890640 484.440025 484.585294
v -0.000001 484.439967 484.585294
v -299.890668 484.438928 205.043921
v -0.000001 484.438928 205.043935
v 299.890668 484.438928 205.043921
v -0.000001 921.530278 535.084948
v -0.000001 484.439967 535.084948
v 299.890640 484.440025 535.084948
v -267.825359 921.531607 535.084948
v -299.890640 484.440025 535.084948
v 367.289840 921.531780 484.585294
v 367.289840 484.440025 484.585294
v 367.289840 921.531780 535.084948
v 367.289840 484.440025 535.084948
v -367.289840 921.531780 484.585294
v -367.289840 484.440025 484.585294
v -367.289840 484.440025 535.084948
v -367.289840 921.531780 535.084948
v 299.890640 0.001040 484.585294
v 299.890640 0.001040 535.084948
v 367.289840 0.001040 484.585294
v 367.289840 0.001040 535.084948
v -299.890640 0.001040 484.585294
v -299.890640 0.001040 535.084948
v -367.289840 0.001040 535.084948
v -367.289840 0.001040 484.585294
v -259.690036 484.440025 484.585294
v -259.690036 484.440025 535.084948
v 259.690036 484.440025 484.585294
v 259.690036 484.440025 535.084948
v 267.825359 921.531607 535.084948
v -117.916414 484.438928 205.043921
v -192.290012 484.440025 484.585294
v -192.290012 484.440025 535.084948
v -138.027531 921.531029 535.084948
v 192.290012 484.440025 484.585294
v 192.290012 484.440025 535.084948
v -259.690036 0.003928 484.585294
v -259.690036 0.003928 535.084948
v -192.290012 0.003928 484.585294
v -192.290012 0.003928 535.084948
v 192.290012 0.003928 484.585294
v 192.290012 0.003928 535.084948
v 259.690036 0.003928 484.585294
v 259.690036 0.003928 535.084948
v -1902.550020 691.340241 -1468.699929
v 1902.550136 691.340241 -1468.699929
v 1902.549905 691.340241 -734.349965
v 299.890668 691.340067 205.043747
v 299.890640 691.340067 484.585294
v 367.289840 691.340067 484.585294
v 367.289840 691.340067 535.084948
v 299.890640 785.140099 535.084948
v 235.760077 785.140099 535.084948
v 192.290012 785.140099 535.084948
v -0.000001 785.140099 535.084948
v -192.290012 785.140099 535.084948
v -235.760077 785.140099 535.084948
v -299.890640 785.140099 535.084948
v -367.289840 691.340067 535.084948
v -367.289840 691.340067 484.585294
v -299.890640 691.340067 484.585294
v -299.890668 691.340067 205.043718
v -1902.550136 691.340241 0.000000
v -407.271558 691.340241 0.000000
v -299.890726 691.340414 0.002351
v -299.890640 597.540036 535.084948
v -235.760077 597.540036 535.084948
v -192.290012 597.540036 535.084948
v -0.000001 597.540036 535.084948
v 192.290012 597.540036 535.084948
v 235.760077 597.540036 535.084948
v 299.890640 597.540036 535.084948
v 299.890726 691.340414 0.002350
v 407.271558 691.340241 0.000000
v 1902.549905 691.340241 0.000000
v 0.000000 691.340241 -1468.699929
v -1902.550136 691.340241 -734.349965
v -125.155040 484.440025 484.585294
v -125.155040 484.440025 535.084948
v -140.800031 597.540036 535.084948
v -140.800031 785.140099 535.084948
v 140.800031 597.540036 535.084948
v 140.800031 785.140099 535.084948
v -109.510055 597.540036 535.084948
v -109.510055 785.140099 535.084948
v 117.916414 484.438928 205.043921
v 125.155040 484.440025 484.585294
v 125.155040 484.440025 535.084948
v 109.510055 597.540036 535.084948
v 109.510055 785.140099 535.084948
v 138.027531 921.531029 535.084948
v -14.361055 597.540036 535.084948
v -14.361040 785.140099 535.084948
v 14.361071 597.540036 535.084948
v 14.361071 785.140099 535.084948
v -150.300030 607.040049 513.084987
v -150.300030 775.640085 513.084987
v -192.290012 775.640085 513.084987
v -192.290012 607.040049 513.084987
v -226.260079 607.040049 513.084987
v -226.260079 775.640085 513.084987
v 192.290012 607.040049 513.084987
v 226.260079 607.040049 513.084987
v 226.260079 775.640085 513.084987
v 192.290012 775.640085 513.084987
v 150.300030 607.040049 513.084987
v 150.300030 775.640085 513.084987
v -23.861053 607.040049 513.084987
v -23.861041 775.640085 513.084987
v -100.010056 775.640085 513.084987
v -100.010056 607.040049 513.084987
v 23.861071 607.040049 513.084987
v 23.861071 775.640085 513.084987
v 100.010056 607.040049 513.084987
v 100.010056 775.640085 513.084987
v -349.378638 0.000000 -734.349907
v -309.567257 1204.590540 -415.897561
v -541.110058 785.140503 0.000000
v -541.110058 597.539920 0.000000
v -541.110058 384.437962 0.000000
v 597.955280 0.000000 0.000000
v 349.378638 0.000000 -1468.699814
v 349.378638 1002.420721 -1468.699814
v 367.726023 921.530278 -1682.880113
v 367.742311 978.581707 -1682.879998
v 279.304207 1322.147853 -738.874039
v 700.224637 978.581707 205.038953
v 700.208233 921.530220 205.038924
v 597.955511 1002.033491 0.000000
v 541.110058 785.140503 0.000000
v 541.110058 597.539920 0.000000
v 541.110058 384.437962 0.000000
v -597.955280 0.000000 0.000000
v -597.955511 1002.033376 0.000000
v -661.310054 785.140503 0.000000
v -661.310054 597.539920 0.000000
v -661.310054 384.437962 0.000000
v 661.310054 785.140503 0.000000
v 661.309996 597.539920 0.000000
v 661.309996 384.437962 0.000000
v -349.378840 691.340241 -1468.699929
v -700.910260 785.140503 0.000000
v -700.910260 597.539920 0.000000
v -700.910202 384.437962 0.000000
v 765.764452 0.000000 0.000000
v 765.764683 1001.771949 0.000000
v 700.910202 785.140503 0.000000
v 700.910202 597.539920 0.000000
v 700.910202 384.437962 0.000000
v -765.765261 0.000000 0.000000
v -349.379013 0.000000 -1468.699929
v -349.379071 1002.420721 -1468.699929
v -367.726456 921.530278 -1682.880113
v -367.742831 978.581707 -1682.880113
v -279.304524 1322.147853 -738.874039
v -700.225099 978.581707 205.038968
v -700.208695 921.530220 205.038953
v -765.765492 1001.771718 0.000000
v -821.109967 785.140503 0.000000
v -821.109967 597.539920 0.000000
v -821.109967 384.437962 0.000000
v 349.379042 0.000000 -734.349965
v 349.378869 691.340241 -1468.699929
v 309.567488 1204.590655 -415.897849
v 821.109967 785.140503 0.000000
v 821.109967 597.539920 0.000000
v 821.110025 384.437962 0.000000
v -911.363183 0.000116 -734.349965
v -807.514178 1204.587652 -415.899005
v -994.920106 785.140503 0.000000
v -994.920106 597.539920 0.000000
v -994.920106 384.437962 0.000000
v 1048.035872 0.000000 0.000000
v 911.363183 0.000000 -1468.699929
v 911.363183 1001.544833 -1468.699929
v 959.222869 921.530047 -1682.880113
v 959.265323 978.581476 -1682.879882
v 728.572245 1322.148546 -738.890328
v 1171.445301 978.581476 205.039314
v 1171.402789 921.530163 205.039300
v 1048.036103 1001.331926 0.000000
v 994.920106 785.140503 0.000000
v 994.920106 597.539920 0.000000
v 994.920106 384.437962 0.000000
v -1048.036796 0.000000 0.000000
v -1048.036796 1001.331810 0.000000
v -1115.119870 785.140503 0.000000
v -1115.119870 597.539920 0.000000
v -1115.119870 384.437962 0.000000
v 1115.119870 785.140503 0.000000
v 1115.119870 597.539920 0.000000
v 1115.119870 384.437962 0.000000
v -911.363472 691.340241 -1468.699929
v -1154.719788 785.140503 0.000000
v -1154.719903 597.539920 0.000000
v -1154.719903 384.437962 0.000000
v 1199.049294 0.000000 0.000000
v 1199.049294 1001.096607 0.000000
v 1154.719788 785.140503 0.000000
v 1154.719788 597.539920 0.000000
v 1154.719788 384.437962 0.000000
v -1199.049871 0.000000 0.000000
v -911.363761 0.000000 -1468.699929
v -911.363876 1001.544833 -1468.699929
v -959.223562 921.530047 -1682.880113
v -959.266132 978.581476 -1682.880113
v -728.572707 1322.148546 -738.890328
v -1171.446225 978.581476 205.039329
v -1171.403482 921.529989 205.039300
v -1199.049871 1001.096492 0.000000
v -1274.919899 785.140503 0.000000
v -1274.919899 597.539920 0.000000
v -1274.919899 384.437962 0.000000
v 911.363876 0.000000 -734.349965
v 911.363472 691.340241 -1468.699929
v 807.514409 1204.587998 -415.899698
v 1274.919899 785.140503 0.000000
v 1274.919899 597.539920 0.000000
v 1274.919784 384.437962 0.000000
v -1495.491687 0.000116 -734.349965
v -1325.081998 1204.584764 -415.900449
v -1448.735409 785.140503 0.000000
v -1448.735409 597.539920 0.000000
v -1448.735409 384.437962 0.000000
v 1511.551677 0.000000 0.000000
v 1495.491687 0.000000 -1468.699929
v 1495.491687 1000.634519 -1468.699929
v 1574.026462 921.529758 -1682.880113
v 1574.096122 978.581129 -1682.879882
v 1195.542622 1322.149586 -738.907136
v 1661.233708 978.581245 205.039704
v 1661.163932 921.529989 205.039704
v 1511.551677 1000.609566 0.000000
v 1448.735294 785.140503 0.000000
v 1448.735409 597.539920 0.000000
v 1448.735409 384.437962 0.000000
v -1511.552139 0.000000 0.000000
v -1511.552024 1000.609335 0.000000
v -1568.934828 785.140503 0.000000
v -1568.934943 597.539920 0.000000
v -1568.934828 384.437962 0.000000
v 1568.934828 785.140503 0.000000
v 1568.934828 597.539920 0.000000
v 1568.934828 384.437962 0.000000
v -1495.491802 691.340241 -1468.699929
v -1608.535092 785.140503 0.000000
v -1608.535092 597.539920 0.000000
v -1608.535092 384.437962 0.000000
v 1653.706176 0.000000 0.000000
v 1653.706060 1000.387995 0.000000
v 1608.535092 785.140503 0.000000
v 1608.535092 597.539920 0.000000
v 1608.535092 384.437962 0.000000
v -1653.706638 0.000000 0.000000
v -1495.491802 0.000000 -1468.699929
v -1495.492033 1000.634519 -1468.699929
v -1574.026693 921.529758 -1682.880113
v -1574.096468 978.581129 -1682.880113
v -1195.542738 1322.149586 -738.907194
v -1661.234054 978.581129 205.039733
v -1661.164279 921.529758 205.039675
v -1653.706407 1000.387879 0.000000
v -1728.734741 785.140503 0.000000
v -1728.734741 597.539920 0.000000
v -1728.734741 384.437962 0.000000
v 1495.491802 0.000000 -734.349965
v 1495.491802 691.340241 -1468.699929
v 1325.081536 1204.585226 -415.901662
v 1728.734741 785.140503 0.000000
v 1728.734857 597.539920 0.000000
v 1728.734741 384.437962 0.000000
v -1902.550136 411.992164 0.000000
v 0.000000 384.437962 0.000000
v 1902.549905 411.992164 0.000000
v 1495.492033 411.992164 -1468.699929
v 911.363818 411.992164 -1468.699929
v 349.379042 411.992164 -1468.699929
v 0.000000 411.992164 -1468.699929
v -349.378638 411.992164 -1468.699814
v -911.363183 411.992164 -1468.699929
v -1495.491687 411.992164 -1468.699929
v -1902.550136 411.992164 -734.349965
v -1902.550136 196.838130 0.000000
v -1728.734741 196.838130 0.000000
v -1608.535092 196.838130 0.000000
v -1568.934828 196.838130 0.000000
v -1448.735409 196.838130 0.000000
v -1274.919899 196.838130 0.000000
v -1154.719903 196.838130 0.000000
v -1115.119870 196.838130 0.000000
v -994.920106 196.838130 0.000000
v -821.109967 196.838130 0.000000
v -700.910202 196.838130 0.000000
v -661.310054 196.838130 0.000000
v -541.110058 196.838130 0.000000
v -407.271443 196.838130 0.000000
v 0.000000 196.838130 0.000000
v 407.271443 196.838130 0.000000
v 541.110058 196.838130 0.000000
v 661.310054 196.838130 0.000000
v 700.910260 196.838130 0.000000
v 821.109967 196.838130 0.000000
v 994.920106 196.838130 0.000000
v 1115.119870 196.838130 0.000000
v 1154.719788 196.838130 0.000000
v 1274.919784 196.838130 0.000000
v 1448.735409 196.838130 0.000000
v 1568.934828 196.838130 0.000000
v 1608.534976 196.838130 0.000000
v 1728.734741 196.838130 0.000000
v 1902.549905 196.838130 0.000000
v 1902.549905 196.838130 -734.349965
v 1902.549905 196.838130 -1468.699929
v 1495.491802 196.838130 -1468.699929
v 911.363529 196.838130 -1468.699929
v 349.378840 196.838130 -1468.699929
v 0.000000 196.838130 -1468.699929
v -349.378811 196.838130 -1468.699929
v -911.363472 196.838130 -1468.699929
v -1495.491571 196.838130 -1468.699929
v -1902.549789 196.838130 -1468.699929
v -1902.550020 196.838130 -734.349965
v -649.310086 773.140535 -20.000000
v -649.310086 609.539946 -20.000000
v -553.110026 609.539946 -20.000000
v -553.110026 773.140535 -20.000000
v 649.310086 773.140535 -20.000000
v 649.310028 609.539946 -20.000000
v 553.110026 773.140535 -20.000000
v 553.110026 609.539946 -20.000000
v -809.109999 773.140535 -20.000000
v -809.109999 609.539946 -20.000000
v -712.910286 609.539946 -20.000000
v -712.910286 773.140535 -20.000000
v 809.109999 773.140535 -20.000000
v 809.109999 609.539946 -20.000000
v 712.910228 773.140535 -20.000000
v 712.910228 609.539946 -20.000000
v -1103.119902 773.140535 -20.000000
v -1103.119902 609.539946 -20.000000
v -1006.920074 609.539946 -20.000000
v -1006.920074 773.140535 -20.000000
v 1103.119902 773.140535 -20.000000
v 1103.119902 609.539946 -20.000000
v 1006.920074 773.140535 -20.000000
v 1006.920074 609.539946 -20.000000
v -1262.919931 773.140535 -20.000000
v -1262.919931 609.539946 -20.000000
v -1166.719872 609.539946 -20.000000
v -1166.719756 773.140535 -20.000000
v 1262.919931 773.140535 -20.000000
v 1262.919931 609.539946 -20.000000
v 1166.719756 773.140535 -20.000000
v 1166.719756 609.539946 -20.000000
v -1556.934860 773.140535 -20.000000
v -1556.934975 609.539946 -20.000000
v -1460.735377 609.539946 -20.000000
v -1460.735377 773.140535 -20.000000
v 1556.934860 773.140535 -20.000000
v 1556.934860 609.539946 -20.000000
v 1460.735262 773.140535 -20.000000
v 1460.735377 609.539946 -20.000000
v -1716.734773 773.140535 -20.000000
v -1716.734773 609.539946 -20.000000
v -1620.535060 609.539946 -20.000000
v -1620.535060 773.140535 -20.000000
v 1716.734773 773.140535 -20.000000
v 1716.734889 609.539946 -20.000000
v 1620.535060 773.140535 -20.000000
v 1620.535060 609.539946 -20.000000
v -1716.734773 372.437993 -20.000000
v -1620.535060 372.437993 -20.000000
v -1716.734773 208.838156 -20.000000
v -1620.535060 208.838156 -20.000000
v -1556.934860 372.437993 -20.000000
v -1460.735377 372.437993 -20.000000
v -1556.934860 208.838156 -20.000000
v -1460.735377 208.838156 -20.000000
v -1262.919931 372.437993 -20.000000
v -1166.719872 372.437993 -20.000000
v -1262.919931 208.838156 -20.000000
v -1166.719872 208.838156 -20.000000
v -1103.119902 372.437993 -20.000000
v -1006.920074 372.437993 -20.000000
v -1103.119902 208.838156 -20.000000
v -1006.920074 208.838156 -20.000000
v -809.109999 372.437993 -20.000000
v -712.910228 372.437993 -20.000000
v -809.109999 208.838156 -20.000000
v -712.910228 208.838156 -20.000000
v -649.310086 372.437993 -20.000000
v -553.110026 372.437993 -20.000000
v -649.310086 208.838156 -20.000000
v -553.110026 208.838156 -20.000000
v 553.110026 208.838156 -20.000000
v 649.310086 208.838156 -20.000000
v 649.310028 372.437993 -20.000000
v 553.110026 372.437993 -20.000000
v 712.910286 208.838156 -20.000000
v 809.109999 208.838156 -20.000000
v 809.110057 372.437993 -20.000000
v 712.910228 372.437993 -20.000000
v 1006.920074 208.838156 -20.000000
v 1103.119902 208.838156 -20.000000
v 1103.119902 372.437993 -20.000000
v 1006.920074 372.437993 -20.000000
v 1166.719756 208.838156 -20.000000
v 1262.919816 208.838156 -20.000000
v 1262.919816 372.437993 -20.000000
v 1166.719756 372.437993 -20.000000
v 1460.735377 208.838156 -20.000000
v 1556.934860 208.838156 -20.000000
v 1556.934860 372.437993 -20.000000
v 1460.735377 372.437993 -20.000000
v 1620.534944 208.838156 -20.000000
v 1716.734773 208.838156 -20.000000
v 1716.734773 372.437993 -20.000000
v 1620.535060 372.437993 -20.000000
v -247.069888 0.000000 0.000000
v -247.069888 196.838130 0.000000
v -247.069917 384.437962 0.000000
v 247.069859 0.000000 0.000000
v 247.069888 196.838130 0.000000
v 247.069917 384.437962 0.000000
v -24.187656 384.437962 0.000000
v -24.187706 196.838130 0.000000
v -24.187771 0.000000 0.000000
v 24.187656 384.437962 0.000000
v 24.187706 196.838130 0.000000
v 24.187764 0.000000 0.000000
v 241.069889 196.838130 -21.200001
v 241.069918 378.437978 -21.200001
v 30.187656 378.437978 -21.200001
v 30.187707 196.838130 -21.200001
v 241.069861 0.000058 -21.200001
v 30.187761 0.000058 -21.200001
v -30.187656 378.437978 -21.200001
v -30.187707 196.838130 -21.200001
v -241.069918 378.437978 -21.200001
v -241.069889 196.838130 -21.200001
v -30.187770 0.000058 -21.200001
v -241.069889 0.000058 -21.200001
v 0.000000 0.000000 -21.199971
v -267.825445 921.530220 585.083120
v 267.825445 921.530220 585.083120
v -138.027618 921.530220 585.083120
v 138.027618 921.530220 585.083120
v -367.289927 921.530163 585.083120
v 367.289927 921.530163 585.083120
vt 0.605171 0.464427
vt 0.604279 0.486767
vt 0.564025 0.486133
vt 0.564760 0.463531
vt 0.602635 0.588867
vt 0.562598 0.588744
vt 0.562532 0.569295
vt 0.602528 0.569488
vt 0.686017 0.595638
vt 0.675575 0.596517
vt 0.680197 0.588777
vt 0.455889 0.906422
vt 0.459723 0.907961
vt 0.450141 0.933330
vt 0.445464 0.932349
vt 0.374250 0.909243
vt 0.372306 0.913065
vt 0.302388 0.875933
vt 0.306366 0.878971
vt 0.318392 0.849629
vt 0.322064 0.851646
vt 0.351557 0.759555
vt 0.349028 0.739219
vt 0.353032 0.738398
vt 0.355718 0.759605
vt 0.304986 0.635981
vt 0.372706 0.606108
vt 0.374615 0.609948
vt 0.306609 0.639919
vt 0.701116 0.481617
vt 0.469613 0.930400
vt 0.607379 0.409608
vt 0.509731 0.462754
vt 0.393845 0.870251
vt 0.307247 0.835242
vt 0.404116 0.847892
vt 0.507649 0.568871
vt 0.507681 0.588518
vt 0.427022 0.759845
vt 0.425962 0.738606
vt 0.565961 0.730035
vt 0.606408 0.729075
vt 0.393923 0.649119
vt 0.646859 0.728000
vt 0.443866 0.583321
vt 0.445916 0.587296
vt 0.410471 0.629010
vt 0.533802 0.733493
vt 0.529576 0.730172
vt 0.531147 0.727914
vt 0.535835 0.770590
vt 0.518115 0.760153
vt 0.536875 0.760198
vt 0.410327 0.890425
vt 0.645117 0.478998
vt 0.645691 0.465483
vt 0.642833 0.602172
vt 0.642286 0.591878
vt 0.422708 0.864467
vt 0.451335 0.733815
vt 0.454162 0.759936
vt 0.501118 0.713620
vt 0.488549 0.688890
vt 0.684830 0.466545
vt 0.689542 0.476431
vt 0.678898 0.475761
vt 0.491725 0.686585
vt 0.504944 0.707372
vt 0.505398 0.680029
vt 0.511823 0.684941
vt 0.529093 0.790118
vt 0.500798 0.806675
vt 0.534050 0.789341
vt 0.504812 0.810166
vt 0.662491 0.556312
vt 0.667692 0.568987
vt 0.662290 0.567911
vt 0.696738 0.581521
vt 0.514083 0.709335
vt 0.696770 0.550940
vt 0.512326 0.809176
vt 0.510260 0.982967
vt 0.592738 0.809829
vt 0.591288 0.809868
vt 0.590864 0.789908
vt 0.592284 0.789876
vt 0.625728 0.808477
vt 0.619251 0.808888
vt 0.617729 0.788971
vt 0.624079 0.788557
vt 0.624385 0.854588
vt 0.620794 0.825836
vt 0.689742 0.906360
vt 0.257973 0.679652
vt 0.627386 0.821588
vt 0.553422 0.799854
vt 0.560380 0.790261
vt 0.559780 0.810312
vt 0.531294 0.865679
vt 0.528434 0.870045
vt 0.521423 0.859170
vt 0.525730 0.861931
vt 0.660298 0.866316
vt 0.657243 0.862102
vt 0.662782 0.858092
vt 0.665866 0.862226
vt 0.631526 0.797711
vt 0.558987 0.823523
vt 0.500110 0.910907
vt 0.494438 0.906955
vt 0.552274 0.821002
vt 0.633799 0.818655
vt 0.638513 0.816413
vt 0.537350 0.785671
vt 0.525726 0.798379
vt 0.526490 0.722110
vt 0.537785 0.734936
vt 0.246380 0.679652
vt 0.523584 0.927392
vt 0.239060 0.679652
vt 0.566724 0.790302
vt 0.566296 0.810261
vt 0.275062 0.679652
vt 0.605977 0.854290
vt 0.606731 0.825718
vt 0.614370 0.820731
vt 0.606841 0.820696
vt 0.610109 0.807534
vt 0.609402 0.791130
vt 0.613029 0.790872
vt 0.613992 0.807507
vt 0.582083 0.854915
vt 0.667990 0.553974
vt 0.572683 0.826742
vt 0.221971 0.602115
vt 0.221971 0.609435
vt 0.246380 0.609435
vt 0.239060 0.609435
vt 0.571368 0.808591
vt 0.568288 0.808530
vt 0.568668 0.792030
vt 0.571626 0.791951
vt 0.284831 0.609435
vt 0.284831 0.602115
vt 0.267742 0.609435
vt 0.275062 0.609435
vt 0.571854 0.821817
vt 0.524744 0.588589
vt 0.524723 0.569032
vt 0.526680 0.463123
vt 0.526085 0.485568
vt 0.606695 0.426532
vt 0.679196 0.555358
vt 0.679709 0.549528
vt 0.511385 0.944766
vt 0.529130 0.801721
vt 0.487915 0.928284
vt 0.482256 0.924310
vt 0.537675 0.779288
vt 0.571549 0.789744
vt 0.539571 0.770662
vt 0.540584 0.760215
vt 0.607317 0.789499
vt 0.539603 0.749744
vt 0.612928 0.788671
vt 0.538041 0.741014
vt 0.707889 0.919364
vt 0.716310 0.942486
vt 0.702318 0.923461
vt 0.679213 0.940452
vt 0.679641 0.582941
vt 0.605926 0.712147
vt 0.684839 0.672296
vt 0.565477 0.713073
vt 0.664057 0.597598
vt 0.663513 0.590524
vt 0.668463 0.584263
vt 0.608220 0.809307
vt 0.614178 0.809730
vt 0.593097 0.820930
vt 0.571361 0.810826
vt 0.663035 0.547881
vt 0.667057 0.475256
vt 0.669050 0.465843
vt 0.606078 0.441845
vt 0.542042 0.463367
vt 0.541407 0.485823
vt 0.540052 0.588658
vt 0.540019 0.569150
vt 0.565000 0.697669
vt 0.605489 0.696830
vt 0.646000 0.695818
vt 0.615999 0.790795
vt 0.617051 0.807274
vt 0.605041 0.809421
vt 0.604233 0.789574
vt 0.579774 0.826438
vt 0.579350 0.821420
vt 0.577262 0.810082
vt 0.575339 0.792001
vt 0.575174 0.808415
vt 0.577228 0.790264
vt 0.594026 0.854544
vt 0.593246 0.825919
vt 0.594188 0.809795
vt 0.595962 0.807757
vt 0.595697 0.791588
vt 0.602517 0.791583
vt 0.602966 0.807702
vt 0.593704 0.789840
vt 0.580435 0.810067
vt 0.580323 0.790217
vt 0.589118 0.791932
vt 0.589260 0.808113
vt 0.582255 0.808063
vt 0.582298 0.791955
vt 0.686589 0.602554
vt 0.685430 0.601626
vt 0.676930 0.602240
vt 0.676704 0.597437
vt 0.685107 0.596800
vt 0.675988 0.603395
vt 0.664461 0.604386
vt 0.642012 0.546988
vt 0.602563 0.550063
vt 0.642455 0.536636
vt 0.562614 0.549831
vt 0.524844 0.549461
vt 0.540130 0.549630
vt 0.332403 0.775158
vt 0.348731 0.779823
vt 0.352750 0.780751
vt 0.425880 0.781065
vt 0.451264 0.786007
vt 0.488918 0.830668
vt 0.492000 0.833193
vt 0.697571 0.540408
vt 0.685503 0.542744
vt 0.675055 0.541846
vt 0.663507 0.540908
vt 0.643213 0.611304
vt 0.500938 0.669972
vt 0.686743 0.604702
vt 0.676118 0.605525
vt 0.664582 0.606484
vt 0.686050 0.535890
vt 0.676481 0.536105
vt 0.684959 0.536876
vt 0.684515 0.541648
vt 0.676121 0.540865
vt 0.663949 0.534189
vt 0.675468 0.535013
vt 0.687184 0.611603
vt 0.686038 0.610672
vt 0.677503 0.611240
vt 0.677264 0.606449
vt 0.685800 0.605857
vt 0.676560 0.612386
vt 0.664888 0.613286
vt 0.642806 0.527488
vt 0.698254 0.531058
vt 0.686215 0.533764
vt 0.675601 0.532901
vt 0.664056 0.532105
vt 0.643920 0.626634
vt 0.603299 0.619848
vt 0.562984 0.619960
vt 0.540366 0.619959
vt 0.525024 0.619963
vt 0.507992 0.619998
vt 0.336953 0.705927
vt 0.340810 0.704410
vt 0.417491 0.705080
vt 0.439269 0.694110
vt 0.471212 0.651239
vt 0.474787 0.649582
vt 0.491908 0.651207
vt 0.687684 0.621045
vt 0.677037 0.621738
vt 0.665358 0.622538
vt 0.686643 0.526924
vt 0.677058 0.527170
vt 0.685565 0.527911
vt 0.685199 0.532674
vt 0.676682 0.531917
vt 0.664413 0.525346
vt 0.676044 0.526085
vt 0.688087 0.627946
vt 0.686940 0.627001
vt 0.678324 0.627473
vt 0.678171 0.622673
vt 0.686733 0.622187
vt 0.677354 0.628610
vt 0.665685 0.629369
vt 0.603195 0.518955
vt 0.643559 0.512138
vt 0.563131 0.518546
vt 0.525316 0.518041
vt 0.540609 0.518271
vt 0.322570 0.803401
vt 0.336881 0.813108
vt 0.340679 0.814748
vt 0.417430 0.814438
vt 0.439314 0.825492
vt 0.471423 0.868393
vt 0.474958 0.870222
vt 0.699269 0.515393
vt 0.687244 0.517565
vt 0.676596 0.516813
vt 0.664880 0.516162
vt 0.644249 0.634912
vt 0.488619 0.640167
vt 0.688186 0.630089
vt 0.677454 0.630742
vt 0.665788 0.631481
vt 0.687660 0.510729
vt 0.677976 0.511067
vt 0.686576 0.511725
vt 0.686221 0.516486
vt 0.677666 0.515818
vt 0.665285 0.509374
vt 0.676939 0.509991
vt 0.688509 0.636993
vt 0.687374 0.636045
vt 0.678777 0.636486
vt 0.678595 0.631686
vt 0.687217 0.631228
vt 0.677814 0.637619
vt 0.666042 0.638329
vt 0.643945 0.503863
vt 0.699725 0.506940
vt 0.687785 0.508605
vt 0.677055 0.507876
vt 0.665384 0.507269
vt 0.644895 0.652021
vt 0.604214 0.651920
vt 0.563635 0.652302
vt 0.540895 0.652337
vt 0.525500 0.652383
vt 0.508498 0.652484
vt 0.318338 0.669398
vt 0.322066 0.667432
vt 0.404130 0.671528
vt 0.422712 0.655046
vt 0.455974 0.613311
vt 0.459807 0.611844
vt 0.479149 0.617837
vt 0.688905 0.646446
vt 0.678218 0.647016
vt 0.666464 0.647652
vt 0.688133 0.501756
vt 0.678481 0.502113
vt 0.687060 0.502756
vt 0.686748 0.507526
vt 0.678138 0.506877
vt 0.665729 0.500446
vt 0.677453 0.501037
vt 0.689258 0.653366
vt 0.688117 0.652408
vt 0.679490 0.652801
vt 0.679349 0.647973
vt 0.687942 0.647581
vt 0.678516 0.653935
vt 0.666772 0.654542
vt 0.644752 0.486784
vt 0.700700 0.489567
vt 0.688669 0.492364
vt 0.677978 0.491701
vt 0.666192 0.491167
vt 0.645166 0.659832
vt 0.701254 0.657375
vt 0.689348 0.655516
vt 0.678616 0.656084
vt 0.666875 0.656678
vt 0.689068 0.485490
vt 0.679365 0.485896
vt 0.687984 0.486499
vt 0.687640 0.491287
vt 0.679052 0.490690
vt 0.666602 0.484304
vt 0.678327 0.484818
vt 0.689641 0.662454
vt 0.688513 0.661495
vt 0.679952 0.661897
vt 0.679760 0.657047
vt 0.688374 0.656654
vt 0.678995 0.663035
vt 0.667132 0.663605
vt 0.689192 0.483349
vt 0.678452 0.482680
vt 0.666703 0.482173
vt 0.604841 0.674254
vt 0.645552 0.673415
vt 0.564213 0.674812
vt 0.679917 0.476844
vt 0.688471 0.477446
vt 0.688155 0.482265
vt 0.679542 0.481664
vt 0.645745 0.684097
vt 0.656339 0.663927
vt 0.665887 0.657794
vt 0.665998 0.662625
vt 0.657317 0.662821
vt 0.657173 0.658023
vt 0.656029 0.657051
vt 0.655934 0.654932
vt 0.665488 0.648768
vt 0.665629 0.653572
vt 0.656924 0.653825
vt 0.656829 0.649049
vt 0.655700 0.648087
vt 0.655298 0.638794
vt 0.664805 0.632599
vt 0.664913 0.637373
vt 0.656273 0.637686
vt 0.656140 0.632943
vt 0.655002 0.631995
vt 0.654906 0.629898
vt 0.664391 0.623659
vt 0.664545 0.628421
vt 0.655888 0.628787
vt 0.655779 0.624054
vt 0.654652 0.623115
vt 0.654208 0.613913
vt 0.663614 0.607612
vt 0.663758 0.612354
vt 0.655171 0.612801
vt 0.655014 0.608112
vt 0.653877 0.607193
vt 0.653774 0.605115
vt 0.663113 0.598735
vt 0.663320 0.603467
vt 0.654741 0.603999
vt 0.654611 0.599337
vt 0.653489 0.598437
vt 0.653177 0.591513
vt 0.652607 0.583429
vt 0.662959 0.582062
vt 0.652127 0.556317
vt 0.661534 0.557070
vt 0.661339 0.567090
vt 0.651739 0.567046
vt 0.652749 0.547109
vt 0.652997 0.540189
vt 0.654049 0.539214
vt 0.654338 0.534578
vt 0.662870 0.535175
vt 0.662500 0.539847
vt 0.653301 0.533535
vt 0.653388 0.531467
vt 0.654461 0.530480
vt 0.654795 0.525820
vt 0.663343 0.526345
vt 0.663025 0.531046
vt 0.653767 0.524779
vt 0.654205 0.515580
vt 0.655273 0.514579
vt 0.655575 0.509874
vt 0.664201 0.510380
vt 0.663853 0.515104
vt 0.654532 0.508824
vt 0.654630 0.506734
vt 0.655711 0.505727
vt 0.656049 0.501012
vt 0.664655 0.501463
vt 0.664344 0.506211
vt 0.655015 0.499966
vt 0.655460 0.490686
vt 0.656534 0.489667
vt 0.656841 0.484919
vt 0.665513 0.485332
vt 0.665161 0.490108
vt 0.655795 0.483870
vt 0.655897 0.481759
vt 0.656986 0.480729
vt 0.657337 0.475958
vt 0.665979 0.476299
vt 0.665660 0.481112
vt 0.656304 0.474914
vt 0.646062 0.454870
vt 0.605604 0.453638
vt 0.553897 0.463492
vt 0.553219 0.485990
vt 0.552377 0.518420
vt 0.551880 0.549739
vt 0.551782 0.569229
vt 0.551832 0.588705
vt 0.552178 0.619961
vt 0.552764 0.652323
vt 0.564604 0.685758
vt 0.605152 0.685039
vt 0.642393 0.583840
vt 0.641526 0.555892
vt 0.641331 0.567630
vt 0.651829 0.569348
vt 0.651829 0.570542
vt 0.641965 0.570399
vt 0.641938 0.569401
vt 0.662278 0.569167
vt 0.662272 0.570427
vt 0.652325 0.555207
vt 0.642272 0.554984
vt 0.651804 0.571633
vt 0.661373 0.571294
vt 0.661946 0.581338
vt 0.652388 0.582301
vt 0.641412 0.571228
vt 0.641623 0.582978
vt 0.651795 0.568157
vt 0.641907 0.568399
vt 0.641156 0.569433
vt 0.535979 0.749802
vt 0.534404 0.740335
vt 0.533389 0.786838
vt 0.534128 0.780049
vt 0.475830 0.912114
vt 0.647757 0.411076
vt 0.509111 0.485206
vt 0.315521 0.898143
vt 0.475910 0.607716
vt 0.700916 0.649402
vt 0.479226 0.901934
vt 0.700130 0.631884
vt 0.307243 0.683878
vt 0.322781 0.715789
vt 0.488888 0.879497
vt 0.508307 0.517728
vt 0.699720 0.623343
vt 0.492501 0.868389
vt 0.698795 0.607479
vt 0.332721 0.743804
vt 0.502035 0.849030
vt 0.507794 0.549230
vt 0.698103 0.598017
vt 0.507275 0.837735
vt 0.697269 0.587414
vt 0.333974 0.759403
vt 0.591888 0.776158
vt 0.577608 0.776100
vt 0.606163 0.775360
vt 0.619786 0.774622
vt 0.563885 0.776086
vt 0.634987 0.773557
vt 0.629836 0.773968
vt 0.530150 0.718991
vt 0.468683 0.943634
vt 0.553799 0.776019
vt 0.474341 0.947609
vt 0.497810 0.964093
vt 0.693206 0.959479
vt 0.522614 0.814192
vt 0.516177 0.694691
vt 0.521532 0.820358
vt 0.368405 0.921795
vt 0.368880 0.597342
vt 0.292060 0.660568
vt 0.424640 0.579246
vt 0.534541 0.731026
vt 0.529805 0.724055
vt 0.530575 0.792346
vt 0.529121 0.796342
vt 0.505237 0.811543
vt 0.516631 0.830402
vt 0.505824 0.711325
vt 0.508673 0.695352
vt 0.302589 0.642921
vt 0.315877 0.620764
vt 0.450589 0.586381
vt 0.469911 0.589495
vt 0.304718 0.882894
vt 0.292060 0.858274
vt 0.443372 0.936307
vt 0.424074 0.940249
vt 0.622239 0.821056
vt 0.267742 0.679652
vt 0.250653 0.679652
vt 0.613855 0.825611
vt 0.649690 0.935814
vt 0.624586 0.875427
vt 0.594554 0.875504
vt 0.662266 0.952915
vt 0.681170 0.978620
vt 0.528600 0.956856
vt 0.696259 0.556817
vt 0.221971 0.679652
vt 0.229291 0.679652
vt 0.564079 0.822667
vt 0.565762 0.827271
vt 0.564543 0.876958
vt 0.540800 0.939483
vt 0.563708 0.856151
vt 0.666637 0.923351
vt 0.548368 0.799476
vt 0.547399 0.819022
vt 0.636549 0.797033
vt 0.695313 0.902263
vt 0.653230 0.865112
vt 0.624599 0.826189
vt 0.535546 0.868615
vt 0.561985 0.827822
vt 0.721881 0.938390
vt 0.548626 0.775924
vt 0.666978 0.855057
vt 0.522751 0.866126
vt 0.257973 0.609435
vt 0.275062 0.602115
vt 0.229291 0.609435
vt 0.212202 0.602115
vt 0.212202 0.609435
vt 0.212202 0.679652
vt 0.250653 0.609435
vt 0.284831 0.679652
vt 0.553209 0.674773
vt 0.565222 0.452541
vt 0.656794 0.465474
vt 0.646491 0.443200
vt 0.656754 0.673393
vt 0.669091 0.673004
vt 0.541254 0.674764
vt 0.565719 0.440600
vt 0.525810 0.674802
vt 0.566352 0.425178
vt 0.646382 0.711084
vt 0.702033 0.671132
vt 0.647077 0.427971
vt 0.702033 0.467883
vt 0.567031 0.408213
vt 0.508824 0.674923
vn 0.000000 -1.000000 0.000000
vn 0.000000 -1.000000 0.000000
vn 0.000000 -1.000000 0.000000
vn 0.000000 -1.000000 0.000000
vn -0.000000 -1.000000 -0.000000
vn -0.000000 -1.000000 0.000000
vn 0.000000 -1.000000 0.000000
vn 0.000000 -1.000000 0.000000
vn 0.000000 0.000000 1.000000
vn 0.000000 0.000000 1.000000
vn -0.000012 -0.000002 1.000000
vn -0.000001 -0.000000 1.000000
vn -0.000001 -0.000000 1.000000
vn -0.000001 0.000000 1.000000
vn -0.000001 0.000000 1.000000
vn 0.999999 -0.001555 0.000000
vn 0.999999 -0.001555 0.000000
vn 0.999999 -0.001555 0.000000
vn 0.999999 -0.001555 0.000000
vn -0.000000 0.000002 -1.000000
vn -0.000000 0.000003 -1.000000
vn -0.000000 0.000003 -1.000000
vn -0.000000 0.000002 -1.000000
vn 0.000000 0.000003 -1.000000
vn -0.000000 0.000001 -1.000000
vn -0.000000 0.000001 -1.000000
vn 0.000000 0.000003 -1.000000
vn -0.999999 -0.001559 0.000000
vn -0.999999 -0.001561 0.000000
vn -0.999999 -0.001561 0.000000
vn -0.999999 -0.001559 0.000000
vn -0.000630 -0.933253 -0.359220
vn -0.000783 -0.933633 -0.358230
vn -0.447091 -0.886179 -0.121637
vn -0.294431 -0.931490 -0.213628
vn -0.617669 -0.786438 0.000000
vn -0.617669 -0.786438 0.000000
vn -0.393402 -0.907137 0.149456
vn -0.224595 -0.943910 0.242056
vn 0.580762 0.814073 0.000000
vn 0.580762 0.814073 -0.000000
vn 0.580762 0.814073 -0.000000
vn -0.000712 -0.937836 0.347078
vn -0.000713 -0.938067 0.346453
vn -0.000006 0.939694 -0.342016
vn -0.000006 0.939695 -0.342013
vn -0.000006 0.939696 -0.342012
vn -0.000006 0.939694 -0.342016
vn 0.000000 -0.935121 0.354329
vn 0.000711 -0.935743 0.352682
vn 0.000711 -0.935794 0.352547
vn 0.000000 -0.935121 0.354329
vn 0.000000 0.939701 -0.341998
vn 0.000000 0.939701 -0.341997
vn 0.000006 0.939700 -0.342001
vn 0.000006 0.939700 -0.342001
vn 0.393402 -0.907137 0.149455
vn 0.617670 -0.786438 -0.000000
vn 0.617670 -0.786438 -0.000000
vn 0.224595 -0.943910 0.242056
vn -0.580762 0.814073 -0.000000
vn -0.580762 0.814073 -0.000000
vn -0.580762 0.814073 0.000000
vn 0.447093 -0.886179 -0.121637
vn 0.294431 -0.931490 -0.213629
vn -0.999999 -0.001563 0.000000
vn -0.999999 -0.001563 0.000000
vn -0.580762 0.814073 -0.000000
vn -0.580762 0.814073 -0.000000
vn -0.000000 -0.000044 1.000000
vn 0.000005 -0.000013 1.000000
vn 0.000000 -0.000044 1.000000
vn -0.000004 -0.000010 1.000000
vn 0.000000 -0.000010 1.000000
vn 0.000000 -0.000007 1.000000
vn 0.580762 0.814073 -0.000000
vn 0.580762 0.814073 -0.000000
vn 0.999999 -0.001555 0.000000
vn 0.999999 -0.001555 0.000000
vn 0.000000 -1.000000 0.000000
vn 0.000000 -1.000000 0.000000
vn 0.000000 -1.000000 0.000000
vn 0.000000 -1.000000 0.000000
vn 0.000009 0.939695 0.342015
vn 0.000008 0.939693 0.342018
vn 0.000005 0.939693 0.342019
vn 0.000004 0.939694 0.342016
vn -0.000009 0.939690 0.342027
vn -0.000005 0.939690 0.342027
vn 0.000000 0.939689 0.342029
vn 0.000000 0.939689 0.342030
vn 0.000003 0.939693 0.342018
vn 0.000003 0.939694 0.342017
vn -0.000003 0.939690 0.342028
vn -0.000003 0.939691 0.342026
vn 0.000000 0.000000 1.000000
vn 0.000000 0.000000 1.000000
vn 0.000000 0.000000 1.000000
vn 0.000001 -0.000000 1.000000
vn 0.000001 -0.000000 1.000000
vn 0.000001 -0.000001 1.000000
vn 0.000001 -0.000001 1.000000
vn 0.000621 -0.931237 -0.364415
vn 0.000716 -0.930714 -0.365746
vn 0.000433 -0.930559 -0.366142
vn 0.000433 -0.930559 -0.366142
vn -1.000000 -0.000001 -0.000000
vn -1.000000 -0.000001 -0.000000
vn -1.000000 -0.000001 -0.000000
vn -1.000000 -0.000001 -0.000000
vn -0.498056 0.867137 0.003687
vn -0.498056 0.867137 0.003687
vn -0.498056 0.867137 0.003687
vn -0.498056 0.867137 0.003687
vn 0.498056 0.867137 0.003687
vn 0.498056 0.867137 0.003687
vn 0.498056 0.867137 0.003687
vn 0.498056 0.867137 0.003687
vn 1.000000 -0.000003 -0.000000
vn 1.000000 -0.000003 -0.000000
vn 1.000000 -0.000003 -0.000000
vn 1.000000 -0.000003 -0.000000
vn 0.000000 0.000000 1.000000
vn 0.000000 0.000000 1.000000
vn 0.000000 0.000000 1.000000
vn 0.000121 -0.930366 -0.366632
vn 0.000121 -0.930366 -0.366632
vn -0.000433 -0.930559 -0.366143
vn -0.000433 -0.930559 -0.366143
vn -0.000121 -0.930366 -0.366633
vn -0.000121 -0.930366 -0.366633
vn 0.000000 0.000000 1.000000
vn -0.000000 0.000000 1.000000
vn -0.000000 0.000000 1.000000
vn 0.000000 0.000000 1.000000
vn -0.000000 0.000000 1.000000
vn 0.115790 0.000000 0.993274
vn 0.096822 0.000000 0.995302
vn -0.000001 0.000000 1.000000
vn 0.000000 -1.000000 0.000005
vn 0.000000 -1.000000 0.000004
vn 0.000000 -1.000000 0.000003
vn 0.000000 -1.000000 0.000000
vn 0.000000 -1.000000 0.000000
vn 0.000000 0.000000 1.000000
vn 0.000000 0.000000 1.000000
vn 0.000000 0.000000 1.000000
vn 0.000000 -1.000000 0.000000
vn 0.000000 -1.000000 0.000000
vn 0.000000 -1.000000 0.000000
vn 0.000000 -1.000000 0.000000
vn 0.000000 -1.000000 0.000000
vn 0.000000 -1.000000 0.000000
vn 0.000000 -1.000000 0.000000
vn 0.000000 -1.000000 0.000000
vn -0.000000 0.000000 1.000000
vn -1.000000 0.000000 0.000000
vn -1.000000 0.000000 0.000000
vn -1.000000 0.000000 0.000000
vn -1.000000 0.000000 0.000000
vn 0.000000 0.000000 -1.000000
vn 0.000000 0.000000 -1.000000
vn 0.000000 0.000000 -1.000000
vn 0.000000 0.000000 -1.000000
vn 1.000000 0.000000 0.000000
vn 1.000000 0.000000 0.000000
vn 1.000000 0.000000 0.000000
vn 1.000000 0.000000 0.000000
vn 0.000000 0.000000 1.000000
vn 0.000000 0.000000 1.000000
vn 0.000000 0.000000 1.000000
vn 0.000000 0.000000 1.000000
vn 1.000000 0.000000 0.000000
vn 1.000000 0.000000 0.000000
vn 1.000000 0.000000 0.000000
vn 1.000000 0.000000 0.000000
vn -0.000000 0.000000 1.000000
vn -0.000000 0.000000 1.000000
vn 0.000000 0.000000 1.000000
vn 0.000000 0.000000 1.000000
vn -1.000000 0.000000 0.000000
vn -1.000000 0.000000 0.000000
vn -1.000000 0.000000 0.000000
vn -1.000000 0.000000 0.000000
vn 0.000000 0.000000 -1.000000
vn 0.000000 0.000000 -1.000000
vn 0.000000 0.000000 -1.000000
vn 0.000000 0.000000 -1.000000
vn -0.000040 -1.000000 0.000000
vn -0.000040 -1.000000 0.000000
vn -0.000040 -1.000000 0.000000
vn 0.000040 -1.000000 0.000000
vn 0.000040 -1.000000 0.000000
vn 0.000040 -1.000000 0.000000
vn 0.000000 -1.000000 0.000004
vn 0.000000 -1.000000 0.000005
vn 0.000000 -1.000000 0.000003
vn 0.000000 -1.000000 0.000000
vn 0.000000 -1.000000 0.000000
vn -0.096822 0.000000 0.995302
vn -0.115790 0.000000 0.993274
vn 0.000000 -1.000000 0.000004
vn -0.000000 -1.000000 0.000004
vn -0.000000 -1.000000 0.000003
vn 0.000000 -1.000000 0.000000
vn -0.000000 -1.000000 0.000000
vn 0.000000 0.000000 1.000000
vn 0.000000 0.000000 1.000000
vn 0.000000 0.000000 1.000000
vn 0.000000 0.000000 1.000000
vn 0.000000 -1.000000 0.000004
vn 0.000000 -1.000000 0.000005
vn 0.000000 -1.000000 0.000005
vn 0.000000 -1.000000 0.000004
vn 0.000000 -1.000000 0.000000
vn 0.000000 -1.000000 0.000000
vn 0.000000 -1.000000 0.000000
vn 0.000000 -1.000000 0.000000
vn 0.000000 0.000000 1.000000
vn 0.000000 0.000000 1.000000
vn 0.000000 0.000000 1.000000
vn 0.000000 0.000000 1.000000
vn -1.000000 0.000000 0.000000
vn -1.000000 0.000000 0.000000
vn -1.000000 0.000000 0.000000
vn -1.000000 0.000000 0.000000
vn 1.000000 0.000000 0.000000
vn 1.000000 0.000000 0.000000
vn 1.000000 0.000000 0.000000
vn 1.000000 0.000000 0.000000
vn -1.000000 0.000000 0.000000
vn -1.000000 0.000000 0.000000
vn -1.000000 0.000000 0.000000
vn -1.000000 0.000000 0.000000
vn 0.000000 0.000000 -1.000000
vn 0.000000 0.000000 -1.000000
vn 0.000000 0.000000 -1.000000
vn 0.000000 0.000000 -1.000000
vn 1.000000 0.000000 0.000000
vn 1.000000 0.000000 0.000000
vn 1.000000 0.000000 0.000000
vn 1.000000 0.000000 0.000000
vn 0.000000 0.000000 1.000000
vn 0.000000 0.000000 1.000000
vn 0.000000 0.000000 1.000000
vn 0.000000 0.000000 1.000000
vn 0.000000 -0.000000 -1.000000
vn 0.000000 0.000000 -1.000000
vn 0.000000 0.000000 -1.000000
vn 0.000000 0.000000 -1.000000
vn 0.000000 0.000000 -1.000000
vn -0.000000 0.000000 -1.000000
vn -0.000000 0.000000 -1.000000
vn 0.000000 0.000000 -1.000000
vn 1.000000 0.000000 0.000000
vn 1.000000 0.000000 0.000000
vn 1.000000 0.000000 0.000000
vn 1.000000 0.000000 0.000000
vn 1.000000 0.000000 0.000000
vn 1.000000 0.000000 0.000000
vn 0.000000 0.000000 1.000000
vn 0.000000 0.000000 1.000000
vn 0.000022 -0.000004 1.000000
vn 0.000012 -0.000002 1.000000
vn 0.000015 -0.000002 1.000000
vn 0.000033 -0.000004 1.000000
vn 1.000000 -0.000000 0.000000
vn 1.000000 -0.000000 0.000000
vn 1.000000 -0.000000 0.000000
vn 1.000000 -0.000000 0.000000
vn 1.000000 0.000000 0.000000
vn 1.000000 0.000000 0.000000
vn 1.000000 0.000000 0.000000
vn 1.000000 0.000000 0.000000
vn 0.000000 0.000000 -1.000000
vn 0.000000 0.000000 -1.000000
vn 0.000000 0.000000 -1.000000
vn 0.000000 0.000000 -1.000000
vn 1.000000 0.000000 0.000000
vn 1.000000 0.000000 0.000000
vn 1.000000 0.000000 0.000000
vn 1.000000 0.000000 0.000000
vn 0.000000 0.000000 1.000000
vn 0.000001 0.000000 1.000000
vn 0.000000 0.000000 1.000000
vn -0.000000 0.000000 1.000000
vn -0.000000 0.000000 1.000000
vn 0.000000 0.000000 1.000000
vn 0.000000 0.000000 1.000000
vn -0.000000 0.000000 1.000000
vn -0.000001 0.000000 1.000000
vn -0.000001 0.000000 1.000000
vn -1.000000 0.000000 0.000000
vn -1.000000 0.000000 0.000000
vn -1.000000 0.000000 0.000000
vn -1.000000 0.000000 0.000000
vn 0.000000 0.000000 -1.000000
vn 0.000000 0.000000 -1.000000
vn 0.000000 0.000000 -1.000000
vn 0.000000 0.000000 -1.000000
vn -1.000000 0.000000 0.000000
vn -1.000000 0.000000 0.000000
vn -1.000000 0.000000 0.000000
vn -1.000000 0.000000 0.000000
vn -1.000000 0.000000 0.000000
vn -1.000000 0.000000 0.000000
vn -1.000000 0.000000 0.000000
vn -1.000000 0.000000 0.000000
vn -0.000015 -0.000002 1.000000
vn -0.000022 -0.000004 1.000000
vn -0.000033 -0.000004 1.000000
vn 0.000000 0.000000 1.000000
vn -1.000000 0.000000 0.000000
vn -1.000000 0.000000 -0.000000
vn -1.000000 0.000000 0.000000
vn -1.000000 0.000000 0.000000
vn -1.000000 0.000000 -0.000000
vn -1.000000 0.000000 -0.000000
vn 0.000000 -0.017462 0.999848
vn -0.000001 -0.000001 1.000000
vn -0.000009 -0.000005 1.000000
vn -1.000000 -0.000000 0.000000
vn -1.000000 -0.000000 0.000000
vn -1.000000 0.000000 0.000000
vn -1.000000 0.000000 0.000000
vn 0.000000 0.000000 1.000000
vn 0.000000 0.000000 1.000000
vn 0.000000 0.000000 1.000000
vn 0.000000 0.000000 1.000000
vn 0.000000 0.000000 1.000000
vn -0.000000 0.000000 1.000000
vn 0.000000 0.000000 1.000000
vn 1.000000 -0.000000 0.000000
vn 1.000000 -0.000000 0.000000
vn 1.000000 0.000000 0.000000
vn 1.000000 0.000000 0.000000
vn 0.000001 -0.000001 1.000000
vn 0.000009 -0.000005 1.000000
vn 0.000000 -0.014576 0.999894
vn 0.000000 0.000000 1.000000
vn 1.000000 0.000000 0.000000
vn 1.000000 -0.000000 0.000000
vn 1.000000 -0.000000 0.000000
vn 0.000000 0.000000 -1.000000
vn 0.000000 0.000000 -1.000000
vn 0.000000 0.000000 -1.000000
vn 0.000000 -0.000000 -1.000000
vn -1.000000 -0.000000 -0.000000
vn -1.000000 -0.000000 -0.000000
vn -1.000000 0.000000 -0.000000
vn 0.000000 -1.000000 0.000005
vn -0.000000 -1.000000 0.000005
vn 0.000000 0.000000 -1.000000
vn 0.000000 0.000000 -1.000000
vn 0.000000 0.000000 -1.000000
vn 0.000000 0.000000 -1.000000
vn 0.000000 -1.000000 0.000000
vn 0.000000 -1.000000 0.000000
vn 0.000000 -1.000000 0.000000
vn 0.000000 -1.000000 0.000000
vn 0.000000 0.000000 1.000000
vn 0.000000 0.000000 1.000000
vn 0.000000 0.000000 1.000000
vn 0.000000 0.000000 1.000000
vn 0.000000 0.000000 1.000000
vn 0.000000 0.000000 1.000000
vn 0.000000 -1.000000 0.000003
vn 0.000000 -1.000000 0.000000
vn 0.000000 -1.000000 0.000000
vn 0.000000 0.000000 1.000000
vn -0.000000 0.000000 1.000000
vn 0.000000 0.000000 1.000000
vn 0.000000 0.000000 1.000000
vn 0.000000 0.000000 1.000000
vn -0.000000 -1.000000 0.000004
vn 0.000000 -1.000000 0.000003
vn 0.000000 -1.000000 0.000000
vn 0.000000 0.000000 1.000000
vn 0.000000 0.000000 1.000000
vn 0.000000 0.000000 1.000000
vn 0.000000 0.000000 1.000000
vn 0.000000 0.000000 1.000000
vn 0.000000 0.000000 1.000000
vn 0.000000 0.000000 1.000000
vn 0.000000 0.000000 1.000000
vn -0.000000 0.000000 1.000000
vn -0.000000 0.000000 1.000000
vn 0.000000 0.000000 1.000000
vn 0.000000 0.000000 1.000000
vn 0.000000 -1.000000 0.000004
vn 0.000000 0.000000 1.000000
vn 0.000000 0.000000 1.000000
vn 0.000000 0.000000 1.000000
vn 0.000000 0.000000 1.000000
vn -0.918062 0.000000 0.396436
vn -0.918062 0.000000 0.396436
vn -0.918062 0.000000 0.396436
vn -0.918062 0.000000 0.396436
vn 0.000000 -0.918062 0.396437
vn 0.000000 -0.918062 0.396437
vn 0.000000 -0.918062 0.396437
vn 0.000000 -0.918062 0.396437
vn 0.000000 0.918062 0.396438
vn 0.000000 0.918062 0.396438
vn 0.000000 0.918062 0.396438
vn 0.000000 0.918062 0.396438
vn 0.918062 0.000000 0.396436
vn 0.918062 0.000000 0.396436
vn 0.000000 0.918062 0.396438
vn 0.000000 0.918062 0.396438
vn 0.000000 -0.918062 0.396437
vn 0.000000 -0.918062 0.396437
vn 0.000000 0.918062 0.396438
vn 0.000000 0.918062 0.396438
vn 0.000000 0.918061 0.396438
vn 0.000000 0.918062 0.396438
vn -0.918062 0.000000 0.396436
vn -0.918062 0.000000 0.396436
vn 0.000000 -0.918062 0.396437
vn 0.000000 -0.918062 0.396437
vn 0.000000 -0.918062 0.396437
vn 0.000000 -0.918062 0.396437
vn 0.918062 0.000000 0.396436
vn 0.918062 0.000000 0.396436
vn 0.918062 0.000000 0.396436
vn 0.918062 0.000000 0.396436
vn 0.000000 0.918062 0.396437
vn 0.000000 0.918062 0.396438
vn 0.000000 -0.918062 0.396437
vn 0.000000 -0.918062 0.396437
vn -0.918062 0.000000 0.396437
vn -0.918062 0.000000 0.396437
vn -0.918062 0.000000 0.396437
vn -0.918062 0.000000 0.396437
vn 0.000000 -0.918062 0.396438
vn 0.000000 -0.918062 0.396438
vn 0.000000 -0.918062 0.396438
vn 0.000000 -0.918062 0.396438
vn 0.918062 0.000000 0.396436
vn 0.918062 0.000000 0.396436
vn 0.918062 0.000000 0.396436
vn 0.918062 0.000000 0.396436
vn 0.000000 0.918062 0.396437
vn 0.000000 0.918062 0.396437
vn 0.000000 0.918062 0.396437
vn 0.000000 0.918062 0.396437
vn 0.918062 0.000000 0.396437
vn 0.918062 0.000000 0.396437
vn 0.918062 0.000000 0.396437
vn 0.918062 0.000000 0.396437
vn 0.000000 0.918062 0.396436
vn 0.000000 0.918062 0.396436
vn 0.000000 0.918062 0.396436
vn 0.000000 0.918062 0.396436
vn -0.918062 0.000000 0.396436
vn -0.918062 0.000000 0.396436
vn -0.918062 0.000000 0.396436
vn -0.918062 0.000000 0.396436
vn 0.000000 -0.918062 0.396437
vn 0.000000 -0.918062 0.396437
vn 0.000000 -0.918062 0.396437
vn 0.000000 -0.918062 0.396437
vn 0.000000 0.000000 1.000000
vn 0.000000 0.000000 1.000000
vn 0.000000 0.000000 1.000000
vn 0.000000 0.000000 1.000000
vn 0.000000 0.000000 1.000000
vn 0.000000 0.000000 1.000000
vn 0.000000 -0.035586 0.999367
vn 0.000000 -1.000000 0.000000
vn 0.000000 -1.000000 0.000000
vn 0.000000 -1.000000 0.000000
vn 0.000000 -1.000000 0.000000
vn -0.000000 0.000000 -1.000000
vn 0.000000 0.000000 -1.000000
vn -0.000000 0.000000 -1.000000
vn -0.000711 -0.935794 0.352547
vn -0.000711 -0.935743 0.352681
vn 0.000000 0.000003 -1.000000
vn 0.000000 0.000003 -1.000000
vn -0.000006 0.939700 -0.342001
vn -0.000006 0.939700 -0.342001
vn 0.000005 0.939690 0.342027
vn 0.000009 0.939690 0.342027
vn 0.000003 0.939691 0.342026
vn 0.000003 0.939690 0.342028
vn -0.000001 -0.000001 1.000000
vn -0.000001 -0.000001 1.000000
vn -0.000001 -0.000000 1.000000
vn -0.000001 -0.000000 1.000000
vn -0.000716 -0.930714 -0.365747
vn -0.000621 -0.931236 -0.364415
vn 0.000000 0.000000 1.000000
vn 0.000000 0.000000 1.000000
vn 0.000000 0.000000 1.000000
vn 0.000000 -0.017462 0.999848
vn -0.000000 -1.000000 -0.000000
vn 0.000665 -0.931524 -0.363679
vn 0.000000 0.000000 1.000000
vn 0.000000 0.000000 1.000000
vn 0.000000 0.000000 1.000000
vn 0.000000 -0.035586 0.999367
vn 0.000000 0.000000 1.000000
vn 0.000000 0.000000 1.000000
vn 0.000000 0.000000 1.000000
vn 0.000000 0.000000 1.000000
vn 0.000000 0.000000 1.000000
vn 0.000000 -0.035586 0.999367
vn 0.000000 0.000000 1.000000
vn 0.000000 0.000000 1.000000
vn 0.000000 0.000000 1.000000
vn 0.000000 0.000000 1.000000
vn 0.000000 0.000000 1.000000
vn 0.000000 0.000000 1.000000
vn 0.000000 0.000000 1.000000
vn 0.000000 -0.015693 0.999877
vn 0.000000 -1.000000 0.000000
vn -0.000665 -0.931524 -0.363679
vn 0.000000 0.000000 1.000000
vn 0.000000 0.000000 1.000000
vn 0.000000 0.000000 1.000000
vn 0.000000 -0.035586 0.999367
vn -0.000000 -1.000000 -0.000000
vn -0.000000 -1.000000 -0.000000
vn -0.000000 -1.000000 0.000000
vn 0.000000 0.000000 -1.000000
vn -0.000000 -0.000000 -1.000000
vn -0.000000 0.000000 -1.000000
vn 0.000711 -0.936754 0.349987
vn 0.000712 -0.936927 0.349524
vn -0.000000 0.000000 -1.000000
vn -0.000000 0.000000 -1.000000
vn 0.000006 0.939697 -0.342007
vn 0.000006 0.939698 -0.342006
vn -0.000008 0.939692 0.342023
vn -0.000005 0.939692 0.342023
vn -0.000003 0.939692 0.342022
vn 0.000001 -0.000001 1.000000
vn 0.000001 -0.000001 1.000000
vn 0.000599 -0.932246 -0.361826
vn 0.000628 -0.931650 -0.363357
vn 0.000000 0.000000 1.000000
vn 0.000000 0.000000 1.000000
vn 0.000000 0.000000 1.000000
vn 0.000000 -0.015693 0.999877
vn 0.000000 0.000000 1.000000
vn 0.000000 0.000000 1.000000
vn 0.000000 0.000000 1.000000
vn 0.000000 0.000000 1.000000
vn 0.000000 0.000000 1.000000
vn 0.000000 -0.015694 0.999877
vn 0.000000 0.000000 1.000000
vn 0.000000 0.000000 1.000000
vn 0.000000 0.000000 1.000000
vn 0.000000 0.000000 1.000000
vn 0.000000 0.000000 1.000000
vn 0.000000 0.000000 1.000000
vn 0.000000 0.000000 1.000000
vn 0.000000 -0.035586 0.999367
vn 0.000000 -1.000000 0.000000
vn 0.000000 -1.000000 0.000000
vn 0.000000 -1.000000 0.000000
vn 0.000000 0.000000 -1.000000
vn 0.000000 0.000000 -1.000000
vn 0.000000 0.000000 -1.000000
vn -0.000712 -0.936927 0.349524
vn -0.000711 -0.936754 0.349987
vn 0.000000 0.000004 -1.000000
vn 0.000000 0.000004 -1.000000
vn -0.000006 0.939698 -0.342006
vn -0.000006 0.939697 -0.342007
vn 0.000005 0.939692 0.342023
vn 0.000008 0.939692 0.342023
vn 0.000003 0.939692 0.342022
vn -0.000001 -0.000000 1.000000
vn -0.000001 -0.000000 1.000000
vn -0.000628 -0.931650 -0.363357
vn -0.000599 -0.932245 -0.361826
vn 0.000000 0.000000 1.000000
vn 0.000000 0.000000 1.000000
vn 0.000000 0.000000 1.000000
vn 0.000000 -0.015693 0.999877
vn 0.000000 -1.000000 -0.000000
vn 0.000689 -0.932628 -0.360838
vn 0.000000 0.000000 1.000000
vn 0.000000 0.000000 1.000000
vn 0.000000 0.000000 1.000000
vn 0.000000 -0.035586 0.999367
vn 0.000000 0.000000 1.000000
vn 0.000000 0.000000 1.000000
vn 0.000000 0.000000 1.000000
vn 0.000000 0.000000 1.000000
vn 0.000000 0.000000 1.000000
vn 0.000000 -0.035586 0.999367
vn 0.000000 0.000000 1.000000
vn 0.000000 0.000000 1.000000
vn 0.000000 0.000000 1.000000
vn 0.000000 0.000000 1.000000
vn 0.000000 0.000000 1.000000
vn 0.000000 0.000000 1.000000
vn 0.000000 0.000000 1.000000
vn 0.000000 -0.015693 0.999877
vn 0.000000 -1.000000 0.000000
vn -0.000689 -0.932628 -0.360838
vn 0.000000 0.000000 1.000000
vn 0.000000 0.000000 1.000000
vn 0.000000 0.000000 1.000000
vn 0.000000 -0.035586 0.999367
vn 0.000000 -1.000000 -0.000000
vn -0.000000 -1.000000 0.000000
vn -0.000000 -1.000000 0.000000
vn 0.000000 0.000000 -1.000000
vn 0.000000 0.000000 -1.000000
vn 0.000000 0.000000 -1.000000
vn 0.000712 -0.937836 0.347078
vn 0.000713 -0.938067 0.346453
vn 0.000000 0.000000 -1.000000
vn 0.000000 0.000000 -1.000000
vn 0.000006 0.939695 -0.342013
vn 0.000006 0.939696 -0.342012
vn -0.000008 0.939693 0.342018
vn -0.000005 0.939693 0.342019
vn -0.000003 0.939693 0.342018
vn 0.000001 -0.000001 1.000000
vn 0.000001 -0.000001 1.000000
vn 0.000631 -0.933253 -0.359221
vn 0.000632 -0.932746 -0.360533
vn 0.000000 0.000000 1.000000
vn 0.000000 0.000000 1.000000
vn 0.000000 0.000000 1.000000
vn 0.000000 -0.015693 0.999877
vn 0.000000 0.000000 1.000000
vn 0.000000 0.000000 1.000000
vn 0.000000 0.000000 1.000000
vn 0.000000 0.000000 1.000000
vn 0.000000 0.000000 1.000000
vn 0.000000 -0.015693 0.999877
vn 0.000000 0.000000 1.000000
vn 0.000000 0.000000 1.000000
vn 0.000000 0.000000 1.000000
vn 0.000000 0.000000 1.000000
vn 0.000000 0.000000 1.000000
vn 0.000000 0.000000 1.000000
vn 0.000000 0.000000 1.000000
vn 0.000000 -0.035586 0.999367
vn 0.000000 -1.000000 0.000000
vn -0.000632 -0.932746 -0.360533
vn 0.000000 0.000000 1.000000
vn 0.000000 0.000000 1.000000
vn 0.000000 0.000000 1.000000
vn 0.000000 -0.015693 0.999877
vn 0.000000 -1.000000 -0.000000
vn 0.000783 -0.933633 -0.358230
vn 0.000000 0.000000 1.000000
vn 0.000000 0.000000 1.000000
vn 0.000000 0.000000 1.000000
vn 0.000000 -0.035586 0.999367
vn 0.000000 0.000000 1.000000
vn 0.000000 0.000000 1.000000
vn 0.000000 0.000000 1.000000
vn 0.000000 0.000000 1.000000
vn 0.000000 0.000000 1.000000
vn 0.000000 -0.035586 0.999367
vn 0.000000 0.000000 1.000000
vn 0.000000 0.000000 1.000000
vn 0.000000 0.000000 1.000000
vn 0.000000 0.000000 1.000000
vn 0.000000 0.000000 1.000000
vn 0.000000 0.000000 1.000000
vn 0.000000 0.000000 1.000000
vn 0.000000 -0.014576 0.999894
vn 0.000000 0.000000 1.000000
vn 0.000000 0.000000 1.000000
vn 0.000000 -0.035586 0.999367
vn -0.000000 -1.000000 -0.000000
vn 0.000000 -1.000000 -0.000000
vn -0.000000 -1.000000 0.000000
vn 0.000000 0.000000 -1.000000
vn 0.000000 0.000000 -1.000000
vn 0.000000 0.000000 -1.000000
vn -0.000000 0.000000 -1.000000
vn -0.000000 0.000000 -1.000000
vn 0.000006 0.939694 -0.342016
vn 0.000006 0.939694 -0.342016
vn -0.000004 0.939694 0.342016
vn -0.000009 0.939695 0.342015
vn -0.000003 0.939694 0.342017
vn 0.000001 -0.000001 1.000000
vn 0.000001 -0.000001 1.000000
vn 0.000000 0.000000 1.000000
vn 0.000000 0.000000 1.000000
vn 0.000000 0.000000 1.000000
vn 0.000000 0.000000 1.000000
vn 0.000000 0.000000 1.000000
vn 0.000000 0.000000 1.000000
vn 0.000000 0.000000 1.000000
vn 0.000000 0.000000 1.000000
vn 0.000000 0.000000 1.000000
vn 0.000000 0.000000 1.000000
vn 0.000000 0.000000 1.000000
vn 0.000000 0.000000 1.000000
vn 0.000000 0.000000 1.000000
vn 0.000000 0.000000 1.000000
vn 0.000000 0.000000 1.000000
vn 0.000000 0.000000 1.000000
vn 0.000000 0.000000 1.000000
vn 0.000000 0.000000 1.000000
vn 0.000000 0.000000 1.000000
vn 0.000000 0.000000 1.000000
vn 0.000000 0.000000 1.000000
vn 0.000000 0.000000 1.000000
vn 0.000000 0.000000 1.000000
vn 0.000000 0.000000 1.000000
vn 0.000000 0.000000 1.000000
vn 0.000000 0.000000 1.000000
vn 0.000000 0.000000 1.000000
vn 0.000000 0.000000 1.000000
vn 0.000000 0.000000 1.000000
vn 0.000000 0.000000 1.000000
vn 0.000000 0.000000 1.000000
vn 0.000000 0.000000 1.000000
vn 0.000000 0.000000 1.000000
vn 0.000000 0.000000 1.000000
vn 0.000000 0.000000 1.000000
vn 0.000000 0.000000 1.000000
vn 0.000000 0.000000 1.000000
vn 0.000000 0.000000 1.000000
vn 0.000000 0.000000 1.000000
vn 0.000000 0.000000 1.000000
vn 0.000000 0.000000 1.000000
vn 0.000000 0.000000 1.000000
vn 0.000000 0.000000 1.000000
vn 0.000000 0.000000 1.000000
vn 0.000000 0.000000 1.000000
vn 0.000000 0.000000 1.000000
vn 0.000000 0.000000 1.000000
vn 0.000000 0.000000 1.000000
vn 0.000000 0.000000 1.000000
vn 0.000000 0.000000 1.000000
vn 0.000000 0.000000 1.000000
vn 0.000000 0.000000 1.000000
vn 0.000000 0.000000 1.000000
vn 0.000000 0.000000 1.000000
vn 0.000000 0.000000 1.000000
vn 0.000000 0.000000 1.000000
vn 0.000000 0.000000 1.000000
vn 0.000000 0.000000 1.000000
vn 0.000000 0.000000 1.000000
vn 0.000000 0.000000 1.000000
vn 0.000000 0.000000 1.000000
vn 0.000000 0.000000 1.000000
vn 0.000000 0.000000 1.000000
vn 0.000000 0.000000 1.000000
vn 0.000000 0.000000 1.000000
vn 0.000000 0.000000 1.000000
vn 0.000000 0.000000 1.000000
vn 0.000000 0.000000 1.000000
vn 0.000000 0.000000 1.000000
vn 0.000000 0.000000 1.000000
vn 0.000000 0.000000 1.000000
vn 0.000000 0.000000 1.000000
vn 0.000000 0.000000 1.000000
vn 0.000000 0.000000 1.000000
vn 0.000000 0.000000 1.000000
vn 0.000000 0.000000 1.000000
vn 0.000000 0.000000 1.000000
vn 0.000000 0.000000 1.000000
vn 0.000000 0.000000 1.000000
vn 0.000000 0.000000 1.000000
vn 0.000000 0.000000 1.000000
vn 0.000000 0.000000 1.000000
vn 0.000000 0.000000 1.000000
vn 0.000000 0.000000 1.000000
vn 0.000000 0.000000 1.000000
vn 0.000000 0.000000 1.000000
vn 0.000000 0.000000 1.000000
vn 0.000000 0.000000 1.000000
vn 0.000000 0.000000 1.000000
vn 1.000000 0.000000 0.000000
vn 1.000000 0.000000 0.000000
vn 1.000000 0.000000 0.000000
vn 0.000000 0.000000 -1.000000
vn 0.000000 0.000000 -1.000000
vn 0.000000 -0.000000 -1.000000
vn 0.000000 -0.000000 -1.000000
vn 0.000000 -0.000000 -1.000000
vn 0.000000 0.000000 -1.000000
vn 0.000000 0.000000 -1.000000
vn 0.000000 0.000000 -1.000000
vn 0.000000 0.000000 -1.000000
vn -1.000000 -0.000000 -0.000000
vn -1.000000 -0.000000 -0.000000
vn -1.000000 0.000000 -0.000000
vn 0.000000 0.000000 1.000000
vn 0.000000 0.000000 1.000000
vn 0.000000 0.000000 1.000000
vn 0.000000 0.000000 1.000000
vn 0.000000 0.000000 1.000000
vn 0.000000 0.000000 1.000000
vn 0.000000 0.000000 1.000000
vn 0.000000 0.000000 1.000000
vn 0.000000 0.000000 1.000000
vn 0.000000 0.000000 1.000000
vn 0.000000 0.000000 1.000000
vn 0.000000 0.000000 1.000000
vn 0.000000 0.000000 1.000000
vn 0.000000 0.000000 1.000000
vn 0.000000 0.000000 1.000000
vn 0.000000 0.000000 1.000000
vn 0.000000 0.000000 1.000000
vn 0.000000 0.000000 1.000000
vn 0.000000 0.000000 1.000000
vn 1.000000 0.000001 0.000000
vn 1.000000 0.000001 0.000000
vn 1.000000 0.000001 0.000000
vn 0.000000 0.000000 -1.000000
vn 0.000000 0.000000 -1.000000
vn 0.000000 -0.000000 -1.000000
vn 0.000000 -0.000000 -1.000000
vn 0.000000 -0.000000 -1.000000
vn 0.000000 0.000000 -1.000000
vn 0.000000 0.000000 -1.000000
vn 0.000000 0.000000 -1.000000
vn 0.000000 0.000000 -1.000000
vn -1.000000 0.000000 -0.000000
vn -1.000000 0.000000 -0.000000
vn -1.000000 0.000000 -0.000000
vn 0.857493 0.000000 0.514495
vn 0.857493 0.000000 0.514495
vn 0.857494 0.000000 0.514495
vn 0.857494 0.000000 0.514495
vn 0.000000 0.857492 0.514498
vn 0.000000 0.857492 0.514498
vn 0.000000 0.857492 0.514498
vn 0.000000 0.857492 0.514498
vn -0.857493 0.000000 0.514495
vn -0.857493 0.000000 0.514495
vn -0.857494 0.000000 0.514495
vn -0.857494 0.000000 0.514495
vn 0.000000 -0.857494 0.514495
vn 0.000000 -0.857494 0.514495
vn 0.000000 -0.857494 0.514495
vn 0.000000 -0.857494 0.514495
vn -0.857494 0.000000 0.514495
vn -0.857494 0.000000 0.514495
vn -0.857493 0.000000 0.514495
vn -0.857494 0.000000 0.514495
vn 0.000000 -0.857494 0.514495
vn 0.000000 -0.857494 0.514495
vn 0.000000 -0.857494 0.514495
vn 0.000000 -0.857494 0.514495
vn 0.857493 0.000000 0.514495
vn 0.857493 0.000000 0.514495
vn 0.857494 0.000000 0.514495
vn 0.857494 0.000000 0.514495
vn 0.000000 0.857492 0.514498
vn 0.000000 0.857492 0.514498
vn 0.000000 0.857492 0.514498
vn 0.000000 0.857492 0.514498
vn 0.857493 0.000000 0.514495
vn 0.857493 0.000000 0.514495
vn 0.857494 0.000000 0.514495
vn 0.857494 0.000000 0.514495
vn 0.000000 0.857493 0.514496
vn 0.000000 0.857493 0.514496
vn 0.000000 0.857493 0.514496
vn 0.000000 0.857493 0.514496
vn -0.857493 0.000000 0.514497
vn -0.857492 0.000000 0.514497
vn -0.857493 0.000000 0.514497
vn -0.857493 0.000000 0.514497
vn 0.000000 -0.857494 0.514495
vn 0.000000 -0.857494 0.514495
vn 0.000000 -0.857494 0.514495
vn 0.000000 -0.857494 0.514495
vn -0.857493 0.000000 0.514495
vn -0.857493 0.000000 0.514495
vn -0.857494 0.000000 0.514495
vn -0.857494 0.000000 0.514495
vn 0.000000 -0.857493 0.514495
vn 0.000000 -0.857493 0.514495
vn 0.000000 -0.857493 0.514495
vn 0.000000 -0.857493 0.514495
vn 0.857492 0.000000 0.514497
vn 0.857493 0.000000 0.514497
vn 0.857493 0.000000 0.514497
vn 0.857493 0.000000 0.514497
vn 0.000000 0.857493 0.514496
vn 0.000000 0.857493 0.514496
vn 0.000000 0.857493 0.514496
vn 0.000000 0.857493 0.514496
vn 0.857493 0.000000 0.514495
vn 0.857493 0.000000 0.514495
vn 0.857494 0.000000 0.514495
vn 0.857494 0.000000 0.514495
vn 0.000000 0.857493 0.514496
vn 0.000000 0.857493 0.514496
vn 0.000000 0.857493 0.514496
vn 0.000000 0.857493 0.514496
vn -0.857493 0.000000 0.514495
vn -0.857493 0.000000 0.514495
vn -0.857494 0.000000 0.514495
vn -0.857494 0.000000 0.514495
vn 0.000000 -0.857494 0.514495
vn 0.000000 -0.857494 0.514495
vn 0.000000 -0.857494 0.514495
vn 0.000000 -0.857494 0.514495
vn -0.857493 0.000000 0.514495
vn -0.857493 0.000000 0.514495
vn -0.857494 0.000000 0.514495
vn -0.857494 0.000000 0.514495
vn 0.000000 -0.857494 0.514495
vn 0.000000 -0.857494 0.514495
vn 0.000000 -0.857494 0.514495
vn 0.000000 -0.857494 0.514495
vn 0.857493 0.000000 0.514495
vn 0.857493 0.000000 0.514495
vn 0.857494 0.000000 0.514495
vn 0.857494 0.000000 0.514495
vn 0.000000 0.857493 0.514496
vn 0.000000 0.857493 0.514496
vn 0.000000 0.857493 0.514496
vn 0.000000 0.857493 0.514496
vn 0.857493 0.000000 0.514495
vn 0.857493 0.000000 0.514495
vn 0.857494 0.000000 0.514495
vn 0.857494 0.000000 0.514495
vn 0.000000 0.857492 0.514498
vn 0.000000 0.857492 0.514498
vn 0.000000 0.857492 0.514498
vn 0.000000 0.857492 0.514498
vn -0.857494 0.000001 0.514495
vn -0.857494 0.000001 0.514495
vn -0.857493 0.000001 0.514495
vn -0.857494 0.000001 0.514495
vn 0.000000 -0.857494 0.514495
vn 0.000000 -0.857494 0.514495
vn 0.000000 -0.857494 0.514495
vn 0.000000 -0.857494 0.514495
vn -0.857493 0.000000 0.514495
vn -0.857493 0.000000 0.514495
vn -0.857494 0.000000 0.514495
vn -0.857494 0.000000 0.514495
vn 0.000000 -0.857494 0.514495
vn 0.000000 -0.857494 0.514495
vn 0.000000 -0.857494 0.514495
vn 0.000000 -0.857494 0.514495
vn 0.857493 0.000000 0.514495
vn 0.857493 0.000000 0.514495
vn 0.857494 0.000000 0.514495
vn 0.857494 0.000000 0.514495
vn 0.000000 0.857492 0.514497
vn 0.000000 0.857492 0.514497
vn 0.000000 0.857492 0.514497
vn 0.000000 0.857492 0.514497
vn 0.857494 0.000000 0.514495
vn 0.857494 0.000000 0.514495
vn 0.857493 0.000000 0.514495
vn 0.857494 0.000000 0.514495
vn 0.000000 0.857492 0.514497
vn 0.000000 0.857492 0.514497
vn 0.000000 0.857492 0.514497
vn 0.000000 0.857492 0.514497
vn -0.857493 0.000000 0.514495
vn -0.857493 0.000000 0.514495
vn -0.857494 0.000000 0.514495
vn -0.857494 0.000000 0.514495
vn 0.000000 -0.857494 0.514494
vn 0.000000 -0.857494 0.514494
vn 0.000000 -0.857494 0.514494
vn 0.000000 -0.857494 0.514494
vn -0.857493 0.000000 0.514495
vn -0.857493 0.000000 0.514495
vn -0.857494 0.000000 0.514495
vn -0.857494 0.000000 0.514495
vn 0.000000 -0.857494 0.514494
vn 0.000000 -0.857494 0.514494
vn 0.000000 -0.857494 0.514494
vn 0.000000 -0.857494 0.514494
vn 0.857494 0.000000 0.514495
vn 0.857494 0.000000 0.514495
vn 0.857494 0.000000 0.514495
vn 0.857493 0.000000 0.514495
vn 0.000000 0.857493 0.514496
vn 0.000000 0.857493 0.514496
vn 0.000000 0.857493 0.514496
vn 0.000000 0.857493 0.514496
vn 0.857493 0.000000 0.514495
vn 0.857493 0.000000 0.514495
vn 0.857494 0.000000 0.514495
vn 0.857494 0.000000 0.514495
vn 0.000000 0.857492 0.514497
vn 0.000000 0.857492 0.514497
vn 0.000000 0.857492 0.514497
vn 0.000000 0.857492 0.514497
vn -0.857493 0.000000 0.514495
vn -0.857493 0.000000 0.514495
vn -0.857494 0.000000 0.514495
vn -0.857494 0.000000 0.514495
vn 0.000000 -0.857494 0.514495
vn 0.000000 -0.857494 0.514495
vn 0.000000 -0.857493 0.514495
vn 0.000000 -0.857493 0.514495
vn -0.857494 -0.000001 0.514495
vn -0.857494 -0.000001 0.514495
vn -0.857494 -0.000001 0.514495
vn -0.857493 -0.000001 0.514495
vn 0.000000 -0.857494 0.514495
vn 0.000000 -0.857494 0.514495
vn 0.000000 -0.857493 0.514495
vn 0.000000 -0.857493 0.514495
vn 0.857493 0.000000 0.514495
vn 0.857493 0.000000 0.514495
vn 0.857494 0.000000 0.514495
vn 0.857494 0.000000 0.514495
vn 0.000000 0.857493 0.514496
vn 0.000000 0.857493 0.514496
vn 0.000000 0.857493 0.514496
vn 0.000000 0.857493 0.514496
vn 0.000000 -0.857494 0.514494
vn 0.000000 -0.857494 0.514494
vn 0.857493 0.000000 0.514495
vn 0.857493 0.000000 0.514495
vn 0.857493 0.000000 0.514495
vn 0.857493 0.000000 0.514495
vn 0.000000 0.857492 0.514497
vn 0.000000 0.857492 0.514497
vn 0.000000 0.857492 0.514497
vn 0.000000 0.857492 0.514497
vn -0.857493 0.000000 0.514495
vn -0.857493 0.000000 0.514495
vn -0.857493 0.000000 0.514495
vn -0.857493 0.000000 0.514495
vn 0.000000 -0.857493 0.514495
vn 0.000000 -0.857493 0.514495
vn 0.857493 0.000000 0.514495
vn 0.857493 0.000000 0.514495
vn 0.857493 0.000000 0.514495
vn 0.857493 0.000000 0.514495
vn 0.000000 0.857493 0.514495
vn 0.000000 0.857493 0.514495
vn 0.000000 0.857493 0.514495
vn 0.000000 0.857493 0.514495
vn -0.857493 0.000000 0.514495
vn -0.857493 0.000000 0.514495
vn -0.857493 0.000000 0.514495
vn -0.857493 0.000000 0.514495
vn 0.000000 -0.857493 0.514496
vn 0.000000 -0.857493 0.514496
vn 0.857493 0.000000 0.514495
vn 0.857493 0.000000 0.514495
vn 0.857493 0.000000 0.514495
vn 0.857493 0.000000 0.514495
vn 0.000000 0.857493 0.514496
vn 0.000000 0.857493 0.514496
vn 0.000000 0.857493 0.514496
vn 0.000000 0.857493 0.514496
vn -0.857493 0.000000 0.514495
vn -0.857493 0.000000 0.514495
vn -0.857493 0.000000 0.514495
vn -0.857493 0.000000 0.514495
vn 0.000000 -0.857494 0.514493
vn 0.000000 -0.857494 0.514493
vn 0.857493 0.000000 0.514495
vn 0.857493 0.000000 0.514495
vn 0.857493 0.000000 0.514495
vn 0.857493 0.000000 0.514495
vn 0.000000 0.857494 0.514494
vn 0.000000 0.857494 0.514494
vn 0.000000 0.857494 0.514494
vn 0.000000 0.857494 0.514494
vn -0.857493 0.000000 0.514495
vn -0.857493 0.000000 0.514495
vn -0.857493 0.000000 0.514495
vn -0.857493 0.000000 0.514495
vn 0.000000 -0.857494 0.514493
vn 0.000000 -0.857494 0.514493
vn 0.857493 0.000000 0.514495
vn 0.857493 0.000000 0.514495
vn 0.857493 0.000000 0.514495
vn 0.857493 0.000000 0.514495
vn 0.000000 0.857494 0.514494
vn 0.000000 0.857494 0.514494
vn 0.000000 0.857494 0.514494
vn 0.000000 0.857494 0.514494
vn -0.857492 0.000000 0.514497
vn -0.857492 0.000000 0.514497
vn -0.857492 0.000000 0.514497
vn -0.857492 0.000000 0.514497
vn 0.000000 -0.857493 0.514496
vn 0.000000 -0.857493 0.514496
vn 0.857493 0.000000 0.514495
vn 0.857493 0.000000 0.514495
vn 0.857493 0.000000 0.514495
vn 0.857493 0.000000 0.514495
vn 0.000000 0.857493 0.514496
vn 0.000000 0.857493 0.514496
vn 0.000000 0.857493 0.514496
vn 0.000000 0.857493 0.514496
vn -0.857493 0.000000 0.514495
vn -0.857493 0.000000 0.514495
vn -0.857493 0.000000 0.514495
vn -0.857493 0.000000 0.514495
vn 0.000000 0.857493 0.514496
vn 0.000000 0.857493 0.514496
vn 0.000000 0.857493 0.514496
vn 0.000000 0.857493 0.514496
vn -0.857493 -0.000000 0.514495
vn -0.857493 -0.000000 0.514495
vn -0.857493 -0.000000 0.514495
vn -0.857493 -0.000000 0.514495
vn 0.000000 -0.857494 0.514494
vn 0.000000 -0.857494 0.514494
vn 0.857493 0.000000 0.514495
vn 0.857493 0.000000 0.514495
vn 0.857493 0.000000 0.514495
vn 0.857493 0.000000 0.514495
vn 0.000000 0.857493 0.514496
vn 0.000000 0.857493 0.514496
vn 0.000000 0.857493 0.514496
vn 0.000000 0.857493 0.514496
vn -0.857493 0.000000 0.514495
vn -0.857493 0.000000 0.514495
vn -0.857493 0.000000 0.514495
vn -0.857494 0.000000 0.514495
vn 0.000000 -0.857494 0.514494
vn 0.000000 -0.857494 0.514494
vn 0.857492 0.000000 0.514497
vn 0.857492 0.000000 0.514497
vn 0.857492 0.000000 0.514497
vn 0.857492 0.000000 0.514497
vn 0.000000 0.857494 0.514494
vn 0.000000 0.857494 0.514494
vn 0.000000 0.857494 0.514494
vn 0.000000 0.857494 0.514494
vn -0.857493 0.000000 0.514495
vn -0.857493 0.000000 0.514495
vn -0.857493 0.000000 0.514495
vn -0.857493 0.000000 0.514495
vn 0.000000 -0.857494 0.514493
vn 0.000000 -0.857494 0.514493
vn 0.857493 0.000000 0.514495
vn 0.857493 0.000000 0.514495
vn 0.857493 0.000000 0.514495
vn 0.857493 0.000000 0.514495
vn 0.000000 0.857493 0.514495
vn 0.000000 0.857493 0.514495
vn 0.000000 0.857493 0.514495
vn 0.000000 0.857493 0.514495
vn -0.857493 0.000000 0.514495
vn -0.857493 0.000000 0.514495
vn -0.857493 0.000000 0.514495
vn -0.857493 0.000000 0.514495
vn 0.000000 -0.857493 0.514496
vn 0.000000 -0.857493 0.514496
vn 0.857493 0.000000 0.514495
vn 0.857493 0.000000 0.514495
vn 0.857493 0.000000 0.514495
vn 0.857493 0.000000 0.514495
vn 0.000000 0.857493 0.514495
vn 0.000000 0.857493 0.514495
vn 0.000000 0.857493 0.514495
vn 0.000000 0.857493 0.514495
vn -0.857493 0.000000 0.514495
vn -0.857493 0.000000 0.514495
vn -0.857493 0.000000 0.514495
vn -0.857493 0.000000 0.514495
vn 0.000000 -0.857493 0.514495
vn 0.000000 -0.857493 0.514495
vn 0.857493 0.000000 0.514495
vn 0.857493 0.000000 0.514495
vn 0.857493 0.000000 0.514495
vn 0.857493 0.000000 0.514495
vn 0.000000 0.857494 0.514494
vn 0.000000 0.857494 0.514494
vn 0.000000 0.857494 0.514494
vn 0.000000 0.857494 0.514494
vn -0.857493 0.000000 0.514495
vn -0.857493 0.000000 0.514495
vn -0.857493 0.000000 0.514495
vn -0.857493 0.000000 0.514495
vn 0.000000 -0.857494 0.514494
vn 0.000000 -0.857494 0.514494
vn 0.857493 -0.000001 0.514495
vn 0.857493 -0.000001 0.514495
vn 0.857493 -0.000001 0.514495
vn 0.857493 -0.000001 0.514495
vn -0.000088 -1.000000 -0.000007
vn -0.000088 -1.000000 -0.000007
vn -0.000088 -1.000000 -0.000007
vn -0.000088 -1.000000 -0.000007
vn 0.000088 -1.000000 -0.000007
vn 0.000088 -1.000000 -0.000007
vn 0.000088 -1.000000 -0.000007
vn 0.000088 -1.000000 -0.000007
vn 0.000000 0.000000 1.000000
vn 0.000000 0.000000 1.000000
vn 0.000000 0.000000 1.000000
vn 0.000000 0.000000 1.000000
vn 0.000000 0.000000 1.000000
vn 0.000000 0.000000 1.000000
vn 0.000000 0.000000 1.000000
vn 0.000000 0.000000 1.000000
vn 0.000000 0.000000 1.000000
vn 0.000000 0.000000 1.000000
vn 0.000000 0.000000 1.000000
vn 0.000000 0.000000 1.000000
vn 0.000000 0.000000 1.000000
vn 0.000000 0.000000 1.000000
vn 0.000000 0.000000 1.000000
vn 0.000000 0.000000 1.000000
vn 0.000000 0.000000 1.000000
vn 0.000000 0.000000 1.000000
vn -0.962206 0.000000 0.272322
vn -0.962206 0.000000 0.272322
vn -0.962206 0.000000 0.272322
vn -0.962206 0.000000 0.272322
vn 0.000000 -0.962206 0.272322
vn 0.000000 -0.962206 0.272322
vn 0.000000 -0.962206 0.272322
vn 0.000000 -0.962206 0.272322
vn 0.962206 0.000000 0.272322
vn 0.962206 0.000000 0.272322
vn 0.962206 0.000000 0.272322
vn 0.962206 0.000000 0.272322
vn -0.962206 0.000000 0.272322
vn -0.962206 0.000000 0.272322
vn 0.962206 0.000000 0.272322
vn 0.962206 0.000000 0.272322
vn -0.962206 0.000000 0.272322
vn -0.962206 0.000000 0.272322
vn -0.962206 0.000000 0.272322
vn -0.962206 0.000000 0.272322
vn 0.000000 -0.962206 0.272322
vn 0.000000 -0.962206 0.272322
vn 0.000000 -0.962206 0.272323
vn 0.000000 -0.962206 0.272323
vn 0.962206 0.000000 0.272322
vn 0.962206 0.000000 0.272322
vn 0.962206 0.000000 0.272322
vn 0.962206 0.000000 0.272322
vn -0.962206 0.000000 0.272322
vn -0.962206 0.000000 0.272322
vn 0.962206 0.000000 0.272322
vn 0.962206 0.000000 0.272322
vn 0.000001 -1.000000 0.000000
vn 0.000001 -1.000000 0.000000
vn 0.000001 -1.000000 0.000000
vn 0.000001 -1.000000 0.000000
vn -0.000001 -1.000000 0.000000
vn -0.000001 -1.000000 0.000000
vn -0.000001 -1.000000 0.000000
vn -0.000001 -1.000000 0.000000
vn 0.000000 0.000000 1.000000
vn 0.000000 0.000000 1.000000
vn 0.000000 0.000000 1.000000
vn 0.000000 0.000000 1.000000
vn 0.000000 0.000000 1.000000
vn -0.000000 0.000000 1.000000
vn -0.000000 0.000000 1.000000
vn -0.000000 0.000000 1.000000
vn 0.000004 -0.000010 1.000000
vn 0.000006 -0.000012 1.000000
vn -0.000000 -0.000042 1.000000
vn -0.000005 -0.000013 1.000000
vn -0.000005 -0.000011 1.000000
vn 0.000000 -0.000042 1.000000
vn 0.000001 -1.000000 -0.000030
vn 0.000001 -1.000000 -0.000030
vn 0.000001 -1.000000 -0.000030
vn 0.000001 -1.000000 -0.000030
vn -0.000001 -1.000000 -0.000030
vn -0.000001 -1.000000 -0.000030
vn -0.000001 -1.000000 -0.000030
vn -0.000001 -1.000000 -0.000030
vn 0.000002 -1.000000 -0.000022
vn 0.000002 -1.000000 -0.000022
vn 0.000002 -1.000000 -0.000022
vn 0.000002 -1.000000 -0.000022
vn 0.000003 -1.000000 -0.000008
vn 0.000003 -1.000000 -0.000008
vn 0.000003 -1.000000 -0.000008
vn 0.000003 -1.000000 -0.000008
vn -0.000002 -1.000000 -0.000022
vn -0.000002 -1.000000 -0.000022
vn -0.000002 -1.000000 -0.000022
vn -0.000002 -1.000000 -0.000022
vn -0.000003 -1.000000 -0.000008
vn -0.000003 -1.000000 -0.000008
vn -0.000003 -1.000000 -0.000008
vn -0.000003 -1.000000 -0.000008
vn 0.000000 -1.000000 -0.000032
vn 0.000000 -1.000000 -0.000032
vn 0.000000 -1.000000 -0.000032
vn 0.000000 -1.000000 -0.000032
vn 0.000000 -1.000000 -0.000032
vn 0.000000 -1.000000 -0.000032
vn 0.000000 -1.000000 -0.000038
vn 0.000000 -1.000000 -0.000038
vn 0.000000 -1.000000 -0.000038
vn 0.000000 -1.000000 -0.000038
vn 0.000000 -1.000000 -0.000038
vn 0.000000 -1.000000 -0.000038
vn -0.000000 -1.000000 0.000000
vn -0.000000 -1.000000 0.000000
vn 0.000000 -1.000000 0.000000
vn 0.000000 -1.000000 0.000000
vn 0.000000 -1.000000 0.000000
vn 0.000000 -1.000000 0.000000
vn 0.000002 -1.000000 0.000000
vn 0.000002 -1.000000 0.000000
vn 0.000002 -1.000000 0.000000
vn -0.000002 -1.000000 0.000000
vn -0.000002 -1.000000 0.000000
vn -0.000002 -1.000000 0.000000
vn 0.000000 -1.000000 0.000000
vn -0.000000 -1.000000 0.000000
vn 0.000000 -1.000000 0.000000
vn 0.000000 -1.000000 0.000000
vn 0.000000 -1.000000 0.000000
vn 0.000000 -1.000000 0.000000
vn 0.000000 -1.000000 0.000000
vn 0.000000 -1.000000 0.000000
s 1
g KotaTua_geo Asset_grp
usemtl lambert10SG
f 31/1/1 332/2/2 292/3/3 8/4/4
f 182/5/5 217/6/6 10/7/7 32/8/8
s 3
f 184/9/9 185/10/10 130/11/11
s 4
f 297/12/12 298/13/13 12/14/14 13/15/15
s 5
f 28/16/16 29/17/17 14/570/18 15/19/19
s 6
f 14/18/20 294/20/21 295/21/22 15/19/23
f 16/22/24 219/23/25 220/24/26 17/25/27
s 8
f 20/26/28 23/27/29 24/28/30 21/29/31
s 9
f 298/13/32 316/516/33 4/31/34 12/14/35
f 29/17/36 30/554/37 6/519/38 14/570/39
s 10
f 15/19/40 27/34/41 28/16/42
s 9
f 6/571/38 293/35/43 294/20/44 14/18/39
s 11
f 15/19/45 295/21/46 296/36/47 27/34/48
s 9
f 11/537/49 218/531/50 219/23/51 16/22/52
s 11
f 26/39/53 17/25/54 220/24/55 221/40/56
s 9
f 5/567/57 22/555/58 23/27/59 20/26/60
s 15
f 24/28/61 25/43/62 21/29/63
s 9
f 23/27/59 22/555/58 3/557/64 18/45/65
s 8
f 24/28/30 23/27/29 18/45/66 19/46/67
s 15
f 25/43/62 24/28/61 19/46/68 36/47/69
s 16
f 514/48/70 45/49/71 46/558/72
f 513/51/73 48/52/74 47/53/75
s 10
f 28/16/42 27/34/41 34/54/76 13/15/77
s 5
f 12/572/78 29/17/17 28/16/16 13/15/79
s 9
f 4/573/34 30/554/37 29/17/36 12/572/35
s 1
f 315/55/80 332/2/2 31/1/1 2/56/81
f 199/57/82 182/5/5 32/8/8 39/58/83
s 18
f 27/34/84 296/36/85 334/59/86 34/54/87
f 221/40/88 183/60/89 35/61/90 26/39/91
f 34/54/87 334/59/86 297/12/92 13/15/93
f 38/62/94 35/61/90 183/60/89 222/63/95
s 20
f 141/64/96 335/65/97 336/66/98
s 21
f 222/63/99 223/67/100 43/68/101 38/62/102
s 9
f 223/67/103 200/69/104 40/70/105 43/68/106
s off
f 46/50/107 45/49/108 38/62/109 43/564/110
f 38/62/111 45/49/112 48/52/113 35/61/114
f 48/52/115 49/71/116 37/72/117 35/61/118
f 49/71/119 50/560/120 44/74/121 37/72/122
s 23
f 490/75/123 52/76/124 494/77/125
s 9
f 43/564/106 40/565/105 60/552/126 59/79/127
f 42/553/128 44/74/129 62/81/130 58/551/131
s 25
f 135/83/132 160/84/133 161/85/134 121/86/135
s 26
f 132/87/136 133/88/137 123/89/138 124/90/139
s 27
f 68/91/140 92/92/141 65/598/142
f 65/598/142 92/92/141 93/574/143 75/95/144
s 25
f 117/96/145 118/97/146 138/98/147
s off
f 85/99/148 84/100/149 86/604/150 87/102/151
f 88/103/152 89/104/153 90/105/154 91/106/155
s 26
f 125/107/156 132/87/136 124/90/139
s off
f 73/108/157 66/600/158 84/599/159 85/99/160
s 29
f 66/109/161 77/110/162 86/604/163 84/100/164
s 30
f 77/594/165 79/111/166 87/102/167 86/101/168
s 25
f 79/111/169 73/108/170 85/99/171 87/102/172
s off
f 65/598/173 75/95/174 89/104/175 88/597/176
s 26
f 75/95/177 82/112/178 90/105/179 89/104/180
s 31
f 82/112/181 81/113/182 91/603/183 90/105/184
s 32
f 81/596/185 65/93/186 88/103/187 91/106/188
s off
f 50/560/189 78/561/190 76/115/191
f 46/50/192 80/116/193 83/559/194
s 27
f 94/588/195 70/591/196 66/600/197
f 95/587/198 94/588/195 66/600/197 73/108/199
s 25
f 118/97/146 119/121/200 137/122/201 138/98/147
s 27
f 98/577/202 97/124/203 144/125/204
f 99/126/205 98/577/202 144/125/204 145/127/206
s 34
f 162/128/207 163/129/208 164/130/209 165/131/210
s 27
f 152/132/211 52/580/212 57/589/213 70/591/196
f 101/134/214 152/132/211 70/591/196 94/588/195
s off
f 108/135/215 107/136/216 109/609/217 110/608/218
s 36
f 168/139/219 169/140/220 170/141/221 171/142/222
s off
f 93/94/223 92/576/224 103/611/225 104/605/226
f 98/123/227 99/575/228 106/145/229 105/146/230
f 102/586/231 101/585/232 107/136/233 108/607/234
f 101/585/235 94/610/236 109/609/237 107/136/238
f 94/118/239 95/120/240 110/138/241 109/137/242
s 25
f 110/138/243 95/120/244 102/586/245 108/607/246
s 38
f 207/148/247 218/38/248 11/37/249 142/149/250
f 112/150/251 333/151/252 293/518/253 6/33/254
s 40
f 30/32/255 113/152/256 112/622/257 6/627/258
f 141/625/259 113/152/256 30/32/255 4/517/260
s 20
f 316/30/261 335/65/97 141/64/96 4/626/262
f 139/153/263 140/154/264 42/80/265 58/584/266
s 42
f 114/155/267 139/583/268 58/82/269 62/549/270
s 43
f 62/549/271 64/548/272 115/157/273 114/155/274
s 29
f 116/158/275 115/157/276 64/548/277 76/546/278
s 30
f 117/96/279 116/593/280 76/602/281 78/547/282
s 25
f 96/542/283 118/97/146 117/96/145 78/547/284
f 96/542/283 119/121/200 118/97/146
f 120/160/285 119/121/200 96/542/283 157/539/286
f 121/86/135 161/85/134 71/538/287
s 26
f 147/163/288 100/540/289 122/165/290
f 124/90/139 123/89/138 74/541/291
f 125/107/156 124/90/139 74/541/291 83/544/292
s 31
f 80/543/293 126/595/294 125/107/295 83/544/296
s 32
f 63/168/297 127/169/298 126/167/299 80/601/300
s 45
f 63/168/301 59/550/302 128/170/303 127/169/304
s 46
f 60/582/305 131/581/306 128/170/307 59/550/308
s 3
f 40/536/309 130/11/11 131/171/310 60/78/311
f 200/534/312 184/9/9 130/11/11 40/536/309
s 47
f 22/42/313 143/172/314 129/623/315 3/44/316
f 111/174/317 143/172/314 22/42/313 5/41/318
s 3
f 185/10/10 186/175/319 51/176/320 130/11/11
f 131/171/310 130/11/11 51/176/320 61/177/321
s 46
f 128/170/307 131/581/306 61/578/322 68/592/323
s 45
f 127/169/304 128/170/303 68/592/324 65/93/325
s 32
f 126/167/299 127/169/298 65/93/186 81/596/185
s 31
f 125/107/295 126/595/294 81/113/182 82/112/181
s 26
f 75/95/177 132/87/136 125/107/156 82/112/178
f 93/574/326 133/88/137 132/87/136 75/95/177
f 145/127/327 146/178/328 134/179/329 99/126/330
s 25
f 72/180/331 160/84/133 135/83/132
f 95/587/244 137/122/201 136/181/332 102/147/245
f 138/98/147 137/122/201 95/587/244 73/108/170
f 117/96/145 138/98/147 73/108/170 79/111/169
s 30
f 77/594/165 116/593/280 117/96/279 79/111/166
s 29
f 66/109/161 115/157/276 116/158/275 77/110/162
s 43
f 114/155/274 115/157/273 66/109/333 70/119/334
s 42
f 57/590/335 139/583/268 114/155/267 70/119/336
s 20
f 53/182/337 140/154/264 139/153/263 57/133/338
f 141/64/96 336/66/98 337/183/339 340/184/340
s 40
f 340/616/341 54/185/342 113/152/256 141/625/259
f 112/622/257 113/152/256 54/185/342 55/620/343
s 38
f 55/186/344 341/187/345 333/151/252 112/150/251
f 345/188/346 207/148/247 142/149/250 344/189/347
s 47
f 56/190/348 348/191/349 143/172/314 111/174/317
f 129/623/315 143/172/314 348/191/349 338/192/350
s 27
f 68/91/140 61/579/351 52/580/352 97/124/203
f 92/92/141 68/91/140 97/124/203 98/577/202
s off
f 103/143/353 92/612/354 98/123/355 105/146/356
f 104/144/357 103/143/358 105/146/359 106/606/360
s 26
f 99/575/330 93/94/326 104/605/361 106/145/362
f 99/126/330 134/179/329 133/88/137 93/574/326
s 34
f 167/193/363 166/194/364 165/131/210 164/130/209
s 26
f 74/541/291 123/89/138 122/165/290 100/540/289
f 145/127/327 150/195/365 146/178/328
f 150/195/365 151/196/366 147/163/288 146/178/328
f 151/196/366 100/540/289 147/163/288
s 27
f 153/197/367 152/132/211 101/134/214
f 154/198/368 153/197/367 101/134/214 102/147/369
s 25
f 102/147/245 136/181/332 148/199/370 154/198/371
s 36
f 173/200/372 172/201/373 168/139/219 171/142/222
s 25
f 157/539/286 149/202/374 120/160/285
s 27
f 97/124/203 52/580/352 69/203/375
f 144/125/204 97/124/203 69/203/375 67/204/376
f 145/127/206 144/125/204 67/204/376 72/180/377
s 26
f 72/180/378 158/205/379 150/195/365 145/127/327
s off
f 174/206/380 175/207/381 176/208/382 177/209/383
s 26
f 159/210/384 71/538/385 100/540/289 151/196/366
s 25
f 154/198/371 148/199/370 155/211/386
f 156/212/387 155/211/386 148/199/370 149/202/374
f 157/539/286 156/212/387 149/202/374
s 26
f 135/83/388 158/205/379 72/180/378
f 121/86/389 159/210/384 158/205/379 135/83/388
f 71/538/385 159/210/384 121/86/389
s 27
f 69/203/390 52/580/212 152/132/211
f 67/204/376 69/203/390 152/132/211 153/197/367
f 72/180/377 67/204/376 153/197/367 154/198/368
s 25
f 154/198/371 155/211/386 160/84/133 72/180/331
s off
f 179/213/391 178/214/392 180/215/393 181/216/394
s 25
f 71/538/287 161/85/134 156/212/387 157/539/286
s off
f 146/178/395 147/163/396 163/129/397 162/128/398
s 50
f 147/163/399 122/165/400 164/130/401 163/129/402
s 51
f 134/179/403 146/178/404 162/128/405 165/131/406
s 26
f 123/89/138 133/88/137 166/194/407 167/193/408
s 51
f 133/88/409 134/179/403 165/131/406 166/194/410
s 50
f 122/165/400 123/89/411 167/193/412 164/130/401
s 52
f 136/181/413 137/122/414 169/140/415 168/139/416
s 25
f 137/122/201 119/121/200 170/141/417 169/140/418
s 53
f 119/121/419 120/160/420 171/142/421 170/141/422
s off
f 149/202/423 148/199/424 172/201/425 173/200/426
s 52
f 148/199/427 136/181/413 168/139/416 172/201/428
s 53
f 120/160/420 149/202/429 173/200/430 171/142/421
s off
f 158/205/431 159/210/432 175/207/433 174/206/434
f 159/210/435 151/196/436 176/208/437 175/207/438
f 151/196/439 150/195/440 177/209/441 176/208/442
f 150/195/443 158/205/444 174/206/445 177/209/446
f 161/85/447 160/84/448 178/214/449 179/213/450
f 160/84/451 155/211/452 180/215/453 178/214/454
f 155/211/455 156/212/456 181/216/457 180/215/458
f 156/212/459 161/85/460 179/213/461 181/216/462
s 3
f 200/534/312 201/217/463 184/9/9
s off
f 389/218/464 390/219/465 391/220/466 392/221/467
s 3
f 202/222/468 203/223/469 186/175/319 185/10/10
s 1
f 41/224/470 32/8/8 228/225/471 187/226/472
f 188/227/473 228/225/471 32/8/8 10/7/7
s 38
f 229/228/474 343/229/475 344/189/347 142/149/250
f 189/533/476 229/228/474 142/149/250 11/37/249
s 9
f 190/231/477 189/230/478 11/537/49 16/22/52
s 6
f 191/232/479 190/231/480 16/22/24 17/25/27
s 11
f 192/233/481 191/232/482 17/25/54 26/39/53
s 18
f 230/234/483 192/233/484 26/39/91 35/61/90
f 193/235/485 230/234/483 35/61/90 37/72/486
s 4
f 37/72/487 44/562/488 194/236/489 193/235/490
s 9
f 44/562/129 42/563/128 195/535/491 194/236/492
s 20
f 42/80/265 140/154/264 196/238/493 195/237/494
f 197/239/495 196/238/493 140/154/264
f 198/240/496 197/239/495 140/154/264 53/182/337
s 1
f 216/241/497 182/5/5 199/57/82
s 9
f 223/67/103 224/242/498 200/69/104
s 3
f 224/530/499 208/243/500 201/217/463 200/534/312
f 208/243/500 209/244/501 202/222/468 201/217/463
f 209/244/501 210/245/502 203/223/469 202/222/468
s 20
f 195/237/494 196/238/493 204/246/503
s off
f 394/247/504 393/248/505 395/249/506 396/250/507
s 20
f 206/251/508 205/252/509 197/239/495 198/240/496
s 3
f 224/530/499 225/253/510 208/243/500
s off
f 397/254/511 398/255/512 399/256/513 400/257/514
s 3
f 226/258/515 227/259/516 210/245/502 209/244/501
s 1
f 187/226/472 228/225/471 211/260/517
s 9
f 194/236/492 195/535/491 212/532/518
s 20
f 195/237/494 204/246/503 213/262/519 212/261/520
f 214/263/521 213/262/519 204/246/503 205/252/509
f 215/264/522 214/263/521 205/252/509 206/251/508
s 1
f 251/265/523 234/266/524 182/5/5 216/241/497
f 234/266/524 269/267/525 217/6/6 182/5/5
s 38
f 346/268/526 259/269/527 207/148/247 345/188/346
f 259/269/527 270/270/528 218/38/248 207/148/247
s 9
f 219/23/51 218/531/50 270/525/529 271/271/530
s 6
f 220/24/26 219/23/25 271/271/531 272/272/532
s 11
f 221/40/56 220/24/55 272/272/533 273/273/534
s 18
f 273/273/535 235/274/536 183/60/89 221/40/88
f 222/63/95 183/60/89 235/274/536 274/275/537
s 21
f 274/275/538 275/276/539 223/67/100 222/63/99
s 9
f 275/276/540 252/277/541 224/242/498 223/67/103
s 3
f 252/528/542 236/278/543 225/253/510 224/530/499
f 236/278/543 237/279/544 226/258/515 225/253/510
f 237/279/544 238/280/545 227/259/516 226/258/515
s 20
f 212/261/520 213/262/519 231/281/546
s off
f 402/282/547 401/283/548 403/284/549 404/285/550
s 20
f 233/286/551 232/287/552 214/263/521 215/264/522
s 3
f 252/528/542 253/288/553 236/278/543
s off
f 405/289/554 406/290/555 407/291/556 408/292/557
s 3
f 254/293/558 255/294/559 238/280/545 237/279/544
s 1
f 211/260/517 228/225/471 280/295/560 239/296/561
f 240/297/562 280/295/560 228/225/471 188/227/473
s 38
f 281/298/563 342/299/564 343/229/475 229/228/474
f 241/527/565 281/298/563 229/228/474 189/533/476
s 9
f 242/301/566 241/300/567 189/230/478 190/231/477
s 6
f 243/302/568 242/301/569 190/231/480 191/232/479
s 11
f 244/303/570 243/302/571 191/232/482 192/233/481
s 18
f 282/304/572 244/303/573 192/233/484 230/234/483
f 245/305/574 282/304/572 230/234/483 193/235/485
s 4
f 193/235/490 194/236/489 246/306/575 245/305/576
s 9
f 194/236/492 212/532/518 247/529/577 246/306/578
s 20
f 212/261/520 231/281/546 248/308/579 247/307/580
f 249/309/581 248/308/579 231/281/546 232/287/552
f 250/310/582 249/309/581 232/287/552 233/286/551
s 1
f 268/311/583 234/266/524 251/265/523
s 9
f 275/276/540 276/312/584 252/277/541
s 3
f 276/523/585 260/313/586 253/288/553 252/528/542
f 260/313/586 261/314/587 254/293/558 253/288/553
f 261/314/587 262/315/588 255/294/559 254/293/558
s 20
f 247/307/580 248/308/579 256/316/589
s off
f 410/317/590 409/318/591 411/319/592 412/320/593
s 20
f 258/321/594 257/322/595 249/309/581 250/310/582
s 3
f 276/523/585 277/323/596 260/313/586
s off
f 413/324/597 414/325/598 415/326/599 416/327/600
s 3
f 278/328/601 279/329/602 262/315/588 261/314/587
s 1
f 239/296/561 280/295/560 263/330/603
s 9
f 246/306/578 247/529/577 264/526/604
s 20
f 247/307/580 256/316/589 265/332/605 264/331/606
f 266/333/607 265/332/605 256/316/589 257/322/595
f 267/334/608 266/333/607 257/322/595 258/321/594
s 1
f 303/335/609 286/336/610 234/266/524 268/311/583
f 286/336/610 321/337/611 269/267/525 234/266/524
s 38
f 347/338/612 311/339/613 259/269/527 346/268/526
f 311/339/613 322/340/614 270/270/528 259/269/527
s 9
f 271/271/530 270/525/529 322/524/615 323/341/616
s 6
f 272/272/532 271/271/531 323/341/617 324/342/618
s 11
f 273/273/534 272/272/533 324/342/619 325/343/620
s 18
f 325/343/621 287/344/622 235/274/536 273/273/535
f 274/275/537 235/274/536 287/344/622 326/345/623
s 21
f 326/345/624 327/346/625 275/276/539 274/275/538
s 9
f 327/346/626 304/347/627 276/312/584 275/276/540
s 3
f 304/521/628 288/348/629 277/323/596 276/523/585
f 288/348/629 289/349/630 278/328/601 277/323/596
f 289/349/630 290/350/631 279/329/602 278/328/601
s 20
f 264/331/606 265/332/605 283/351/632
s off
f 418/352/633 417/353/634 419/354/635 420/355/636
s 20
f 285/356/637 284/357/638 266/333/607 267/334/608
s 3
f 304/521/628 305/358/639 288/348/629
s off
f 421/359/640 422/360/641 423/361/642 424/362/643
s 3
f 306/363/644 307/364/645 290/350/631 289/349/630
s 1
f 263/330/603 280/295/560 332/2/2 291/365/646
f 292/3/3 332/2/2 280/295/560 240/297/562
s 38
f 333/151/252 341/187/345 342/299/564 281/298/563
f 293/518/253 333/151/252 281/298/563 241/527/565
s 9
f 294/20/44 293/35/43 241/300/567 242/301/566
s 6
f 295/21/22 294/20/21 242/301/569 243/302/568
s 11
f 296/36/47 295/21/46 243/302/571 244/303/570
s 18
f 334/59/86 296/36/85 244/303/573 282/304/572
f 297/12/92 334/59/86 282/304/572 245/305/574
s 4
f 245/305/576 246/306/575 298/13/13 297/12/12
s 9
f 246/306/578 264/526/604 299/522/647 298/13/32
s 20
f 264/331/606 283/351/632 300/367/648 299/366/649
f 301/368/650 300/367/648 283/351/632 284/357/638
f 302/369/651 301/368/650 284/357/638 285/356/637
s 1
f 320/370/652 286/336/610 303/335/609
s 9
f 327/346/626 328/520/653 304/347/627
s 3
f 328/371/654 312/372/655 305/358/639 304/521/628
f 312/372/655 313/373/656 306/363/644 305/358/639
f 313/373/656 314/374/657 307/364/645 306/363/644
s 20
f 299/366/649 300/367/648 308/375/658
s off
f 426/376/659 425/377/660 427/378/661 428/379/662
s 20
f 310/380/663 309/381/664 301/368/650 302/369/651
s 3
f 328/371/654 329/382/665 312/372/655
s off
f 429/383/666 430/384/667 431/385/668 432/386/669
s 3
f 330/387/670 331/388/671 314/374/657 313/373/656
s 1
f 291/365/646 332/2/2 315/55/80
s 9
f 298/13/32 299/522/647 316/516/33
s 20
f 299/366/649 308/375/658 317/389/672 316/30/261
f 318/390/673 317/389/672 308/375/658 309/381/664
f 319/391/674 318/390/673 309/381/664 310/380/663
s 1
f 33/392/675 286/336/610 320/370/652 1/393/676
f 7/394/677 321/337/611 286/336/610 33/392/675
s 38
f 111/621/678 311/339/613 347/338/612 56/619/679
f 5/628/680 322/340/614 311/339/613 111/621/678
s 9
f 323/341/616 322/524/615 5/556/57 20/566/60
s 6
f 324/342/618 323/341/617 20/566/681 21/29/682
s 11
f 325/343/620 324/342/619 21/29/683 25/43/684
s 18
f 36/47/685 287/344/622 325/343/621 25/43/686
f 326/345/623 287/344/622 36/47/685 19/46/687
s 21
f 18/568/688 327/346/625 326/345/624 19/46/689
s 9
f 3/569/64 328/520/653 327/346/626 18/568/65
s 3
f 129/173/690 329/382/665 328/371/654 3/624/691
f 129/173/690 330/387/670 329/382/665
f 338/618/692 331/388/671 330/387/670 129/173/690
s 20
f 316/30/261 317/389/672 335/65/97
s off
f 434/395/693 433/396/694 435/397/695 436/398/696
s 20
f 337/183/339 336/66/98 318/390/673 319/391/674
s 3
f 349/617/697 350/400/698 331/388/671 338/618/692
s off
f 438/401/699 437/402/700 439/403/701 440/404/702
s 3
f 307/364/645 314/374/657 351/405/703 352/406/704
s off
f 442/407/705 441/408/706 443/409/707 444/410/708
s 3
f 279/329/602 290/350/631 353/411/709 354/412/710
s off
f 446/413/711 445/414/712 447/415/713 448/416/714
s 3
f 255/294/559 262/315/588 355/417/715 356/418/716
s off
f 450/419/717 449/420/718 451/421/719 452/422/720
s 3
f 227/259/516 238/280/545 357/423/721 358/424/722
s off
f 454/425/723 453/426/724 455/427/725 456/428/726
s 3
f 203/223/469 210/245/502 359/429/727 360/430/728
s off
f 458/431/729 457/432/730 459/433/731 460/434/732
s 3
f 51/176/320 186/175/319 361/435/733 362/436/734
f 486/437/735 487/438/736 51/176/320 362/436/734
s 55
f 497/439/737 498/440/738 499/441/739 500/442/740
s 20
f 364/443/741 365/444/742 198/240/496 53/182/337
s off
f 461/445/743 462/446/744 463/447/745 464/448/746
s 20
f 366/449/747 367/450/748 215/264/522 206/251/508
s off
f 465/451/749 466/452/750 467/453/751 468/454/752
s 20
f 368/455/753 369/456/754 250/310/582 233/286/551
s off
f 469/457/755 470/458/756 471/459/757 472/460/758
s 20
f 370/461/759 371/462/760 267/334/608 258/321/594
s off
f 473/463/761 474/464/762 475/465/763 476/466/764
s 20
f 372/467/765 373/468/766 302/369/651 285/356/637
s off
f 477/469/767 478/470/768 479/471/769 480/472/770
s 20
f 374/473/771 375/474/772 319/391/674 310/380/663
s off
f 481/475/773 482/476/774 483/477/775 484/478/776
s 20
f 340/184/340 337/183/339 376/479/777 377/615/778
s 40
f 377/480/779 378/481/780 54/185/342 340/616/341
f 55/620/343 54/185/342 378/481/780 379/614/781
s 38
f 379/482/782 380/483/783 341/187/345 55/186/344
f 380/483/783 381/484/784 342/299/564 341/187/345
f 381/484/784 382/485/785 343/229/475 342/299/564
f 382/485/785 383/486/786 344/189/347 343/229/475
f 383/486/786 384/487/787 345/188/346 344/189/347
f 384/487/787 385/488/788 346/268/526 345/188/346
f 385/488/788 386/489/789 347/338/612 346/268/526
f 56/619/679 347/338/612 386/489/789 387/613/790
s 47
f 387/490/791 388/491/792 348/191/349 56/190/348
f 338/192/350 348/191/349 388/491/792 349/399/793
s 3
f 1/393/794 320/370/795 350/400/698 349/617/697
f 351/405/703 350/400/698 320/370/795
f 352/406/704 351/405/703 320/370/795 303/335/796
f 353/411/709 352/406/704 303/335/796
f 354/412/710 353/411/709 303/335/796 268/311/797
f 355/417/715 354/412/710 268/311/797
f 356/418/716 355/417/715 268/311/797 251/265/798
f 357/423/721 356/418/716 251/265/798
f 358/424/722 357/423/721 251/265/798 216/241/799
f 359/429/727 358/424/722 216/241/799
f 360/430/728 359/429/727 216/241/799 199/57/800
f 361/435/733 360/430/728 199/57/800
f 362/436/734 361/435/733 199/57/800 39/58/801
f 485/492/802 486/437/735 362/436/734 39/58/801
s 55
f 501/493/803 497/439/737 500/442/740 502/494/804
s 20
f 187/226/805 365/444/742 364/443/741 41/224/806
f 187/226/805 366/449/747 365/444/742
f 211/260/807 367/450/748 366/449/747 187/226/805
f 211/260/807 368/455/753 367/450/748
f 239/296/808 369/456/754 368/455/753 211/260/807
f 239/296/808 370/461/759 369/456/754
f 263/330/809 371/462/760 370/461/759 239/296/808
f 263/330/809 372/467/765 371/462/760
f 291/365/810 373/468/766 372/467/765 263/330/809
f 291/365/810 374/473/771 373/468/766
f 315/55/811 375/474/772 374/473/771 291/365/810
f 315/55/811 376/479/777 375/474/772
f 377/615/778 376/479/777 315/55/811 2/56/812
s 40
f 2/56/813 31/1/814 378/481/780 377/480/779
f 379/614/781 378/481/780 31/1/814 8/4/815
s 38
f 292/3/816 380/483/783 379/482/782 8/4/817
f 240/297/818 381/484/784 380/483/783 292/3/816
f 188/227/819 382/485/785 381/484/784 240/297/818
f 10/7/820 383/486/786 382/485/785 188/227/819
f 217/6/821 384/487/787 383/486/786 10/7/820
f 269/267/822 385/488/788 384/487/787 217/6/821
f 321/337/823 386/489/789 385/488/788 269/267/822
f 387/613/790 386/489/789 321/337/823 7/394/824
s 47
f 7/394/825 33/392/826 388/491/792 387/490/791
f 349/399/793 388/491/792 33/392/826 1/393/827
s off
f 201/217/828 202/222/829 390/219/830 389/218/831
f 202/222/832 185/10/833 391/220/834 390/219/835
f 185/10/836 184/9/837 392/221/838 391/220/839
f 184/9/840 201/217/841 389/218/842 392/221/843
f 205/252/844 204/246/845 393/248/846 394/247/847
f 204/246/848 196/238/849 395/249/850 393/248/851
f 196/238/852 197/239/853 396/250/854 395/249/855
f 197/239/856 205/252/857 394/247/858 396/250/859
f 225/253/860 226/258/861 398/255/862 397/254/863
f 226/258/864 209/244/865 399/256/866 398/255/867
f 209/244/868 208/243/869 400/257/870 399/256/871
f 208/243/872 225/253/873 397/254/874 400/257/875
f 232/287/876 231/281/877 401/283/878 402/282/879
f 231/281/880 213/262/881 403/284/882 401/283/883
f 213/262/884 214/263/885 404/285/886 403/284/887
f 214/263/888 232/287/889 402/282/890 404/285/891
f 253/288/892 254/293/893 406/290/894 405/289/895
f 254/293/896 237/279/897 407/291/898 406/290/899
f 237/279/900 236/278/901 408/292/902 407/291/903
f 236/278/904 253/288/905 405/289/906 408/292/907
f 257/322/908 256/316/909 409/318/910 410/317/911
f 256/316/912 248/308/913 411/319/914 409/318/915
f 248/308/916 249/309/917 412/320/918 411/319/919
f 249/309/920 257/322/921 410/317/922 412/320/923
f 277/323/924 278/328/925 414/325/926 413/324/927
f 278/328/928 261/314/929 415/326/930 414/325/931
f 261/314/932 260/313/933 416/327/934 415/326/935
f 260/313/936 277/323/937 413/324/938 416/327/939
f 284/357/940 283/351/941 417/353/942 418/352/943
f 283/351/944 265/332/945 419/354/946 417/353/947
f 265/332/948 266/333/949 420/355/950 419/354/951
f 266/333/952 284/357/953 418/352/954 420/355/955
f 305/358/956 306/363/957 422/360/958 421/359/959
f 306/363/960 289/349/961 423/361/962 422/360/963
f 289/349/964 288/348/965 424/362/966 423/361/967
f 288/348/968 305/358/969 421/359/970 424/362/971
f 309/381/972 308/375/973 425/377/974 426/376/975
f 308/375/976 300/367/977 427/378/978 425/377/979
f 300/367/980 301/368/981 428/379/982 427/378/983
f 301/368/984 309/381/985 426/376/986 428/379/987
f 329/382/988 330/387/989 430/384/990 429/383/991
f 330/387/992 313/373/993 431/385/994 430/384/995
f 313/373/996 312/372/997 432/386/998 431/385/999
f 312/372/1000 329/382/1001 429/383/1002 432/386/1003
f 336/66/1004 335/65/1005 433/396/1006 434/395/1007
f 335/65/1008 317/389/1009 435/397/1010 433/396/1011
f 317/389/1012 318/390/1013 436/398/1014 435/397/1015
f 318/390/1016 336/66/1017 434/395/1018 436/398/1019
s 3
f 314/374/657 331/388/671 437/402/1020 438/401/1021
s off
f 331/388/1022 350/400/1023 439/403/1024 437/402/1025
f 350/400/1026 351/405/1027 440/404/1028 439/403/1029
f 351/405/1030 314/374/1031 438/401/1032 440/404/1033
s 3
f 290/350/631 307/364/645 441/408/1034 442/407/1035
s off
f 307/364/1036 352/406/1037 443/409/1038 441/408/1039
f 352/406/1040 353/411/1041 444/410/1042 443/409/1043
f 353/411/1044 290/350/1045 442/407/1046 444/410/1047
s 3
f 262/315/588 279/329/602 445/414/1048 446/413/1049
s off
f 279/329/1050 354/412/1051 447/415/1052 445/414/1053
f 354/412/1054 355/417/1055 448/416/1056 447/415/1057
f 355/417/1058 262/315/1059 446/413/1060 448/416/1061
s 3
f 238/280/545 255/294/559 449/420/1062 450/419/1063
s off
f 255/294/1064 356/418/1065 451/421/1066 449/420/1067
f 356/418/1068 357/423/1069 452/422/1070 451/421/1071
f 357/423/1072 238/280/1073 450/419/1074 452/422/1075
s 3
f 210/245/502 227/259/516 453/426/1076 454/425/1077
s off
f 227/259/1078 358/424/1079 455/427/1080 453/426/1081
f 358/424/1082 359/429/1083 456/428/1084 455/427/1085
f 359/429/1086 210/245/1087 454/425/1088 456/428/1089
s 3
f 186/175/319 203/223/469 457/432/1090 458/431/1091
s off
f 203/223/1092 360/430/1093 459/433/1094 457/432/1095
f 360/430/1096 361/435/1097 460/434/1098 459/433/1099
f 361/435/1100 186/175/1101 458/431/1102 460/434/1103
f 365/444/1104 366/449/1105 462/446/1106 461/445/1107
f 366/449/1108 206/251/1109 463/447/1110 462/446/1111
s 20
f 206/251/508 198/240/496 464/448/1112 463/447/1113
s off
f 198/240/1114 365/444/1115 461/445/1116 464/448/1117
f 367/450/1118 368/455/1119 466/452/1120 465/451/1121
f 368/455/1122 233/286/1123 467/453/1124 466/452/1125
s 20
f 233/286/551 215/264/522 468/454/1126 467/453/1127
s off
f 215/264/1128 367/450/1129 465/451/1130 468/454/1131
f 369/456/1132 370/461/1133 470/458/1134 469/457/1135
f 370/461/1136 258/321/1137 471/459/1138 470/458/1139
s 20
f 258/321/594 250/310/582 472/460/1140 471/459/1141
s off
f 250/310/1142 369/456/1143 469/457/1144 472/460/1145
f 371/462/1146 372/467/1147 474/464/1148 473/463/1149
f 372/467/1150 285/356/1151 475/465/1152 474/464/1153
s 20
f 285/356/637 267/334/608 476/466/1154 475/465/1155
s off
f 267/334/1156 371/462/1157 473/463/1158 476/466/1159
f 373/468/1160 374/473/1161 478/470/1162 477/469/1163
f 374/473/1164 310/380/1165 479/471/1166 478/470/1167
s 20
f 310/380/663 302/369/651 480/472/1168 479/471/1169
s off
f 302/369/1170 373/468/1171 477/469/1172 480/472/1173
f 375/474/1174 376/479/1175 482/476/1176 481/475/1177
f 376/479/1178 337/183/1179 483/477/1180 482/476/1181
s 20
f 337/183/339 319/391/674 484/478/1182 483/477/1183
s off
f 319/391/1184 375/474/1185 481/475/1186 484/478/1187
f 62/81/1188 44/74/1189 50/560/1190 76/115/1191
f 43/564/1192 59/79/1193 80/116/1194 46/50/1195
s 23
f 363/495/1196 492/496/1197 493/497/1198 9/498/1199
f 339/499/1200 491/500/1201 492/496/1197 363/495/1196
f 52/76/124 491/500/1201 339/499/1200
s 20
f 364/443/741 489/501/1202 488/502/1203 41/224/806
f 53/182/337 490/75/1204 489/501/1202 364/443/741
s 23
f 491/500/1201 52/76/124 487/438/1205
s 57
f 504/503/1206 503/504/1207 505/505/1208 506/506/1209
f 507/507/1210 504/503/1206 506/506/1209 508/508/1211
s 23
f 494/77/125 52/76/124 339/499/1200
f 495/509/1212 494/77/125 339/499/1200 363/495/1196
f 496/510/1213 495/509/1212 363/495/1196 9/498/1199
s 58
f 489/501/1214 490/75/1215 498/440/1216 497/439/1217
s off
f 490/75/1218 494/77/1219 499/441/1220 498/440/1221
s 59
f 494/77/1222 495/509/1223 500/442/1224 499/441/1225
s 58
f 488/502/1226 489/501/1214 497/439/1217 501/493/1227
s 59
f 495/509/1223 496/510/1228 502/494/1229 500/442/1224
s 60
f 492/496/1230 491/500/1231 503/504/1232 504/503/1233
s off
f 491/500/1234 487/438/1235 505/505/1236 503/504/1237
s 61
f 487/438/1238 486/437/1239 506/506/1240 505/505/1241
s 60
f 493/497/1242 492/496/1230 504/503/1233 507/507/1243
s 61
f 486/437/1239 485/492/1244 508/508/1245 506/506/1240
s off
f 496/510/1246 9/498/1247 509/511/1248 502/494/1249
f 9/498/1250 493/497/1251 507/507/1252 509/511/1253
s 20
f 57/133/1254 490/75/1204 53/182/337
s 3
f 51/176/320 487/438/736 61/177/1255
s off
f 57/133/1256 52/76/1257 490/75/1258
f 52/76/1259 61/177/1260 487/438/1261
s 16
f 512/512/1262 48/52/74 45/49/71 510/513/1263
f 515/514/1264 49/71/1265 511/515/1266
f 48/52/74 512/512/1262 47/53/75
f 511/515/1266 49/71/1265 48/52/74 513/51/73
f 510/513/1263 45/49/71 514/48/70
f 49/71/1265 515/514/1264 50/73/1267
s off
f 96/159/1268 78/114/1269 515/514/1270 511/515/1271
f 83/117/1272 74/166/1273 510/513/1274 514/48/1275
f 511/515/1276 513/51/1277 157/161/1278 96/159/1279
f 513/51/1280 47/53/1281 71/162/1282 157/161/1283
f 74/166/1284 100/164/1285 512/512/1286 510/513/1287
f 100/164/1288 71/162/1289 47/53/1290 512/512/1291
f 50/73/1292 515/514/1293 78/114/1294
f 46/558/1295 83/117/1296 514/48/1297
f 59/79/1298 63/545/1299 80/116/1300
f 64/156/1301 62/81/1302 76/115/1303
s 63
f 501/493/1304 41/224/1305 488/502/1306
s 64
f 39/58/1307 32/8/1308 508/508/1309
s off
f 502/494/1310 509/511/1311 32/8/1312
f 509/511/1313 507/507/1314 32/8/1315
s 64
f 39/58/1307 508/508/1309 485/492/1316
s 63
f 32/8/1317 41/224/1305 501/493/1304
s off
f 32/8/1318 507/507/1319 508/508/1320
f 502/494/1321 32/8/1322 501/493/1323
