# Blender 4.4.3
# www.blender.org
mtllib monas.mtl
o Cube
v 2.459613 0.783379 -2.459613
v 1.000000 -1.000000 -1.000000
v 2.459613 0.783379 2.459613
v 1.000000 -1.000000 1.000000
v -2.459613 0.783379 -2.459613
v -1.000000 -1.000000 -1.000000
v -2.459613 0.783379 2.459613
v -1.000000 -1.000000 1.000000
v 2.601275 1.172668 2.601275
v -2.601275 1.172668 2.601275
v 2.601275 1.172668 -2.601275
v -2.601275 1.172668 -2.601275
v 2.023824 0.434512 -2.023824
v 1.801687 0.163101 -1.801687
v 1.579549 -0.108311 -1.579549
v 1.357412 -0.379722 -1.357412
v 1.135274 -0.651133 -1.135274
v -1.135274 -0.651133 1.135274
v -1.357412 -0.379722 1.357412
v -1.579549 -0.108311 1.579549
v -1.801687 0.163101 1.801687
v -2.023824 0.434512 2.023824
v 2.023824 0.434512 2.023824
v 1.801687 0.163101 1.801687
v 1.579549 -0.108311 1.579549
v 1.357412 -0.379722 1.357412
v 1.135274 -0.651133 1.135274
v -2.023824 0.434512 -2.023824
v -1.801687 0.163101 -1.801687
v -1.579549 -0.108311 -1.579549
v -1.357412 -0.379722 -1.357412
v -1.135274 -0.651133 -1.135274
v -1.135274 -0.651133 -1.135274
v 1.135274 -0.651133 -1.135274
v -1.357412 -0.379722 -1.357412
v 1.357412 -0.379722 -1.357412
v -1.579549 -0.108311 -1.579549
v 1.579549 -0.108311 -1.579549
v -1.801687 0.163101 -1.801687
v 1.801687 0.163101 -1.801687
v -2.023824 0.434512 -2.023824
v 2.023824 0.434512 -2.023824
v 1.135274 -0.651133 1.135274
v 1.357412 -0.379722 1.357412
v 1.579549 -0.108311 1.579549
v 1.801687 0.163101 1.801687
v 2.023824 0.434512 2.023824
v -1.135274 -0.651133 1.135274
v -1.357412 -0.379722 1.357412
v -1.579549 -0.108311 1.579549
v -1.801687 0.163101 1.801687
v -2.023824 0.434512 2.023824
v 0.965407 1.172668 0.965407
v -0.965407 1.172668 0.965407
v 0.965407 1.172668 -0.965407
v -0.965407 1.172668 -0.965407
v 0.484074 11.340646 0.484074
v -0.484074 11.340646 0.484074
v 0.484074 11.340646 -0.484074
v -0.484074 11.340646 -0.484074
v 0.652135 11.344830 0.652135
v -0.652135 11.344830 0.652135
v 0.652135 11.344830 -0.652135
v -0.652135 11.344830 -0.652135
v 0.652135 11.633079 0.652135
v -0.652135 11.633079 0.652135
v 0.652135 11.633079 -0.652135
v -0.652135 11.633079 -0.652135
v 0.417186 11.633079 0.417186
v -0.417186 11.633079 0.417186
v 0.417186 11.633079 -0.417186
v -0.417186 11.633079 -0.417186
v 0.417186 11.752766 0.417186
v -0.417186 11.752766 0.417186
v 0.417186 11.752766 -0.417186
v -0.417186 11.752766 -0.417186
v 0.565518 11.752766 0.565518
v -0.565518 11.752766 0.565518
v 0.565518 11.752766 -0.565518
v -0.565518 11.752766 -0.565518
v 0.565518 11.900650 0.565518
v -0.565518 11.900650 0.565518
v 0.565518 11.900650 -0.565518
v -0.565518 11.900650 -0.565518
v 0.224380 11.900650 0.224380
v -0.224380 11.900650 0.224380
v 0.224380 11.900650 -0.224380
v -0.224380 11.900650 -0.224380
vn -0.9397 -0.3420 -0.0000
vn -0.0000 -0.7807 0.6250
vn -0.6250 -0.7807 -0.0000
vn -0.0000 -1.0000 -0.0000
vn 0.6250 -0.7807 -0.0000
vn -0.0000 -0.7807 -0.6250
vn -0.0000 1.0000 -0.0000
vn 0.9397 -0.3420 -0.0000
vn -0.0000 -0.3420 -0.9397
vn -0.0000 -0.3420 0.9397
vn -0.0000 -0.3615 -0.9324
vn -0.0000 -0.6334 -0.7739
vn 0.9324 -0.3615 -0.0000
vn 0.7739 -0.6334 -0.0000
vn -0.9324 -0.3615 -0.0000
vn -0.7739 -0.6334 -0.0000
vn -0.0000 -0.3615 0.9324
vn -0.0000 -0.6334 0.7739
vn 0.9989 0.0473 -0.0000
vn -0.0249 -0.9997 -0.0000
vn -0.9989 0.0473 -0.0000
vn -0.0000 0.0473 0.9989
vn -0.0000 0.0473 -0.9989
vn -0.0000 -0.0000 -1.0000
vn -0.0000 -0.9997 0.0249
vn -0.0000 -0.9997 -0.0249
vn 0.0249 -0.9997 -0.0000
vn 1.0000 -0.0000 -0.0000
vn -1.0000 -0.0000 -0.0000
vn -0.0000 -0.0000 1.0000
vt 0.813082 0.013996
vt 0.813082 0.500000
vt 0.801319 0.513996
vt 0.801319 -0.000000
vt 0.331618 0.442950
vt 0.318885 0.486004
vt 0.318885 -0.000000
vt 0.331618 0.043055
vt 0.462616 0.000000
vt 0.449883 0.043055
vt 0.377321 0.486004
vt 0.377321 0.683598
vt 0.318885 0.683598
vt 0.318885 0.486004
vt 0.449883 0.442950
vt 0.462616 0.486004
vt 0.318885 0.513996
vt 0.166875 0.513996
vt 0.214672 0.352377
vt 0.271087 0.352377
vt 0.389085 0.500000
vt 0.389085 0.986004
vt 0.377321 1.000000
vt 0.377321 0.486004
vt 0.400849 0.500000
vt 0.400849 0.986004
vt 0.389085 1.000000
vt 0.389085 0.486004
vt 0.824846 0.013996
vt 0.824846 0.500000
vt 0.813082 0.513996
vt 0.813082 -0.000000
vt 0.236691 0.836697
vt 0.226122 0.850062
vt 0.226122 0.625739
vt 0.236691 0.639103
vt 0.255863 0.872008
vt 0.247261 0.893955
vt 0.247261 0.625739
vt 0.255863 0.647685
vt 0.418053 0.905025
vt 0.409451 0.926971
vt 0.409451 0.614862
vt 0.418053 0.636809
vt 0.296884 0.848051
vt 0.288282 0.869998
vt 0.288282 0.513996
vt 0.296884 0.535942
vt 0.447560 0.863953
vt 0.438957 0.885899
vt 0.438957 0.486004
vt 0.447560 0.507951
vt 0.247261 0.836697
vt 0.236691 0.850062
vt 0.236691 0.625739
vt 0.247261 0.639103
vt 0.264465 0.872008
vt 0.255863 0.893955
vt 0.255863 0.625739
vt 0.264465 0.647685
vt 0.426655 0.905025
vt 0.418053 0.926971
vt 0.418053 0.614862
vt 0.426655 0.636809
vt 0.305486 0.848051
vt 0.296884 0.869998
vt 0.296884 0.513996
vt 0.305486 0.535942
vt 0.456162 0.863953
vt 0.447560 0.885899
vt 0.447560 0.486004
vt 0.456162 0.507951
vt 0.215553 0.836697
vt 0.204984 0.850062
vt 0.204984 0.625739
vt 0.215553 0.639103
vt 0.175477 0.889123
vt 0.166875 0.911070
vt 0.166875 0.642854
vt 0.175477 0.664800
vt 0.409451 0.905025
vt 0.400849 0.926971
vt 0.400849 0.614862
vt 0.409451 0.636809
vt 0.314088 0.848051
vt 0.305486 0.869998
vt 0.305486 0.513996
vt 0.314088 0.535942
vt 0.288282 0.891944
vt 0.279680 0.913891
vt 0.279680 0.513996
vt 0.288282 0.535942
vt 0.215553 0.639103
vt 0.226122 0.625739
vt 0.226122 0.850062
vt 0.215553 0.836697
vt 0.184079 0.889123
vt 0.175477 0.911070
vt 0.175477 0.642854
vt 0.184079 0.664800
vt 0.435257 0.905025
vt 0.426655 0.926971
vt 0.426655 0.614862
vt 0.435257 0.636809
vt 0.809921 0.848051
vt 0.801318 0.869998
vt 0.801318 0.513996
vt 0.809921 0.535942
vt 0.279680 0.891944
vt 0.271078 0.913891
vt 0.271078 0.513996
vt 0.279680 0.535942
vt 0.547292 0.661630
vt 0.462616 0.661630
vt 0.483725 0.000000
vt 0.526183 0.000000
vt 0.166875 -0.000000
vt 0.214672 0.161619
vt 0.318885 0.000000
vt 0.271087 0.161619
vt 0.434047 0.502608
vt 0.405759 0.502608
vt 0.400849 0.486004
vt 0.631967 0.661630
vt 0.568401 0.000000
vt 0.610859 0.000000
vt 0.716643 0.661630
vt 0.653076 0.000000
vt 0.695534 0.000000
vt 0.801319 0.661630
vt 0.737752 0.000000
vt 0.780210 0.000000
vt 0.192449 0.642854
vt 0.192449 0.771712
vt 0.184079 0.771712
vt 0.184079 0.642854
vt 0.405759 0.598258
vt 0.400849 0.614862
vt 0.434047 0.598258
vt 0.438957 0.614862
vt 0.204984 0.513996
vt 0.204984 0.642854
vt 0.198119 0.619641
vt 0.198119 0.537208
vt 0.200819 0.642854
vt 0.200819 0.771712
vt 0.470986 0.661630
vt 0.470986 0.790488
vt 0.462616 0.790488
vt 0.462616 0.661630
vt 0.479356 0.661630
vt 0.479356 0.790488
vt 0.438733 0.614862
vt 0.438733 0.697295
vt 0.435257 0.697295
vt 0.435257 0.614862
vt 0.166875 0.513996
vt 0.173740 0.537208
vt 0.166875 0.642854
vt 0.173740 0.619641
vt 0.233697 0.528651
vt 0.209318 0.528651
vt 0.238031 0.513996
vt 0.317563 0.625739
vt 0.317563 0.708172
vt 0.314088 0.708172
vt 0.314088 0.625739
vt 0.204295 0.642854
vt 0.204295 0.725287
vt 0.200819 0.725287
vt 0.200819 0.642854
vt 0.482832 0.661630
vt 0.482832 0.744063
vt 0.479356 0.744063
vt 0.460456 0.486004
vt 0.460456 0.597747
vt 0.456162 0.597747
vt 0.456162 0.486004
vt 0.209318 0.611084
vt 0.233697 0.611084
vt 0.238031 0.625739
vt 0.271078 0.625739
vt 0.247998 0.592035
vt 0.261110 0.592035
vt 0.318382 0.513996
vt 0.318382 0.625739
vt 0.314088 0.625739
vt 0.314088 0.513996
vt 0.460456 0.709490
vt 0.456162 0.709490
vt 0.456162 0.597747
vt 0.268759 0.625739
vt 0.268759 0.737482
vt 0.264465 0.737482
vt 0.264465 0.625739
vt 0.247998 0.547699
vt 0.271078 0.513996
vt 0.261110 0.547699
s 0
usemtl Material
f 5/1/1 7/2/1 10/3/1 12/4/1
f 47/5/2 3/6/2 7/7/2 52/8/2
f 52/8/3 7/7/3 5/9/3 41/10/3
f 6/11/4 2/12/4 4/13/4 8/14/4
f 42/15/5 1/16/5 3/6/5 47/5/5
f 41/10/6 5/9/6 1/16/6 42/15/6
f 12/17/7 10/18/7 54/19/7 56/20/7
f 3/21/8 1/22/8 11/23/8 9/24/8
f 1/25/9 5/26/9 12/27/9 11/28/9
f 7/29/10 3/30/10 9/31/10 10/32/10
f 6/33/11 33/34/11 34/35/11 2/36/11
f 32/37/12 31/38/12 16/39/12 17/40/12
f 35/41/12 30/42/12 15/43/12 36/44/12
f 37/45/12 29/46/12 14/47/12 38/48/12
f 39/49/12 28/50/12 13/51/12 40/52/12
f 2/53/13 34/54/13 43/55/13 4/56/13
f 17/57/14 16/58/14 26/59/14 27/60/14
f 36/61/14 15/62/14 25/63/14 44/64/14
f 38/65/14 14/66/14 24/67/14 45/68/14
f 40/69/14 13/70/14 23/71/14 46/72/14
f 8/73/15 48/74/15 33/75/15 6/76/15
f 18/77/16 49/78/16 31/79/16 32/80/16
f 19/81/16 50/82/16 30/83/16 35/84/16
f 20/85/16 51/86/16 29/87/16 37/88/16
f 21/89/16 22/90/16 28/91/16 39/92/16
f 4/93/17 43/94/17 48/95/17 8/96/17
f 27/97/18 26/98/18 49/99/18 18/100/18
f 44/101/18 25/102/18 50/103/18 19/104/18
f 45/105/18 24/106/18 51/107/18 20/108/18
f 46/109/18 23/110/18 22/111/18 21/112/18
f 53/113/19 55/114/19 59/115/19 57/116/19
f 10/18/7 9/117/7 53/118/7 54/19/7
f 11/119/7 12/17/7 56/20/7 55/120/7
f 9/117/7 11/119/7 55/120/7 53/118/7
f 60/121/20 58/122/20 62/123/20 64/51/20
f 56/124/21 54/113/21 58/125/21 60/126/21
f 54/127/22 53/124/22 57/128/22 58/129/22
f 55/130/23 56/127/23 60/131/23 59/132/23
f 63/133/24 64/134/24 68/135/24 67/136/24
f 58/122/25 57/137/25 61/138/25 62/123/25
f 59/139/26 60/121/26 64/51/26 63/140/26
f 57/137/27 59/139/27 63/140/27 61/138/27
f 67/141/7 68/142/7 72/143/7 71/144/7
f 61/145/28 63/146/28 67/134/28 65/133/28
f 64/147/29 62/148/29 66/149/29 68/150/29
f 62/151/30 61/152/30 65/148/30 66/147/30
f 72/153/29 70/154/29 74/155/29 76/156/29
f 65/157/7 67/141/7 71/144/7 69/158/7
f 68/142/7 66/159/7 70/160/7 72/143/7
f 66/159/7 65/157/7 69/158/7 70/160/7
f 76/161/4 74/162/4 78/141/4 80/163/4
f 70/164/30 69/165/30 73/166/30 74/167/30
f 71/168/24 72/169/24 76/170/24 75/171/24
f 69/172/28 71/173/28 75/174/28 73/151/28
f 77/175/28 79/176/28 83/177/28 81/178/28
f 74/162/4 73/179/4 77/75/4 78/141/4
f 75/180/4 76/161/4 80/163/4 79/181/4
f 73/179/4 75/180/4 79/181/4 77/75/4
f 84/182/7 82/181/7 86/183/7 88/184/7
f 80/185/29 78/186/29 82/187/29 84/188/29
f 78/176/30 77/189/30 81/190/30 82/191/30
f 79/192/24 80/193/24 84/194/24 83/195/24
f 82/181/7 81/163/7 85/196/7 86/183/7
f 83/197/7 84/182/7 88/184/7 87/198/7
f 81/163/7 83/197/7 87/198/7 85/196/7
o Cube.001
v 0.349078 11.857037 0.349078
v -0.349077 11.857038 0.349077
v 0.349078 11.857037 -0.349078
v -0.349078 11.857037 -0.349078
v 0.175574 11.857035 0.351147
v -0.000062 11.857029 0.250760
v -0.175573 11.857035 0.351147
v -0.175574 11.857036 -0.351147
v -0.000062 11.857029 -0.250636
v 0.175574 11.857035 -0.351147
v 0.351147 11.857035 -0.175574
v 0.250636 11.857029 0.000062
v 0.351147 11.857036 0.175574
v -0.351147 11.857035 0.175573
v -0.250760 11.857029 0.000062
v -0.351147 11.857036 -0.175574
v -0.160617 11.549504 0.321234
v -0.321234 11.549504 0.321234
v 0.321234 11.549504 0.160617
v 0.321234 11.549504 0.321234
v -0.321234 11.549504 -0.160617
v -0.321234 11.549504 -0.321234
v 0.160617 11.549504 -0.321234
v 0.321234 11.549504 -0.321234
v 0.160617 11.549504 0.321234
v 0.000000 11.549504 0.321234
v -0.160617 11.549504 -0.321234
v 0.000000 11.549504 -0.321234
v 0.160617 11.549504 0.160617
v 0.000000 11.549504 0.160617
v -0.160617 11.549504 0.160617
v 0.321234 11.549504 -0.160617
v 0.321234 11.549504 0.000000
v -0.321234 11.549504 0.160617
v -0.321234 11.549504 0.000000
v 0.160617 11.549504 -0.160617
v 0.160617 11.549504 0.000000
v 0.000000 11.549504 -0.160617
v 0.000000 11.549504 0.000000
v -0.160617 11.549504 -0.160617
v -0.160617 11.549504 0.000000
v 0.015129 13.680225 -0.004252
v 0.019816 13.680225 0.000892
v -0.004075 13.680225 -0.014997
v 0.001069 13.680225 -0.019684
v 0.004384 13.680225 0.014953
v -0.000760 13.680225 0.019640
v -0.014821 13.680225 0.004208
v -0.019507 13.680225 -0.000936
v 0.005755 13.680225 -0.014540
v 0.010442 13.680225 -0.009396
v -0.005447 13.680225 0.014496
v -0.010134 13.680225 0.009352
v 0.000707 13.680225 -0.013805
v 0.007276 13.680225 -0.006595
v 0.009985 13.680225 0.000435
v -0.014363 13.680225 -0.005623
v -0.009219 13.680225 -0.010310
v 0.014672 13.680225 0.005579
v 0.009528 13.680225 0.010266
v -0.013712 13.680225 -0.000666
v -0.006502 13.680225 -0.007235
v -0.007143 13.680225 0.006543
v 0.000067 13.680225 -0.000026
v -0.000574 13.680225 0.013753
v 0.006636 13.680225 0.007184
v 0.267346 12.055558 -0.018855
v 0.243646 12.323680 -0.122005
v 0.080051 12.663323 -0.229044
v -0.082952 13.047288 -0.159177
v -0.075166 13.339873 -0.082687
v -0.039854 13.516505 -0.043932
v -0.170278 12.055640 0.383418
v -0.031925 12.323776 0.425705
v 0.234343 12.663323 0.299546
v 0.280579 13.039273 0.020652
v 0.169669 13.334892 -0.043227
v 0.089589 13.515696 -0.025312
v 0.366281 12.055640 -0.204553
v 0.281013 12.323776 -0.321359
v -0.007617 12.663323 -0.380203
v -0.211915 13.039259 -0.184893
v -0.161530 13.334881 -0.067240
v -0.086724 13.515692 -0.033510
v 0.018868 12.055558 0.267470
v 0.122085 12.323680 0.243751
v 0.229214 12.663323 0.080055
v 0.159336 13.047288 -0.083091
v 0.082820 13.339873 -0.075342
v 0.044064 13.516505 -0.040030
v 0.204562 12.055640 0.366277
v 0.321396 12.323776 0.280990
v 0.380252 12.663323 -0.007684
v 0.184923 13.039268 -0.212010
v 0.067277 13.334888 -0.161624
v 0.033551 13.515695 -0.086816
v 0.365622 12.055859 -0.381793
v 0.250990 12.324054 -0.477346
v -0.098333 12.663323 -0.470856
v -0.307922 13.030979 -0.177257
v -0.219730 13.333123 -0.028357
v -0.117523 13.514312 -0.005493
v -0.267457 12.055558 0.018992
v -0.243671 12.323680 0.122190
v -0.079885 12.663323 0.229218
v 0.083250 13.047288 0.159197
v 0.075474 13.339873 0.082644
v 0.040162 13.516505 0.043888
v 0.025353 13.515695 0.089497
v 0.043258 13.334889 0.169581
v -0.020624 13.039272 0.280501
v -0.299511 12.663326 0.234293
v -0.425683 12.323777 -0.031946
v -0.383413 12.055641 -0.170283
v -0.381799 12.055859 -0.365614
v -0.477361 12.324054 -0.250940
v -0.470819 12.663323 0.098439
v -0.177139 13.030988 0.308003
v -0.028243 13.333131 0.219778
v -0.005401 13.514315 0.117564
v 0.170290 12.055640 -0.383411
v 0.031985 12.323776 -0.425686
v -0.234220 12.663323 -0.299560
v -0.280448 13.039259 -0.020726
v -0.169540 13.334881 0.043161
v -0.089456 13.515692 0.025261
v 0.117656 13.514318 0.005442
v 0.219867 13.333139 0.028279
v 0.308088 13.031000 0.177166
v 0.098496 12.663326 0.470858
v -0.250919 12.324056 0.477387
v -0.365610 12.055860 0.381803
v -0.366272 12.055640 0.204567
v -0.280956 12.323776 0.321403
v 0.007760 12.663323 0.380220
v 0.212077 13.039273 0.184829
v 0.161670 13.334892 0.067175
v 0.086857 13.515696 0.033459
v -0.025220 13.515693 -0.089549
v -0.043129 13.334886 -0.169629
v 0.020756 13.039267 -0.280526
v 0.299598 12.663326 -0.234267
v 0.425708 12.323777 0.031970
v 0.383415 12.055641 0.170287
v 0.381798 12.055859 0.365617
v 0.477376 12.324054 0.250961
v 0.470892 12.663323 -0.098407
v 0.177266 13.030988 -0.308017
v 0.028376 13.333131 -0.219823
v 0.005534 13.514315 -0.117615
v -0.033418 13.515693 0.086764
v -0.067139 13.334886 0.161576
v -0.184795 13.039267 0.211985
v -0.380171 12.663326 0.007705
v -0.321371 12.323777 -0.280972
v -0.204561 12.055641 -0.366274
v -0.018982 12.055558 -0.267333
v -0.122115 12.323680 -0.243563
v -0.229050 12.663323 -0.079876
v -0.159038 13.047278 0.083112
v -0.082511 13.339863 0.075298
v -0.043756 13.516498 0.039986
vn -0.6879 0.1507 -0.7100
vn 0.7100 0.1507 -0.6879
vn -0.7100 0.1507 0.6879
vn 0.6879 0.1507 0.7100
vn 0.2031 0.0302 -0.9787
vn -0.0214 0.0059 -0.9998
vn -0.1987 0.0860 -0.9763
vn -0.2034 0.0301 0.9786
vn 0.0212 0.0057 0.9998
vn 0.1988 0.0860 0.9763
vn -0.9786 0.0302 -0.2033
vn -0.9998 0.0058 0.0214
vn -0.9762 0.0860 0.1989
vn 0.9787 0.0302 0.2032
vn 0.9998 0.0059 -0.0212
vn 0.9763 0.0860 -0.1986
vn -0.1022 0.7155 -0.6911
vn 0.5521 0.6248 -0.5521
vn -0.6911 0.7155 0.1023
vn -0.5521 0.6248 -0.5521
vn 0.6911 0.7155 -0.1021
vn 0.5521 0.6248 0.5521
vn 0.1022 0.7155 0.6911
vn -0.5521 0.6248 0.5521
vn 0.1021 0.7155 -0.6911
vn -0.0000 0.6974 -0.7167
vn -0.1023 0.7155 0.6911
vn -0.0000 0.6973 0.7168
vn -0.0000 1.0000 -0.0000
vn -0.6911 0.7155 -0.1022
vn -0.7168 0.6973 -0.0000
vn 0.6911 0.7155 0.1022
vn 0.7167 0.6974 -0.0000
vn -0.3132 -0.8192 0.4804
vn -0.6375 -0.7699 -0.0296
vn 0.4806 -0.8194 0.3125
vn -0.0299 -0.7700 0.6374
vn -0.4803 -0.8192 -0.3135
vn 0.0294 -0.7700 -0.6374
vn 0.3128 -0.8193 -0.4805
vn 0.6373 -0.7700 0.0296
vn -0.5073 -0.8192 0.2676
vn -0.4197 -0.8230 0.3828
vn 0.5076 -0.8193 -0.2666
vn 0.4199 -0.8232 -0.3822
vn -0.0001 -1.0000 -0.0000
vn -0.0000 -1.0000 -0.0000
vn 0.0001 -1.0000 -0.0000
vn 0.2668 -0.8193 0.5075
vn 0.3825 -0.8232 0.4195
vn -0.2672 -0.8192 -0.5074
vn -0.3824 -0.8230 -0.4201
vn -0.9873 0.0770 0.1391
vn -0.8969 -0.0437 0.4400
vn -0.4587 -0.2265 0.8592
vn 0.1654 -0.2742 0.9473
vn 0.5371 -0.2672 0.8001
vn 0.6376 -0.2845 0.7159
vn -0.2893 0.2374 -0.9273
vn -0.5491 0.3238 -0.7705
vn -0.9204 0.2360 -0.3116
vn -0.9332 -0.0097 0.3592
vn -0.6714 -0.2339 0.7032
vn -0.5445 -0.3259 0.7729
vn -0.9718 -0.1331 -0.1944
vn -0.8878 -0.4547 0.0710
vn -0.6152 -0.6121 0.4968
vn -0.1324 -0.5181 0.8450
vn 0.2723 -0.3686 0.8888
vn 0.4258 -0.3322 0.8416
vn -0.1392 0.0770 -0.9873
vn -0.4401 -0.0437 -0.8969
vn -0.8593 -0.2265 -0.4586
vn -0.9473 -0.2743 0.1655
vn -0.8000 -0.2674 0.5371
vn -0.7159 -0.2845 0.6376
vn 0.1941 -0.1331 -0.9719
vn -0.0713 -0.4547 -0.8878
vn -0.4971 -0.6122 -0.6150
vn -0.8451 -0.5182 -0.1319
vn -0.8886 -0.3687 0.2729
vn -0.8412 -0.3321 0.4266
vn -0.7421 0.0258 0.6698
vn -0.4706 -0.1811 0.8636
vn 0.1824 -0.2578 0.9488
vn 0.7521 -0.3343 0.5679
vn 0.8734 -0.4449 0.1982
vn 0.8623 -0.5018 0.0677
vn 0.9873 0.0769 -0.1389
vn 0.8970 -0.0441 -0.4399
vn 0.4588 -0.2269 -0.8591
vn -0.1651 -0.2745 -0.9473
vn -0.5365 -0.2674 -0.8004
vn -0.6369 -0.2845 -0.7165
vn -0.7726 -0.3260 -0.5449
vn -0.7030 -0.2340 -0.6716
vn -0.3591 -0.0099 -0.9333
vn 0.3117 0.2358 -0.9204
vn 0.7706 0.3236 -0.5490
vn 0.9274 0.2373 -0.2892
vn 0.6699 0.0257 0.7420
vn 0.8636 -0.1811 0.4705
vn 0.9488 -0.2578 -0.1826
vn 0.5678 -0.3343 -0.7522
vn 0.1981 -0.4450 -0.8734
vn 0.0677 -0.5017 -0.8624
vn 0.2894 0.2373 0.9273
vn 0.5491 0.3237 0.7705
vn 0.9205 0.2359 0.3116
vn 0.9332 -0.0098 -0.3593
vn 0.6713 -0.2339 -0.7033
vn 0.5442 -0.3261 -0.7730
vn -0.8625 -0.5016 -0.0677
vn -0.8734 -0.4449 -0.1980
vn -0.7523 -0.3342 -0.5678
vn -0.1826 -0.2578 -0.9488
vn 0.4705 -0.1811 -0.8636
vn 0.7420 0.0257 -0.6699
vn 0.9719 -0.1332 0.1943
vn 0.8877 -0.4548 -0.0712
vn 0.6150 -0.6123 -0.4969
vn 0.1321 -0.5182 -0.8450
vn -0.2726 -0.3687 -0.8887
vn -0.4262 -0.3320 -0.8415
vn 0.7733 -0.3260 0.5437
vn 0.7036 -0.2338 0.6711
vn 0.3595 -0.0096 0.9331
vn -0.3114 0.2361 0.9205
vn -0.7704 0.3238 0.5492
vn -0.9273 0.2374 0.2895
vn -0.6698 0.0258 -0.7421
vn -0.8636 -0.1810 -0.4705
vn -0.9488 -0.2577 0.1825
vn -0.5678 -0.3342 0.7522
vn -0.1981 -0.4449 0.8734
vn -0.0676 -0.5017 0.8624
vn 0.8419 -0.3321 -0.4253
vn 0.8889 -0.3686 -0.2720
vn 0.8449 -0.5182 0.1325
vn 0.4967 -0.6123 0.6151
vn 0.0709 -0.4548 0.8877
vn -0.1945 -0.1333 0.9718
vn 0.1389 0.0768 0.9873
vn 0.4398 -0.0441 0.8970
vn 0.8590 -0.2269 0.4589
vn 0.9474 -0.2744 -0.1650
vn 0.8005 -0.2673 -0.5365
vn 0.7165 -0.2845 -0.6369
vt 0.625000 0.625000
vt 0.625000 0.687500
vt 0.812500 0.750000
vt 0.875000 0.750000
vt 0.875000 0.500000
vt 0.812500 0.500000
vt 0.625000 0.562500
vt 0.750000 0.750000
vt 0.625000 0.500000
vt 0.687500 0.750000
vt 0.625000 0.750000
vt 0.875000 0.625000
vt 0.875000 0.562500
vt 0.687500 0.500000
vt 0.875000 0.687500
vt 0.750000 0.500000
vt 0.812500 0.687500
vt 0.687500 0.687500
vt 0.750000 0.687500
vt 0.812500 0.562500
vt 0.750000 0.562500
vt 0.812500 0.625000
vt 0.750000 0.625000
vt 0.687500 0.562500
vt 0.687500 0.625000
vt 0.812500 0.500000
vt 0.625000 0.687500
vt 0.875000 0.687500
vt 0.687500 0.500000
vt 0.687500 0.750000
vt 0.812500 0.750000
s 1
usemtl Api
f 160/199/88 227/200/155 132/200/66 146/199/80
f 166/201/94 215/202/143 131/202/65 130/201/64
f 208/203/136 239/204/167 140/204/74 135/203/69
f 172/205/100 160/199/88 146/199/80 145/205/79
f 178/206/106 166/201/94 130/201/64 139/206/73
f 190/207/118 172/205/100 145/205/79 137/207/71
f 184/208/112 178/206/106 139/206/73 138/208/72
f 238/209/166 184/208/112 138/208/72 133/209/67
f 196/210/124 197/211/125 134/211/68 148/210/82
f 214/212/142 190/207/118 137/207/71 136/212/70
f 226/213/154 196/210/124 148/210/82 147/213/81
f 197/211/125 208/203/136 135/203/69 134/211/68
f 250/214/178 214/212/142 136/212/70 141/214/75
f 215/202/143 226/213/154 147/213/81 131/202/65
f 227/200/155 238/209/166 133/209/67 132/200/66
f 239/204/167 250/214/178 141/214/75 140/204/74
f 119/215/59 122/213/62 106/202/48 105/201/47
f 107/200/49 117/216/59 113/208/55 108/209/50
f 117/216/59 118/217/59 114/206/56 113/208/55
f 118/217/59 119/215/59 105/201/47 114/206/56
f 116/214/58 115/204/57 128/218/59 126/219/59
f 126/219/59 128/218/59 129/220/59 127/221/59
f 127/221/59 129/220/59 119/215/59 118/217/59
f 111/212/53 116/214/58 126/219/59 124/222/59
f 124/222/59 126/219/59 127/221/59 125/223/59
f 125/223/59 127/221/59 118/217/59 117/216/59
f 112/207/54 111/212/53 124/222/59 120/205/60
f 120/205/60 124/222/59 125/223/59 121/199/61
f 121/199/61 125/223/59 117/216/59 107/200/49
f 115/204/57 110/203/52 109/211/51 128/218/59
f 128/218/59 109/211/51 123/210/63 129/220/59
f 129/220/59 123/210/63 122/213/62 119/215/59
f 91/207/33 98/212/40 111/212/53 112/207/54
f 104/211/46 103/210/45 123/210/63 109/211/51
f 93/208/35 89/209/31 108/209/50 113/208/55
f 94/206/36 93/208/35 113/208/55 114/206/56
f 99/205/41 91/207/33 112/207/54 120/205/60
f 95/201/37 94/206/36 114/206/56 105/201/47
f 100/199/42 99/205/41 120/205/60 121/199/61
f 96/204/38 92/203/34 110/203/52 115/204/57
f 90/202/32 95/201/37 105/201/47 106/202/48
f 101/200/43 100/199/42 121/199/61 107/200/49
f 97/214/39 96/204/38 115/204/57 116/214/58
f 89/209/31 101/200/43 107/200/49 108/209/50
f 102/213/44 90/202/32 106/202/48 122/213/62
f 98/212/40 97/214/39 116/214/58 111/212/53
f 92/203/34 104/211/46 109/211/51 110/203/52
f 103/210/45 102/213/44 122/213/62 123/210/63
f 144/215/78 130/201/64 131/202/65 147/213/81
f 132/200/66 133/209/67 138/208/72 142/216/76
f 142/216/76 138/208/72 139/206/73 143/217/77
f 143/217/77 139/206/73 130/201/64 144/215/78
f 141/214/75 151/219/77 153/218/77 140/204/74
f 151/219/77 152/221/77 154/220/77 153/218/77
f 152/221/77 143/217/77 144/215/78 154/220/77
f 136/212/70 149/222/78 151/219/77 141/214/75
f 149/222/78 150/223/77 152/221/77 151/219/77
f 150/223/77 142/216/76 143/217/77 152/221/77
f 137/207/71 145/205/79 149/222/78 136/212/70
f 145/205/79 146/199/80 150/223/77 149/222/78
f 146/199/80 132/200/66 142/216/76 150/223/77
f 140/204/74 153/218/77 134/211/68 135/203/69
f 153/218/77 154/220/77 148/210/82 134/211/68
f 154/220/77 144/215/78 147/213/81 148/210/82
f 96/204/38 97/214/39 245/214/173 244/204/172
f 244/204/172 245/214/173 246/214/174 243/204/171
f 243/204/171 246/214/174 247/214/175 242/224/170
f 242/224/170 247/214/175 248/214/176 241/224/169
f 241/224/169 248/214/176 249/214/177 240/204/168
f 240/204/168 249/214/177 250/214/178 239/204/167
f 101/200/43 89/209/31 233/209/161 232/200/160
f 232/200/160 233/209/161 234/209/162 231/225/159
f 231/225/159 234/209/162 235/209/163 230/225/158
f 230/225/158 235/209/163 236/209/164 229/225/157
f 229/225/157 236/209/164 237/209/165 228/225/156
f 228/225/156 237/209/165 238/209/166 227/200/155
f 90/202/32 102/213/44 221/213/149 220/202/148
f 220/202/148 221/213/149 222/226/150 219/202/147
f 219/202/147 222/226/150 223/226/151 218/202/146
f 218/202/146 223/226/151 224/226/152 217/202/145
f 217/202/145 224/226/152 225/226/153 216/202/144
f 216/202/144 225/226/153 226/213/154 215/202/143
f 97/214/39 98/212/40 209/212/137 245/214/173
f 245/214/173 209/212/137 210/227/138 246/214/174
f 246/214/174 210/227/138 211/227/139 247/214/175
f 247/214/175 211/227/139 212/227/140 248/214/176
f 248/214/176 212/227/140 213/227/141 249/214/177
f 249/214/177 213/227/141 214/212/142 250/214/178
f 104/211/46 92/203/34 203/203/131 202/211/130
f 202/211/130 203/203/131 204/203/132 201/211/129
f 201/211/129 204/203/132 205/203/133 200/211/128
f 200/211/128 205/203/133 206/203/134 199/211/127
f 199/211/127 206/203/134 207/203/135 198/211/126
f 198/211/126 207/203/135 208/203/136 197/211/125
f 102/213/44 103/210/45 191/210/119 221/213/149
f 221/213/149 191/210/119 192/210/120 222/226/150
f 222/226/150 192/210/120 193/210/121 223/226/151
f 223/226/151 193/210/121 194/210/122 224/226/152
f 224/226/152 194/210/122 195/210/123 225/226/153
f 225/226/153 195/210/123 196/210/124 226/213/154
f 98/212/40 91/207/33 185/207/113 209/212/137
f 209/212/137 185/207/113 186/207/114 210/227/138
f 210/227/138 186/207/114 187/207/115 211/227/139
f 211/227/139 187/207/115 188/207/116 212/227/140
f 212/227/140 188/207/116 189/207/117 213/227/141
f 213/227/141 189/207/117 190/207/118 214/212/142
f 103/210/45 104/211/46 202/211/130 191/210/119
f 191/210/119 202/211/130 201/211/129 192/210/120
f 192/210/120 201/211/129 200/211/128 193/210/121
f 193/210/121 200/211/128 199/211/127 194/210/122
f 194/210/122 199/211/127 198/211/126 195/210/123
f 195/210/123 198/211/126 197/211/125 196/210/124
f 89/209/31 93/208/35 179/208/107 233/209/161
f 233/209/161 179/208/107 180/228/108 234/209/162
f 234/209/162 180/228/108 181/228/109 235/209/163
f 235/209/163 181/228/109 182/228/110 236/209/164
f 236/209/164 182/228/110 183/228/111 237/209/165
f 237/209/165 183/228/111 184/208/112 238/209/166
f 93/208/35 94/206/36 173/206/101 179/208/107
f 179/208/107 173/206/101 174/206/102 180/228/108
f 180/228/108 174/206/102 175/206/103 181/228/109
f 181/228/109 175/206/103 176/206/104 182/228/110
f 182/228/110 176/206/104 177/206/105 183/228/111
f 183/228/111 177/206/105 178/206/106 184/208/112
f 91/207/33 99/205/41 167/205/95 185/207/113
f 185/207/113 167/205/95 168/205/96 186/207/114
f 186/207/114 168/205/96 169/205/97 187/207/115
f 187/207/115 169/205/97 170/205/98 188/207/116
f 188/207/116 170/205/98 171/205/99 189/207/117
f 189/207/117 171/205/99 172/205/100 190/207/118
f 94/206/36 95/201/37 161/201/89 173/206/101
f 173/206/101 161/201/89 162/201/90 174/206/102
f 174/206/102 162/201/90 163/229/91 175/206/103
f 175/206/103 163/229/91 164/229/92 176/206/104
f 176/206/104 164/229/92 165/201/93 177/206/105
f 177/206/105 165/201/93 166/201/94 178/206/106
f 99/205/41 100/199/42 155/199/83 167/205/95
f 167/205/95 155/199/83 156/199/84 168/205/96
f 168/205/96 156/199/84 157/199/85 169/205/97
f 169/205/97 157/199/85 158/199/86 170/205/98
f 170/205/98 158/199/86 159/199/87 171/205/99
f 171/205/99 159/199/87 160/199/88 172/205/100
f 92/203/34 96/204/38 244/204/172 203/203/131
f 203/203/131 244/204/172 243/204/171 204/203/132
f 204/203/132 243/204/171 242/224/170 205/203/133
f 205/203/133 242/224/170 241/224/169 206/203/134
f 206/203/134 241/224/169 240/204/168 207/203/135
f 207/203/135 240/204/168 239/204/167 208/203/136
f 95/201/37 90/202/32 220/202/148 161/201/89
f 161/201/89 220/202/148 219/202/147 162/201/90
f 162/201/90 219/202/147 218/202/146 163/229/91
f 163/229/91 218/202/146 217/202/145 164/229/92
f 164/229/92 217/202/145 216/202/144 165/201/93
f 165/201/93 216/202/144 215/202/143 166/201/94
f 100/199/42 101/200/43 232/200/160 155/199/83
f 155/199/83 232/200/160 231/225/159 156/199/84
f 156/199/84 231/225/159 230/225/158 157/199/85
f 157/199/85 230/225/158 229/225/157 158/199/86
f 158/199/86 229/225/157 228/225/156 159/199/87
f 159/199/87 228/225/156 227/200/155 160/199/88
