# This file uses centimeters as units for non-parametric coordinates.

mtllib House01_geo.mtl
g default
v 23.927961 0.497271 -209.218857
v 239.143158 0.497271 -209.218857
v 239.143158 0.497271 0.000000
v 0.000146 0.497271 0.000000
v 0.000146 478.304688 -239.107269
v 0.000146 11.955363 -239.107315
v 0.000146 11.955363 -209.218857
v 0.000146 471.634979 -209.218857
v 239.143158 0.497271 -272.957428
v 239.143158 11.955363 -209.218857
v 239.143158 11.955363 0.000000
v 0.000146 11.955363 0.000000
v -269.031433 429.430664 62.247395
v -269.031433 511.786377 -306.807495
v -269.031433 493.412201 -306.807495
v -269.031433 411.928009 58.341885
v 239.143158 0.497271 -642.899658
v 239.143158 418.435730 -642.899658
v 239.143158 471.634979 -209.218857
v 269.031555 411.928009 58.341866
v 269.031555 493.412201 -306.807495
v 269.031555 411.928009 -672.070801
v 269.031555 429.430664 -675.974121
v 269.031555 511.786377 -306.807495
v 269.031555 429.430664 62.247395
v -238.468658 477.295746 -239.297028
v 239.143158 493.412201 -306.807495
v -269.031433 429.430664 -675.974121
v -239.143021 493.412201 -306.807495
v -239.143021 0.000000 -0.000000
v -239.143021 11.458093 -0.000000
v -239.143021 11.458093 -239.107315
v -269.031433 411.928009 -672.070801
v -239.143021 11.458093 -209.218857
v -239.143021 0.000000 -209.218857
v 27.215101 418.436584 -642.899658
v -239.143021 0.000000 -239.107315
v 27.215687 0.497271 -642.899658
v -239.143051 418.437714 -642.899658
v -239.143021 0.000000 -642.899658
v -239.143021 0.000000 -306.807556
v -269.031433 490.009186 -209.218781
v 269.031555 490.009186 -209.218781
v 269.031555 471.550140 -208.838699
v -269.031403 471.550140 -208.838699
v 27.215668 411.928009 -672.070801
v 27.215668 490.009155 -209.218781
v 27.215668 411.928009 58.341873
v -217.359116 411.928009 -672.070801
v -217.359116 490.009186 -209.218781
v -217.359116 411.928009 58.341885
v 239.143127 411.928009 58.341866
v 222.018890 429.430664 62.247391
v 222.018890 511.786377 -306.807495
v 222.018890 429.430664 -675.974121
v 239.143127 411.928009 -672.070801
v 0.000146 215.196564 -239.107300
v 239.143158 238.357910 -272.957458
v 239.143158 209.218872 -209.218857
v 0.000146 209.218872 -209.218857
v 0.000146 53.687222 -209.218857
v 239.143143 65.578972 -209.218857
v 239.143143 65.578972 -272.957428
v 239.143143 65.578972 -642.899658
v -239.143021 65.578972 -642.899658
v -239.142990 65.578964 -306.807556
v 0.000146 53.687225 -239.107300
v 23.927961 0.497271 -272.957428
v 27.215609 65.578972 -642.899658
v 27.215668 429.430664 -675.974121
v 27.215670 511.786377 -306.807495
v 27.215668 429.430664 62.247391
v 47.855778 471.634979 -209.218857
v 47.855778 178.620911 -209.218857
v 47.855778 53.687225 -209.218857
v 47.855778 11.955363 -209.218857
v 47.855778 11.955363 0.000000
v 47.855778 0.497271 0.000000
v 129.171783 11.955363 0.000000
v 121.251358 11.955363 -209.218857
v 121.251358 53.687225 -209.218857
v 121.251366 178.620911 -209.218857
v 121.251358 471.634979 -209.218857
v 129.171783 411.928009 58.341873
v 129.171783 490.009125 -209.218781
v 129.171783 411.928009 -672.070801
v 129.171783 418.436157 -642.899658
v 164.736603 0.497271 -642.899658
v 164.736603 0.497271 -209.218857
v 129.171783 0.497271 0.000000
v 137.092194 11.955363 -209.218857
v 137.092194 53.687225 -209.218857
v 137.092194 178.620911 -209.218857
v 137.092194 471.634979 -209.218857
v 129.171783 429.430664 62.247391
v 129.171783 511.786377 -306.807495
v 129.171783 429.430664 -675.974121
v 192.983536 11.955363 0.000000
v 192.983536 11.955363 -209.218857
v 192.983536 53.687225 -209.218857
v 192.983536 178.620911 -209.218857
v 207.619339 471.634979 -209.218857
v 204.894669 411.928009 58.341866
v 222.018890 490.009186 -209.218781
v 204.894669 411.928009 -672.070801
v 204.894669 418.435852 -642.899658
v -180.842728 478.304688 -239.107269
v -217.359116 429.430664 62.247395
v -217.359116 511.786377 -306.807495
v -217.359116 429.430664 -675.974121
v -195.575180 418.437500 -642.899658
v -195.575195 65.578972 -642.899658
v -195.575195 0.090594 -642.899658
v -180.842743 0.121229 -0.000000
v -180.842743 11.579321 -209.218857
v -180.842743 11.579321 -239.107315
v -180.842728 53.687214 -239.107300
v -180.842728 201.562042 -239.107300
v -117.030922 11.712011 -239.107330
v -117.030922 53.687218 -239.107300
v -124.951324 201.562042 -239.107300
v -117.030922 478.304688 -239.107269
v -85.125031 411.928040 58.341881
v -85.125031 490.009186 -209.218781
v -85.125031 411.928040 -672.070801
v -85.125031 0.320263 -642.899658
v -85.125031 0.320263 -209.218857
v -117.030922 0.253918 -0.000000
v -117.030922 11.712010 -209.218857
v -109.110519 201.562042 -239.107300
v -53.219135 11.844700 -209.218857
v -53.219135 11.844700 -239.107330
v -53.219135 53.687222 -239.107300
v -53.219143 201.562042 -239.107300
v -53.219131 478.304718 -239.107269
v -85.125031 429.430664 62.247395
v -85.125031 511.786377 -306.807495
v -85.125031 429.430664 -675.974121
v -85.125031 418.437073 -642.899658
v -85.125031 0.320263 -272.957458
v -53.219135 0.386607 -0.000000
v 129.171783 209.218872 -209.218857
v 47.855778 209.218872 -209.218857
v 0.000146 77.470718 -239.107300
v -53.219135 77.470718 -239.107300
v -109.110519 77.470718 -239.107300
v -124.951324 77.470718 -239.107300
v -180.842728 77.470718 -239.107300
v -239.143021 65.578964 -239.107300
v -85.125031 65.578972 -642.899658
v 167.033234 65.578972 -642.899658
v 192.983536 77.470718 -209.218857
v 137.092194 77.470718 -209.218857
v 121.251358 77.470718 -209.218857
v 47.855778 77.470718 -209.218857
v 0.000146 77.470718 -209.218857
v -239.143021 238.357910 -306.807556
v -239.143036 238.357864 -642.899658
v 27.215361 238.357849 -642.899658
v 239.143158 238.357849 -642.899658
v 167.033234 238.357849 -642.899658
v 239.143158 221.174240 -209.218857
v 137.092194 221.174240 -209.218857
v 121.251366 221.174240 -209.218857
v 47.855778 221.174255 -209.218857
v 0.000146 221.174240 -209.218857
v 0.000146 387.934814 -239.107269
v -53.219135 387.934814 -239.107269
v -109.110519 387.934814 -239.107300
v -124.951332 387.934814 -239.107269
v -180.842728 387.934814 -239.107269
v -239.143021 387.934814 -239.107269
v -239.143021 387.934937 -306.807495
v -239.143051 387.934448 -642.899658
v -85.125031 387.934448 -642.899658
v 27.215145 387.934418 -642.899658
v 167.033234 387.934387 -642.899658
v 239.143158 387.934418 -642.899658
v 239.143158 387.934875 -272.957397
v 239.143158 387.934784 -209.218857
v 192.983536 387.934784 -209.218857
v 137.092194 387.934814 -209.218857
v 121.251366 387.934784 -209.218857
v 47.855778 387.934784 -209.218857
v 0.000146 387.934784 -209.218857
v -53.219143 261.519287 -239.107285
v 0.000146 261.519287 -239.107285
v 0.000146 261.519287 -209.218857
v 47.855778 261.519226 -209.218857
v 121.251366 261.519287 -209.218857
v 137.092194 261.519287 -209.218857
v 192.983536 261.519287 -209.218857
v 239.143158 261.519287 -209.218857
v -85.125031 238.357849 -642.899658
v -239.143021 238.357941 -239.107300
v -180.842728 261.519287 -239.107285
v -124.951332 261.519287 -239.107285
v -109.110519 261.519287 -239.107300
v 117.237625 53.687225 -216.384354
v 117.237625 77.470718 -216.384354
v 51.869503 77.470718 -216.384354
v 51.869503 53.687225 -216.384354
v 117.237625 11.955428 -216.384354
v 51.869503 11.955428 -216.384354
v 117.237633 172.045456 -216.384354
v 51.869503 172.045456 -216.384354
v 186.408096 60.262676 -219.858902
v 186.408096 77.470718 -219.858902
v 143.667633 77.470718 -219.858902
v 143.667633 60.262676 -219.858902
v 186.408096 172.045456 -219.858902
v 143.667633 172.045456 -219.858902
v -131.526764 194.986603 -249.747345
v -174.267273 194.986603 -249.747345
v -174.267273 84.046173 -249.747345
v -131.526764 84.046173 -249.747345
v -59.794594 194.986603 -249.747345
v -102.535072 194.986603 -249.747345
v -102.535072 84.046173 -249.747345
v -59.794582 84.046173 -249.747345
v -59.794582 381.359375 -249.747314
v -102.535072 381.359375 -249.747345
v -102.535072 268.094727 -249.747345
v -59.794594 268.094727 -249.747330
v -131.526779 381.359375 -249.747314
v -174.267273 381.359375 -249.747314
v -174.267273 268.094727 -249.747330
v -131.526779 268.094727 -249.747330
v 186.408096 381.359344 -219.858902
v 143.667648 381.359375 -219.858902
v 143.667648 268.094727 -219.858902
v 186.408096 268.094727 -219.858902
v 117.237633 381.359344 -216.384354
v 51.869503 381.359344 -216.384354
v 51.869503 261.519226 -216.384354
v 117.237633 261.519287 -216.384354
v 51.869503 221.174286 -216.384354
v 117.237633 221.174271 -216.384354
v 239.143158 221.174240 -57.205315
v 239.143158 209.218872 -57.205315
v 129.171783 221.174240 -57.205315
v 129.171783 209.218872 -57.205315
v 47.855778 221.174255 -57.205315
v 47.855778 209.218872 -57.205315
v 0.000146 221.174240 -57.205315
v 0.000146 209.218872 -57.205315
v 129.171783 221.174225 -202.045639
v 200.301437 209.218872 -209.218857
v 231.969940 221.174225 -194.872421
v 231.969940 221.174240 -64.378540
v 129.171783 221.174225 -194.872421
v 129.171783 221.174240 -64.378540
v 47.855778 221.174240 -194.872421
v 47.855778 221.174255 -64.378540
v 7.173365 221.174225 -194.872421
v 7.173365 221.174240 -64.378540
v 129.171783 221.174240 -70.355484
v 47.855778 221.174255 -70.355484
v 200.301437 209.218872 -57.205315
v 13.151095 221.174225 -194.872421
v 13.151095 221.174255 -70.355484
v 225.992188 221.174240 -70.355484
v 225.992188 221.174225 -194.872421
v 231.969940 274.972992 -64.378540
v 225.992188 274.972992 -70.355484
v 129.171783 274.972992 -70.355484
v 129.171783 274.972992 -64.378540
v 47.855778 274.972992 -70.355484
v 47.855778 274.972992 -64.378540
v 13.151082 274.972992 -70.355484
v 7.173311 274.972992 -64.378540
v 13.151069 274.972992 -194.872421
v 7.173338 274.972992 -194.872421
v 231.969940 274.972992 -194.872421
v 225.992188 274.972992 -194.872421
v 239.143158 0.497271 -33.833748
v 239.143158 11.955363 -33.833748
v 192.983536 11.955363 -33.833748
v 137.092194 11.955363 -33.833748
v 121.251366 11.955363 -33.833748
v 47.855778 11.955363 -33.833748
v 0.000146 11.955363 -33.833748
v -239.143021 11.458093 -33.833748
v -239.143021 0.000000 -33.833748
v -85.125031 0.320263 -33.833748
v 23.927961 0.497271 -33.833748
v 164.736603 0.497271 -33.833748
v -217.359116 447.096436 -16.916826
v 27.215668 447.096405 -16.916828
v 239.143143 432.535065 -34.003181
v 207.619339 432.535065 -34.003181
v 129.171783 428.721222 -16.912525
v -85.125031 428.720886 -16.910641
v -180.842728 428.720337 -16.908522
v -239.143051 432.533691 -33.996811
v -269.031433 428.720093 -16.907230
v -269.031433 447.096436 -16.916824
v -85.125031 447.096436 -16.916824
v 129.171768 447.096405 -16.916826
v 222.018890 447.096405 -16.916826
v 269.031555 447.096436 -16.916828
v 269.031555 428.720093 -16.907232
v 239.143143 424.907379 0.178135
v 207.619339 424.907379 0.178135
v 27.215673 428.721222 -16.912523
v -239.143051 424.906494 0.182354
v -210.307632 478.304688 -239.107269
v -210.307632 387.934814 -239.107269
v -210.307632 261.519287 -239.107285
v -210.307632 215.196579 -239.107300
v -210.307632 65.578964 -239.107300
v -210.307632 11.518052 -239.107315
v -210.307632 11.518052 -209.218857
v -210.307632 11.518052 -33.833748
v -210.307632 11.518052 -0.000000
v -210.307632 0.059960 -0.000000
v -195.575195 0.090594 -33.833748
v -195.575195 0.090594 -209.218857
v -195.575195 0.090594 -272.957428
v -195.575195 238.357864 -642.899658
v -195.575195 387.934448 -642.899658
v -210.307632 424.906586 0.181845
v -210.307632 432.533875 -33.997581
v 207.619324 11.955363 0.000000
v 200.301437 0.497271 0.000000
v 164.736603 0.497271 -272.957428
v 200.301437 221.174240 -209.218857
v 200.301437 221.174225 -194.872421
v 200.301437 221.174240 -70.355484
v 200.301437 274.972992 -70.355484
v 200.301437 274.972992 -64.378540
v 200.301437 221.174240 -64.378540
v 200.301437 221.174240 -57.205315
v 207.619324 178.620911 -209.218857
v 207.619324 77.470718 -209.218857
v 207.619339 53.687225 -209.218857
v 207.619339 11.955363 -209.218857
v 207.619324 11.955363 -33.833748
v -210.307617 4.368981 -14.185704
v -180.830566 4.426753 -14.184335
v -180.830566 4.892198 -33.771210
v -210.307602 4.837905 -33.772491
v -117.018745 4.559405 -14.181190
v -117.018745 5.024851 -33.768063
v -53.206947 4.692058 -14.178044
v -53.206951 5.157503 -33.764915
v 0.000113 5.261177 -33.762459
v 0.000113 4.799211 -14.175503
vt 0.723015 0.368712
vt 0.719916 0.371465
vt 0.718778 0.357057
vt 0.722416 0.360384
vt 0.753265 0.370067
vt 0.753926 0.372782
vt 0.751640 0.373138
vt 0.750707 0.370643
vt 0.694834 0.350113
vt 0.742929 0.346598
vt 0.701202 0.350008
vt 0.723550 0.360275
vt 0.726953 0.360770
vt 0.727545 0.368240
vt 0.724123 0.368544
vt 0.872697 0.191195
vt 0.872837 0.249540
vt 0.873262 0.259493
vt 0.872697 0.180940
vt 0.718440 0.349516
vt 0.741567 0.449083
vt 0.745016 0.449079
vt 0.721486 0.349613
vt 0.749038 0.358698
vt 0.751366 0.358421
vt 0.752267 0.364882
vt 0.749864 0.365377
vt 0.903040 0.220770
vt 0.903038 0.218949
vt 0.913503 0.218982
vt 0.913508 0.220807
vt 0.927527 0.142656
vt 0.927765 0.297809
vt 0.927329 0.259467
vt 0.927639 0.180820
vt 0.903012 0.259330
vt 0.903042 0.249070
vt 0.913416 0.249130
vt 0.913257 0.259358
vt 0.927715 0.249543
vt 0.929551 0.249191
vt 0.903049 0.298014
vt 0.913468 0.297981
vt 0.701997 0.371990
vt 0.695436 0.372080
vt 0.694987 0.357726
vt 0.701375 0.357648
vt 0.725907 0.392780
vt 0.726180 0.396032
vt 0.724454 0.396159
vt 0.724335 0.392849
vt 0.755286 0.394366
vt 0.753728 0.391393
vt 0.756216 0.391333
vt 0.657540 0.372083
vt 0.657342 0.358059
vt 0.727972 0.392613
vt 0.728259 0.395628
vt 0.720762 0.394287
vt 0.902857 0.142706
vt 0.913262 0.142684
vt 0.872630 0.142782
vt 0.872718 0.297733
vt 0.749614 0.394579
vt 0.746475 0.394713
vt 0.746203 0.391680
vt 0.749326 0.391558
vt 0.762625 0.407289
vt 0.759177 0.407284
vt 0.720308 0.398626
vt 0.723173 0.398879
vt 0.702260 0.398749
vt 0.746819 0.397655
vt 0.749949 0.397512
vt 0.699198 0.398803
vt 0.692259 0.398876
vt 0.903047 0.229009
vt 0.913512 0.229061
vt 0.927856 0.229293
vt 0.927780 0.211188
vt 0.791979 0.351391
vt 0.913478 0.211128
vt 0.903020 0.211114
vt 0.905083 0.191052
vt 0.870848 0.229021
vt 0.872679 0.229383
vt 0.881704 0.187993
vt 0.881689 0.211218
vt 0.769013 0.450212
vt 0.878694 0.188004
vt 0.878003 0.297835
vt 0.877898 0.142768
vt 0.878466 0.259461
vt 0.878140 0.249284
vt 0.877958 0.229253
vt 0.872640 0.221052
vt 0.870805 0.221095
vt 0.877936 0.219130
vt 0.877936 0.220963
vt 0.741496 0.406214
vt 0.924628 0.191039
vt 0.923032 0.220898
vt 0.924777 0.219082
vt 0.927832 0.219114
vt 0.927850 0.220966
vt 0.923042 0.229190
vt 0.922899 0.249330
vt 0.922593 0.259423
vt 0.922956 0.297892
vt 0.924481 0.142662
vt 0.614769 0.361926
vt 0.614845 0.372330
vt 0.690867 0.299783
vt 0.614692 0.350698
vt 0.692340 0.449337
vt 0.875684 0.145822
vt 0.720496 0.406774
vt 0.712207 0.406774
vt 0.762754 0.363534
vt 0.761612 0.356001
vt 0.745130 0.359530
vt 0.745913 0.366020
vt 0.694754 0.343455
vt 0.748237 0.345311
vt 0.657232 0.350470
vt 0.650653 0.350499
vt 0.650887 0.372120
vt 0.650723 0.357860
vt 0.651108 0.399252
vt 0.657832 0.399165
vt 0.692257 0.405591
vt 0.699174 0.405579
vt 0.748173 0.374050
vt 0.745999 0.372218
vt 0.900190 0.191060
vt 0.707329 0.406774
vt 0.749889 0.366177
vt 0.752397 0.365667
vt 0.745445 0.366826
vt 0.727622 0.373111
vt 0.724573 0.372973
vt 0.723705 0.373649
vt 0.726834 0.359146
vt 0.744279 0.357274
vt 0.748507 0.356267
vt 0.748827 0.357860
vt 0.744500 0.358966
vt 0.751098 0.356151
vt 0.751266 0.357631
vt 0.761382 0.354422
vt 0.791810 0.349775
vt 0.721907 0.353232
vt 0.723077 0.353796
vt 0.726294 0.353438
vt 0.743543 0.351340
vt 0.747639 0.350450
vt 0.748881 0.351156
vt 0.750448 0.350799
vt 0.751002 0.354938
vt 0.749416 0.355148
vt 0.763614 0.347261
vt 0.760603 0.348345
vt 0.791260 0.342504
vt 0.738283 0.406220
vt 0.921268 0.219048
vt 0.920988 0.142669
vt 0.614715 0.354196
vt 0.748229 0.449076
vt 0.747478 0.348897
vt 0.743350 0.349820
vt 0.749935 0.348228
vt 0.731705 0.406774
vt 0.760417 0.346864
vt 0.796492 0.378745
vt 0.891496 0.211149
vt 0.891501 0.218984
vt 0.891504 0.220807
vt 0.891517 0.229050
vt 0.891626 0.249093
vt 0.891724 0.259311
vt 0.891566 0.298022
vt 0.891390 0.142733
vt 0.614925 0.383790
vt 0.614994 0.395062
vt 0.657801 0.394737
vt 0.651084 0.394807
vt 0.651003 0.383560
vt 0.657690 0.383512
vt 0.695682 0.383158
vt 0.695741 0.394394
vt 0.702332 0.394290
vt 0.702313 0.383075
vt 0.720552 0.382809
vt 0.724143 0.386079
vt 0.725671 0.386031
vt 0.727692 0.385958
vt 0.745689 0.385021
vt 0.748749 0.384966
vt 0.753052 0.384753
vt 0.755556 0.385301
vt 0.755403 0.383797
vt 0.725478 0.379308
vt 0.727527 0.379276
vt 0.745371 0.378181
vt 0.748295 0.378556
vt 0.752476 0.378278
vt 0.754756 0.377857
vt 0.795475 0.372100
vt 0.723949 0.379344
vt 0.725479 0.373741
vt 0.727572 0.373784
vt 0.900183 0.187942
vt 0.767357 0.375964
vt 0.767881 0.370465
vt 0.767021 0.381234
vt 0.756283 0.382602
vt 0.755917 0.378713
vt 0.766526 0.377210
vt 0.768435 0.383708
vt 0.768234 0.382131
vt 0.768008 0.388978
vt 0.757108 0.390144
vt 0.756737 0.386196
vt 0.767570 0.384940
vt 0.771012 0.392675
vt 0.769218 0.389894
vt 0.692281 0.423273
vt 0.773819 0.395306
vt 0.633423 0.399396
vt 0.633399 0.394948
vt 0.633326 0.383679
vt 0.633238 0.372222
vt 0.633121 0.357956
vt 0.694588 0.325799
vt 0.633068 0.350592
vt 0.759725 0.349532
vt 0.760169 0.353533
vt 0.760853 0.356838
vt 0.761740 0.363024
vt 0.731705 0.438982
vt 0.731705 0.422269
vt 0.731705 0.423487
vt 0.727746 0.423487
vt 0.727746 0.422269
vt 0.720496 0.423487
vt 0.720496 0.422269
vt 0.712207 0.423487
vt 0.712207 0.422269
vt 0.707329 0.423487
vt 0.707329 0.422269
vt 0.707329 0.438982
vt 0.785528 0.367860
vt 0.786337 0.373216
vt 0.773353 0.375067
vt 0.772547 0.369717
vt 0.785508 0.374452
vt 0.786034 0.378454
vt 0.775066 0.380021
vt 0.774563 0.375963
vt 0.787251 0.379338
vt 0.787496 0.380927
vt 0.774455 0.382864
vt 0.774228 0.381277
vt 0.786666 0.382171
vt 0.787198 0.386177
vt 0.776188 0.387810
vt 0.775670 0.383759
vt 0.788865 0.390012
vt 0.775787 0.392038
vt 0.775352 0.389069
vt 0.788420 0.387048
vt 0.789301 0.392926
vt 0.692314 0.438563
vt 0.618135 0.399494
vt 0.618110 0.395044
vt 0.618040 0.383772
vt 0.617960 0.372312
vt 0.617856 0.358043
vt 0.617807 0.350680
vt 0.694434 0.310520
vt 0.782469 0.339843
vt 0.769321 0.340914
vt 0.782819 0.344537
vt 0.769680 0.345596
vt 0.781913 0.345724
vt 0.782197 0.349762
vt 0.771103 0.350681
vt 0.770840 0.346576
vt 0.783363 0.350715
vt 0.783510 0.352317
vt 0.770335 0.353491
vt 0.770191 0.351891
vt 0.782720 0.353121
vt 0.783364 0.359431
vt 0.771267 0.361048
vt 0.770415 0.354333
vt 0.784348 0.360025
vt 0.785071 0.364849
vt 0.772094 0.366713
vt 0.771393 0.361888
vt 0.875818 0.188019
vt 0.712207 0.438982
vt 0.712616 0.439712
vt 0.766328 0.354738
vt 0.719688 0.438982
vt 0.721303 0.438982
vt 0.727746 0.438982
vt 0.750192 0.349596
vt 0.779594 0.420473
vt 0.780203 0.419864
vt 0.780203 0.423701
vt 0.779594 0.423701
vt 0.784482 0.430047
vt 0.780203 0.430951
vt 0.784482 0.438335
vt 0.779594 0.430951
vt 0.784482 0.441873
vt 0.780203 0.439240
vt 0.720496 0.438251
vt 0.789966 0.407486
vt 0.727746 0.437519
vt 0.727746 0.424218
vt 0.779594 0.439240
vt 0.720496 0.437519
vt 0.780203 0.442777
vt 0.712207 0.437519
vt 0.779594 0.443387
vt 0.779594 0.457297
vt 0.779594 0.456688
vt 0.779594 0.407172
vt 0.789966 0.420178
vt 0.789966 0.422797
vt 0.789966 0.430047
vt 0.789966 0.438335
vt 0.789966 0.441873
vt 0.779594 0.406563
vt 0.774110 0.423701
vt 0.774110 0.420473
vt 0.774110 0.430951
vt 0.784482 0.407486
vt 0.751678 0.449075
vt 0.744981 0.406987
vt 0.748194 0.406985
vt 0.765530 0.449433
vt 0.759106 0.450204
vt 0.762591 0.449431
vt 0.728380 0.396300
vt 0.725152 0.397162
vt 0.880128 0.145810
vt 0.657985 0.441803
vt 0.797969 0.388419
vt 0.797498 0.385397
vt 0.920995 0.145717
vt 0.924488 0.145710
vt 0.700855 0.301902
vt 0.921410 0.191040
vt 0.894747 0.187954
vt 0.794678 0.366665
vt 0.888224 0.187971
vt 0.891398 0.145781
vt 0.914205 0.191043
vt 0.913269 0.145732
vt 0.912586 0.191044
vt 0.792873 0.358876
vt 0.793563 0.363716
vt 0.902864 0.145754
vt 0.875745 0.180930
vt 0.798315 0.391295
vt 0.924590 0.180824
vt 0.878670 0.213033
vt 0.878677 0.209455
vt 0.875732 0.209476
vt 0.875722 0.213058
vt 0.924743 0.212972
vt 0.921521 0.212954
vt 0.924722 0.209386
vt 0.921501 0.209375
vt 0.872680 0.211287
vt 0.872649 0.219206
vt 0.929686 0.228924
vt 0.927677 0.191078
vt 0.921233 0.299738
vt 0.924738 0.299691
vt 0.891551 0.299850
vt 0.903052 0.299843
vt 0.877973 0.299663
vt 0.913484 0.299810
vt 0.929594 0.297766
vt 0.927795 0.299637
vt 0.871002 0.249196
vt 0.929148 0.259611
vt 0.871443 0.259634
vt 0.872684 0.299562
vt 0.870889 0.297683
vt 0.929686 0.221001
vt 0.769013 0.407299
vt 0.756238 0.407285
vt 0.756166 0.450199
vt 0.726108 0.351949
vt 0.738354 0.449089
vt 0.751678 0.406206
vt 0.722945 0.352242
vt 0.765565 0.407297
vt 0.723639 0.399780
vt 0.720276 0.399813
vt 0.725712 0.348749
vt 0.722130 0.348860
vt 0.727746 0.406774
vt 0.701122 0.328704
vt 0.765216 0.341274
vt 0.765508 0.345287
vt 0.719279 0.439712
vt 0.767173 0.361562
vt 0.766242 0.353866
vt 0.767280 0.362421
vt 0.767993 0.367359
vt 0.766084 0.352174
vt 0.764586 0.354751
vt 0.766751 0.367610
vt 0.765846 0.362984
vt 0.730364 0.424828
vt 0.730364 0.437519
vt 0.727746 0.424828
vt 0.730974 0.424218
vt 0.774110 0.439240
vt 0.708670 0.437519
vt 0.708670 0.424828
vt 0.708060 0.437519
vt 0.712207 0.424828
vt 0.720496 0.424828
vt 0.712207 0.424218
vt 0.708060 0.424218
vt 0.720496 0.424218
vt 0.730974 0.437519
vt 0.706111 0.406774
vt 0.706111 0.422269
vt 0.732923 0.406774
vt 0.732923 0.422269
vt 0.774110 0.443387
vt 0.774110 0.457297
vt 0.774110 0.456688
vt 0.774110 0.407172
vt 0.774110 0.406563
vt 0.784482 0.422797
vt 0.789966 0.454565
vt 0.784482 0.454565
vt 0.784482 0.420178
vt 0.780203 0.407172
vt 0.780203 0.456688
vt 0.780203 0.443996
vt 0.780203 0.421083
vt 0.718519 0.348334
vt 0.701202 0.348834
vt 0.657932 0.423427
vt 0.657976 0.438689
vt 0.656879 0.326195
vt 0.656701 0.310919
vt 0.701073 0.323362
vt 0.700944 0.310451
vt 0.791017 0.339283
vt 0.656666 0.307804
vt 0.615019 0.399511
vt 0.699229 0.438546
vt 0.699194 0.423260
vt 0.701111 0.327483
vt 0.701235 0.343375
vt 0.763217 0.343266
vt 0.657122 0.343831
vt 0.657869 0.405826
vt 0.755641 0.397273
vt 0.699186 0.399987
vt 0.702237 0.399920
vt 0.728734 0.399239
vt 0.699232 0.447674
vn 0.000000 -1.000000 0.000000
vn 0.000702 -1.000000 0.000027
vn 0.000000 -1.000000 0.000000
vn 0.000000 -1.000000 0.000000
vn -1.000000 0.000000 -0.000000
vn -1.000000 0.000000 -0.000000
vn -1.000000 0.000000 -0.000000
vn -1.000000 0.000000 -0.000000
vn 1.000000 0.000000 -0.000000
vn 1.000000 0.000000 -0.000000
vn 1.000000 0.000000 0.000000
vn 0.000000 1.000000 -0.000000
vn 0.000000 1.000000 -0.000000
vn 0.000000 1.000000 0.000000
vn 0.000000 1.000000 -0.000000
vn -1.000000 0.000000 -0.000000
vn -1.000000 0.000000 -0.000000
vn -1.000000 0.000000 -0.000000
vn -1.000000 0.000000 -0.000000
vn 0.000000 0.000000 1.000000
vn 0.000000 0.000000 1.000000
vn 0.000000 0.000000 1.000000
vn 0.000000 0.000000 1.000000
vn 1.000000 0.000000 0.000000
vn 1.000000 0.000000 0.000000
vn 1.000000 0.000000 0.000000
vn 1.000000 0.000000 0.000000
vn 0.000000 0.000000 1.000000
vn 0.000000 0.000000 1.000000
vn 0.000000 0.000000 1.000000
vn 0.000000 0.000000 1.000000
vn 0.000000 -0.217783 0.975997
vn 0.000000 -0.217783 0.975997
vn 0.000000 -0.217783 0.975997
vn 0.000000 -0.217783 0.975997
vn 1.000000 0.000000 0.000000
vn 1.000000 0.000000 0.000000
vn 1.000000 0.000000 0.000000
vn 1.000000 0.000000 0.000000
vn 0.000000 0.975994 0.217796
vn 0.000000 0.975994 0.217796
vn -0.000000 0.975994 0.217796
vn -0.000000 0.975994 0.217796
vn 1.000000 0.000000 0.000000
vn 1.000000 0.000000 0.000000
vn 1.000000 0.000000 0.000000
vn 1.000000 0.000000 0.000000
vn 0.000000 0.976008 -0.217733
vn 0.000000 0.976008 -0.217733
vn 0.000000 0.976008 -0.217733
vn 0.000000 0.976008 -0.217733
vn 0.000708 -1.000000 0.000000
vn 0.000712 -1.000000 0.000003
vn 0.000000 -1.000000 0.000000
vn 0.000000 -1.000000 0.000000
vn -0.001979 0.956872 0.290502
vn -0.001939 0.956858 0.290549
vn -0.001939 0.956858 0.290549
vn -0.001978 0.956872 0.290502
vn 0.000000 -0.000000 1.000000
vn -0.000000 -0.000000 1.000000
vn 0.000000 0.000000 1.000000
vn 0.000704 -1.000000 0.000003
vn 0.000000 -1.000000 0.000000
vn -0.002023 0.999715 0.023784
vn -0.002039 0.999326 0.036646
vn -0.001954 0.999327 0.036640
vn -0.001901 0.999714 0.023845
vn 0.002079 -0.999998 -0.000000
vn 0.002079 -0.999998 -0.000000
vn 0.002079 -0.999998 -0.000000
vn 0.000000 -0.217666 -0.976023
vn 0.000000 -0.217666 -0.976023
vn 0.000000 -0.217666 -0.976023
vn 0.000000 -0.217666 -0.976023
vn -1.000000 -0.000000 0.000000
vn -1.000000 -0.000000 0.000000
vn -1.000000 -0.000000 0.000000
vn -1.000000 -0.000000 0.000000
vn -0.002079 0.999998 0.000000
vn -0.002028 0.999863 0.016453
vn -0.002047 0.999468 0.032544
vn -0.002079 0.999998 0.000000
vn -1.000000 -0.000000 -0.000000
vn -1.000000 -0.000000 -0.000000
vn -1.000000 0.000000 0.000000
vn -1.000000 0.000000 0.000000
vn -1.000000 0.000000 0.000000
vn -1.000000 0.000000 0.000000
vn -1.000000 0.000000 -0.000000
vn -1.000000 0.000000 0.000000
vn -1.000000 0.000000 0.000000
vn 0.000000 0.975994 0.217796
vn -0.000000 0.975994 0.217796
vn 1.000000 0.000000 0.000000
vn 1.000000 0.000000 0.000000
vn 0.000000 -0.975994 -0.217796
vn 0.000000 -0.975994 -0.217796
vn -0.000000 -0.975994 -0.217796
vn 0.000000 -0.975994 -0.217796
vn -1.000000 0.000000 -0.000000
vn -1.000000 0.000000 -0.000000
vn 0.000000 -0.975994 -0.217796
vn 0.000000 -0.975994 -0.217796
vn 0.007197 -0.976184 -0.216827
vn 0.008663 -0.976216 -0.216628
vn 0.000000 -0.217666 -0.976023
vn -0.000000 -0.217666 -0.976023
vn -0.000000 -0.217666 -0.976023
vn 0.000000 -0.217666 -0.976023
vn 0.000000 0.976008 -0.217733
vn 0.000000 0.976008 -0.217733
vn 0.000000 0.976008 -0.217733
vn 0.000000 0.976008 -0.217733
vn 0.000000 0.975994 0.217796
vn 0.000000 0.975994 0.217796
vn 0.000000 0.975994 0.217796
vn 0.000000 0.975994 0.217796
vn 0.000000 0.975994 0.217796
vn -0.000000 0.975994 0.217796
vn 0.000000 -0.217782 0.975997
vn 0.000000 -0.217782 0.975997
vn 0.000000 -0.217782 0.975997
vn 0.000000 -0.217782 0.975997
vn 0.000001 -0.975994 -0.217796
vn 0.000000 -0.975994 -0.217796
vn 0.000000 -0.975994 -0.217796
vn 0.000000 -0.975994 -0.217796
vn 0.000000 -0.217783 0.975997
vn -0.000000 -0.217783 0.975997
vn -0.000000 -0.217783 0.975997
vn -0.000000 -0.217783 0.975997
vn -0.000000 0.975994 0.217796
vn -0.000000 0.975994 0.217796
vn -0.000000 0.975994 0.217796
vn -0.000000 0.975994 0.217796
vn -0.000000 0.975994 0.217796
vn 0.000000 0.975994 0.217796
vn 0.000000 0.976008 -0.217733
vn 0.000000 0.976008 -0.217733
vn 0.000000 0.976008 -0.217733
vn 0.000000 0.976008 -0.217733
vn 0.000000 -0.217666 -0.976023
vn 0.000000 -0.217666 -0.976023
vn 0.000000 -0.217666 -0.976023
vn 0.000000 -0.217666 -0.976023
vn -0.000002 -0.976004 0.217751
vn -0.000002 -0.976004 0.217751
vn -0.000002 -0.976002 0.217763
vn -0.000002 -0.976002 0.217763
vn -0.000000 -0.975994 -0.217796
vn -0.000000 -0.975994 -0.217796
vn -0.000002 -0.976009 0.217731
vn -0.000002 -0.976009 0.217731
vn -0.000002 -0.976009 0.217731
vn -0.000002 -0.976009 0.217732
vn -0.000001 -0.976008 0.217737
vn 0.000036 -0.976009 0.217729
vn 0.000036 -0.976009 0.217729
vn 0.000033 -0.976008 0.217733
vn 0.000033 -0.976008 0.217733
vn -0.000002 -0.975996 0.217788
vn 0.000000 0.000000 1.000000
vn 0.000000 0.000000 1.000000
vn 0.000000 0.000000 1.000000
vn 0.000000 0.000000 1.000000
vn 0.000000 0.000000 1.000000
vn 0.000000 0.000000 1.000000
vn 1.000000 0.000000 -0.000000
vn 1.000000 0.000000 -0.000000
vn 1.000000 0.000000 0.000000
vn 1.000000 -0.000000 0.000000
vn 0.000000 0.000000 -1.000000
vn 0.000000 0.000000 -1.000000
vn 0.000000 0.000000 -1.000000
vn 0.000000 0.000000 -1.000000
vn -1.000000 -0.000000 0.000000
vn -1.000000 0.000000 0.000000
vn -1.000000 -0.000000 0.000000
vn -1.000000 -0.000000 -0.000000
vn 0.000000 -0.000000 1.000000
vn -0.000000 -0.000000 1.000000
vn -1.000000 0.000000 -0.000000
vn -1.000000 0.000000 -0.000000
vn -0.000001 -0.975994 -0.217796
vn 0.000000 0.000000 1.000000
vn -0.000000 0.000000 1.000000
vn 0.000000 0.000000 1.000000
vn 0.000000 0.000000 1.000000
vn -0.000000 0.000000 1.000000
vn -0.000000 0.000000 1.000000
vn -0.000000 0.000000 1.000000
vn 0.000000 1.000000 0.000000
vn 0.000000 1.000000 0.000000
vn 0.000000 0.000000 1.000000
vn 0.000000 0.000000 1.000000
vn 0.001570 -0.999999 0.000683
vn 0.000000 1.000000 0.000000
vn 0.000000 0.000000 1.000000
vn 0.000000 0.000000 1.000000
vn 0.000000 0.000000 1.000000
vn 0.000000 0.000000 1.000000
vn 0.000000 0.000000 1.000000
vn 0.000000 0.000000 1.000000
vn 0.000000 0.000000 1.000000
vn 0.000000 -0.975994 -0.217796
vn 0.000000 0.000000 1.000000
vn 0.000000 0.000000 1.000000
vn 0.000000 1.000000 0.000000
vn 0.000000 1.000000 0.000000
vn 0.000000 0.000000 1.000000
vn 0.000000 0.000000 1.000000
vn 0.000000 0.000000 1.000000
vn 0.000000 0.000000 1.000000
vn 0.000000 0.000000 1.000000
vn 0.000000 0.000000 1.000000
vn 0.000000 0.000000 1.000000
vn 0.000000 0.000000 1.000000
vn 0.000000 -0.975994 -0.217796
vn 0.000000 -0.975994 -0.217796
vn 0.000000 -0.217783 0.975997
vn 0.000000 -0.217666 -0.976023
vn -0.000002 -0.976006 0.217742
vn -0.000002 -0.976006 0.217742
vn 0.000000 -1.000000 0.000000
vn 0.000000 -0.000412 1.000000
vn 0.000000 0.000000 1.000000
vn 0.000000 -0.000418 1.000000
vn 0.000001 0.000000 1.000000
vn -0.000000 0.000000 1.000000
vn 0.000000 0.000000 1.000000
vn 0.000000 0.000000 1.000000
vn -0.000000 0.000000 1.000000
vn -0.000000 0.000000 1.000000
vn -0.000000 0.000000 1.000000
vn 0.000000 -1.000000 0.000000
vn 0.000000 -1.000000 0.000000
vn 0.000000 -1.000000 0.000000
vn 0.000000 -1.000000 0.000000
vn 0.000000 -1.000000 0.000000
vn 0.000000 -0.975994 -0.217796
vn -0.000000 -0.975994 -0.217796
vn 0.000000 -0.217783 0.975997
vn 0.000000 -0.217783 0.975997
vn 0.000000 0.975994 0.217796
vn 0.000000 0.975994 0.217796
vn 0.000000 0.975994 0.217796
vn 0.000000 0.976008 -0.217733
vn 0.000000 0.976008 -0.217733
vn 0.000000 -0.217666 -0.976023
vn 0.000000 -0.217666 -0.976023
vn -0.000002 -0.975999 0.217777
vn -0.000002 -0.975999 0.217777
vn -0.000002 -0.975997 0.217785
vn -0.000000 0.000000 -1.000000
vn 0.000000 0.000000 -1.000000
vn 0.000000 0.000000 -1.000000
vn 0.000000 0.000000 -1.000000
vn 0.001839 -0.999998 0.000004
vn 0.001841 -0.999998 0.000003
vn 0.002079 -0.999998 -0.000000
vn 0.002079 -0.999998 -0.000000
vn 0.002079 -0.999998 0.000000
vn 0.001853 -0.999998 0.000000
vn 0.001864 -0.999998 0.000026
vn 0.002079 -0.999998 0.000000
vn -0.001997 0.956870 0.290509
vn -0.001997 0.956870 0.290509
vn -0.002079 0.999716 0.023756
vn -0.002079 0.999326 0.036648
vn -0.002079 0.999468 0.032549
vn -0.002079 0.999998 0.000000
vn 0.000000 -0.000001 1.000000
vn 0.000000 -0.000000 1.000000
vn 0.000000 0.000000 1.000000
vn 0.000000 0.000000 1.000000
vn -0.002035 0.999717 0.023716
vn -0.002048 0.999326 0.036652
vn -0.002054 0.999468 0.032556
vn -0.002079 0.999998 0.000000
vn -0.000000 -0.000001 1.000000
vn -0.000000 -0.000000 1.000000
vn -0.000000 0.000000 1.000000
vn -0.000000 -0.975994 -0.217796
vn 0.001810 -0.999998 0.000678
vn -0.001982 0.956869 0.290512
vn -0.001982 0.956869 0.290513
vn -0.001982 0.999718 0.023668
vn -0.002010 0.999326 0.036657
vn -0.002023 0.999468 0.032565
vn -0.002079 0.999998 0.000000
vn -0.000000 -0.000001 1.000000
vn -0.000000 -0.000000 1.000000
vn -0.000000 0.000000 1.000000
vn -0.000001 -0.975994 -0.217797
vn -0.001965 0.956878 0.290482
vn -0.001965 0.956878 0.290482
vn -0.000000 -0.000000 1.000000
vn -0.000000 -0.000000 1.000000
vn 0.000000 0.000000 1.000000
vn 0.000000 0.000000 1.000000
vn 0.000000 0.000000 1.000000
vn 0.000000 0.000000 1.000000
vn 0.000000 -0.000000 1.000000
vn 0.000000 -0.000000 1.000000
vn 0.000000 0.000000 1.000000
vn 0.000000 0.000000 1.000000
vn 0.000000 0.000000 1.000000
vn 0.000000 0.000000 1.000000
vn 0.000000 -0.000000 1.000000
vn 0.000000 -0.000000 1.000000
vn -1.000000 -0.000000 0.000000
vn -1.000000 -0.000000 -0.000000
vn -1.000000 -0.000000 0.000000
vn 0.000000 0.000000 -1.000000
vn 0.000000 0.000000 -1.000000
vn -0.000000 0.000000 -1.000000
vn 0.000000 0.000000 -1.000000
vn 1.000000 -0.000000 -0.000000
vn 1.000000 -0.000000 0.000000
vn 1.000000 -0.000000 -0.000000
vn 0.000000 0.000000 1.000000
vn 0.000000 0.000000 1.000000
vn 0.000000 0.000000 1.000000
vn 0.000000 0.000000 1.000000
vn -1.000000 0.000000 -0.000000
vn -1.000000 0.000000 -0.000000
vn 1.000000 0.000000 0.000000
vn 0.000000 0.000000 1.000000
vn 0.000000 0.000000 1.000000
vn 0.000000 0.000000 1.000000
vn 0.000000 0.000000 1.000000
vn 0.000000 0.000000 1.000000
vn 0.000000 0.000000 1.000000
vn 0.000000 0.000000 1.000000
vn 0.000000 0.000000 1.000000
vn 0.000000 0.000000 1.000000
vn 0.000000 0.000000 1.000000
vn -1.000000 0.000000 -0.000000
vn -0.000000 -0.000000 1.000000
vn -0.000000 -0.000000 1.000000
vn 0.000000 -0.000000 1.000000
vn 0.000000 -0.000000 1.000000
vn -0.000001 -0.000000 1.000000
vn -0.000001 -0.000000 1.000000
vn -0.000001 -0.000000 1.000000
vn -0.000001 -0.000000 1.000000
vn 0.000001 -0.000000 1.000000
vn 0.000001 -0.000000 1.000000
vn 0.000001 -0.000000 1.000000
vn 0.000001 -0.000000 1.000000
vn 0.000000 -0.000000 1.000000
vn 0.000000 -0.000000 1.000000
vn 0.000000 -0.000000 1.000000
vn 0.000000 -0.000000 1.000000
vn -0.000664 0.000212 1.000000
vn -0.000000 -0.000000 1.000000
vn 0.000000 -0.000000 1.000000
vn 0.000000 -0.000000 1.000000
vn -0.999997 0.001365 0.002126
vn -1.000000 0.000254 0.000396
vn -1.000000 -0.000000 0.000000
vn 0.000000 0.000000 -1.000000
vn -0.000000 0.000000 -1.000000
vn -0.000000 0.000000 -1.000000
vn 0.000000 0.000000 -1.000000
vn 1.000000 0.000000 0.000000
vn 1.000000 0.000000 0.000000
vn 1.000000 0.000000 0.000000
vn 1.000000 0.000000 0.000000
vn 0.000000 0.000000 1.000000
vn 0.000000 0.000000 1.000000
vn 0.000000 0.000000 1.000000
vn 0.000000 0.000000 1.000000
vn -0.000000 0.000000 1.000000
vn -0.000000 0.000000 1.000000
vn -0.000000 0.000000 1.000000
vn -0.000000 0.000000 1.000000
vn 0.000000 0.000000 1.000000
vn 0.000000 0.000000 1.000000
vn 0.000000 0.000000 1.000000
vn 0.000000 0.000000 1.000000
vn 0.000000 0.000000 1.000000
vn 0.000000 0.000000 1.000000
vn 0.000000 0.000000 1.000000
vn 0.000000 0.000000 1.000000
vn -0.000000 0.000000 1.000000
vn -0.000000 0.000000 1.000000
vn -0.000000 0.000000 1.000000
vn -0.000000 0.000000 1.000000
vn -1.000000 0.000000 -0.000000
vn -1.000000 0.000000 -0.000000
vn -1.000000 0.000000 -0.000000
vn -1.000000 0.000000 -0.000000
vn -0.000000 -0.000000 1.000000
vn -0.000000 0.000000 1.000000
vn -0.000000 -0.000000 1.000000
vn 0.000000 0.000000 1.000000
vn -0.001622 0.000518 0.999999
vn -0.999999 0.000769 0.001198
vn -0.999979 0.003466 0.005401
vn -1.000000 0.000000 0.000000
vn 0.000000 0.000000 -1.000000
vn 0.000000 0.000000 -1.000000
vn -0.000000 0.000000 -1.000000
vn -0.000000 0.000000 -1.000000
vn -0.000000 0.000000 -1.000000
vn 1.000000 0.000000 0.000000
vn 1.000000 0.000000 0.000000
vn 1.000000 0.000000 0.000000
vn 0.000000 0.000000 1.000000
vn 0.000000 0.000000 1.000000
vn 0.000000 0.000000 1.000000
vn 0.000000 0.000000 1.000000
vn 0.000000 0.000000 1.000000
vn 0.000000 0.000000 1.000000
vn -1.000000 0.000000 -0.000000
vn -1.000000 0.000000 -0.000000
vn 0.000000 0.000000 1.000000
vn 0.000000 0.000000 1.000000
vn 0.000000 0.000000 1.000000
vn 0.000000 0.000000 1.000000
vn 0.000000 0.000000 1.000000
vn 0.000000 0.000000 1.000000
vn 0.000000 0.000000 1.000000
vn 0.000000 0.000000 1.000000
vn -0.872451 0.000000 0.488701
vn -0.872452 0.000000 0.488701
vn -0.872452 0.000000 0.488700
vn -0.872451 0.000000 0.488701
vn 0.872452 0.000000 0.488700
vn 0.872452 0.000000 0.488700
vn 0.872452 0.000000 0.488700
vn 0.872452 0.000000 0.488700
vn -0.872451 0.000000 0.488701
vn -0.872451 0.000000 0.488701
vn 0.872452 0.000000 0.488700
vn 0.872452 0.000000 0.488700
vn 0.000000 1.000000 0.000000
vn 0.000000 1.000000 0.000000
vn 0.000000 1.000000 0.000009
vn 0.000000 1.000000 0.000009
vn -0.872452 0.000000 0.488701
vn -0.872452 0.000000 0.488701
vn 0.000000 -0.736792 0.676120
vn 0.000000 -0.736792 0.676120
vn 0.000000 -0.736792 0.676120
vn 0.000000 -0.736792 0.676120
vn 0.872452 0.000000 0.488700
vn 0.872452 0.000000 0.488700
vn -0.850668 0.000000 0.525704
vn -0.850668 0.000000 0.525704
vn -0.850668 0.000000 0.525704
vn -0.850668 0.000000 0.525704
vn 0.850668 0.000000 0.525704
vn 0.850668 0.000000 0.525703
vn 0.850668 0.000000 0.525703
vn 0.850668 0.000000 0.525704
vn 0.000000 0.850667 0.525705
vn 0.000000 0.850667 0.525705
vn 0.000000 0.850667 0.525705
vn 0.000000 0.850667 0.525705
vn -0.850668 0.000000 0.525704
vn -0.850668 0.000000 0.525704
vn 0.000000 -0.850667 0.525705
vn 0.000000 -0.850667 0.525705
vn 0.000000 -0.850667 0.525705
vn 0.000000 -0.850667 0.525705
vn 0.850668 0.000000 0.525704
vn 0.850668 0.000000 0.525704
vn 0.000000 -0.850668 0.525704
vn 0.000000 -0.850668 0.525704
vn 0.000000 -0.850668 0.525704
vn 0.000000 -0.850668 0.525704
vn 0.850667 0.000000 0.525704
vn 0.850667 0.000000 0.525705
vn 0.850667 0.000000 0.525704
vn 0.850667 0.000000 0.525705
vn 0.000000 0.850667 0.525705
vn 0.000000 0.850667 0.525705
vn 0.000000 0.850667 0.525705
vn 0.000000 0.850667 0.525705
vn -0.850668 0.000000 0.525704
vn -0.850668 0.000000 0.525704
vn -0.850668 0.000000 0.525704
vn -0.850668 0.000000 0.525704
vn 0.000000 -0.850667 0.525705
vn 0.000000 -0.850667 0.525705
vn 0.000000 -0.850667 0.525705
vn 0.000000 -0.850667 0.525705
vn 0.850668 0.000000 0.525704
vn 0.850668 0.000000 0.525704
vn 0.850668 0.000000 0.525704
vn 0.850668 0.000000 0.525704
vn 0.000000 0.850667 0.525705
vn 0.000000 0.850667 0.525705
vn 0.000000 0.850667 0.525705
vn 0.000000 0.850667 0.525705
vn -0.850667 -0.000000 0.525704
vn -0.850667 -0.000000 0.525704
vn -0.850667 -0.000000 0.525704
vn -0.850668 -0.000000 0.525704
vn -0.000000 -0.850668 0.525703
vn -0.000000 -0.850668 0.525703
vn -0.000000 -0.850668 0.525703
vn -0.000000 -0.850668 0.525703
vn 0.850667 0.000000 0.525704
vn 0.850667 0.000000 0.525704
vn 0.850667 0.000000 0.525704
vn 0.850667 0.000000 0.525704
vn -0.000000 0.850667 0.525704
vn -0.000000 0.850667 0.525704
vn -0.000000 0.850667 0.525704
vn -0.000000 0.850667 0.525704
vn -0.850667 -0.000000 0.525705
vn -0.850667 -0.000000 0.525705
vn -0.850667 -0.000000 0.525705
vn -0.850667 -0.000000 0.525705
vn 0.000000 -0.850668 0.525703
vn 0.000000 -0.850668 0.525703
vn 0.000000 -0.850668 0.525703
vn 0.000000 -0.850668 0.525703
vn 0.850667 -0.000000 0.525705
vn 0.850667 -0.000000 0.525705
vn 0.850667 -0.000000 0.525705
vn 0.850667 -0.000000 0.525705
vn 0.000000 0.850667 0.525704
vn 0.000000 0.850667 0.525704
vn 0.000000 0.850667 0.525704
vn 0.000000 0.850667 0.525704
vn -0.850667 0.000000 0.525704
vn -0.850667 0.000000 0.525704
vn -0.850667 0.000000 0.525704
vn -0.850667 0.000000 0.525704
vn -0.000001 -0.850667 0.525705
vn -0.000001 -0.850667 0.525705
vn -0.000001 -0.850667 0.525705
vn -0.000001 -0.850667 0.525705
vn 0.850667 0.000000 0.525704
vn 0.850667 0.000000 0.525704
vn 0.850667 0.000000 0.525704
vn 0.850667 0.000000 0.525704
vn 0.000000 0.850668 0.525703
vn 0.000000 0.850668 0.525703
vn 0.000000 0.850668 0.525703
vn 0.000000 0.850668 0.525703
vn -0.850668 0.000000 0.525704
vn -0.850668 0.000000 0.525704
vn -0.850668 0.000000 0.525704
vn -0.850668 0.000000 0.525704
vn 0.000000 -0.736794 0.676117
vn 0.000000 -0.736794 0.676117
vn 0.000000 -0.736794 0.676117
vn 0.000000 -0.736794 0.676117
vn 0.872452 0.000000 0.488700
vn 0.872452 0.000000 0.488700
vn 0.872452 0.000000 0.488700
vn 0.872452 0.000000 0.488700
vn -0.872451 0.000000 0.488701
vn -0.872451 0.000000 0.488701
vn -0.872451 0.000000 0.488701
vn -0.872451 0.000000 0.488701
vn 0.872452 0.000000 0.488700
vn 0.872452 0.000000 0.488700
vn 0.000000 1.000000 0.000002
vn 0.000000 1.000000 0.000004
vn 0.000000 1.000000 0.000007
vn 0.000000 1.000000 0.000007
vn -0.872451 0.000000 0.488701
vn -0.872451 0.000000 0.488701
vn 0.000000 1.000000 -0.000001
vn 0.000000 1.000000 -0.000001
vn 0.000000 1.000000 -0.000002
vn 0.000000 1.000000 -0.000002
vn 0.000000 1.000000 0.000000
vn 0.000000 1.000000 0.000000
vn 0.000000 1.000000 0.000000
vn 0.000000 1.000000 0.000000
vn 0.000000 1.000000 -0.000000
vn 0.000000 1.000000 -0.000000
vn -0.000000 1.000000 0.000000
vn 0.000000 1.000000 0.000004
vn 0.000000 1.000000 0.000000
vn 0.000000 1.000000 0.000000
vn -0.000001 1.000000 0.000000
vn -0.000000 1.000000 -0.000000
vn 0.000000 1.000000 0.000000
vn 0.000000 1.000000 0.000000
vn -0.000001 1.000000 -0.000000
vn -0.000001 1.000000 -0.000000
vn 0.000000 1.000000 -0.000000
vn 0.000000 1.000000 0.000000
vn 0.000000 1.000000 0.000000
vn 0.000000 1.000000 -0.000000
vn 0.000000 1.000000 0.000000
vn 0.000000 1.000000 0.000000
vn 0.000000 1.000000 0.000001
vn -0.000000 1.000000 0.000000
vn 0.000001 1.000000 -0.000000
vn 0.000001 1.000000 -0.000000
vn -0.000001 1.000000 -0.000000
vn 0.000000 1.000000 -0.000000
vn 0.000000 1.000000 -0.000000
vn 0.000000 1.000000 -0.000000
vn 0.000000 1.000000 -0.000000
vn -0.000000 1.000000 -0.000000
vn 0.000001 1.000000 -0.000000
vn -1.000000 0.000000 -0.000000
vn -1.000000 0.000000 -0.000000
vn 0.000000 -1.000000 0.000000
vn 0.000000 -1.000000 0.000000
vn 0.000000 -1.000000 0.000000
vn 0.000000 -1.000000 0.000000
vn 0.000000 -1.000000 0.000000
vn 0.000000 -1.000000 0.000000
vn 0.000000 -1.000000 0.000000
vn 0.000000 -1.000000 0.000000
vn 0.000000 -1.000000 0.000000
vn 0.000000 -1.000000 0.000000
vn 1.000000 0.000000 0.000000
vn 1.000000 0.000000 0.000000
vn 1.000000 0.000000 0.000000
vn 1.000000 0.000000 0.000000
vn 0.000000 1.000000 -0.000000
vn 0.000000 1.000000 -0.000000
vn 0.000000 1.000000 0.000000
vn 0.000000 1.000000 0.000000
vn -0.000000 0.000000 -1.000000
vn -0.000000 0.000000 -1.000000
vn 0.000000 0.000000 -1.000000
vn 0.000000 0.000000 -1.000000
vn 0.000000 0.000000 -1.000000
vn 0.000000 0.000000 -1.000000
vn 0.000000 0.000000 -1.000000
vn 0.000000 0.000000 -1.000000
vn 0.000000 0.000000 -1.000000
vn 0.000000 0.000000 1.000000
vn 0.000000 0.000000 1.000000
vn 0.000000 0.000000 1.000000
vn 0.000000 0.000000 1.000000
vn 0.000000 0.000000 -1.000000
vn 0.000000 0.000000 -1.000000
vn 0.000000 0.000000 1.000000
vn 0.000000 0.000000 1.000000
vn 0.000000 0.000000 -1.000000
vn 0.000000 0.000000 -1.000000
vn 0.000000 0.000000 1.000000
vn 0.000000 0.000000 1.000000
vn 0.000000 0.000000 -1.000000
vn 0.000000 0.000000 -1.000000
vn 0.000000 0.000000 1.000000
vn 0.000000 0.000000 1.000000
vn 1.000000 0.000000 -0.000000
vn 1.000000 0.000000 -0.000000
vn 1.000000 0.000000 -0.000000
vn 1.000000 0.000000 -0.000000
vn 0.000000 0.000000 -1.000000
vn 0.000000 0.000000 -1.000000
vn 0.000000 0.000000 -1.000000
vn 0.000000 0.000000 -1.000000
vn -1.000000 -0.000001 -0.000000
vn -1.000000 -0.000001 -0.000000
vn -1.000000 -0.000001 -0.000000
vn -1.000000 -0.000001 -0.000000
vn 0.000000 0.000000 -1.000000
vn 0.000000 0.000000 -1.000000
vn 0.000000 0.000000 -1.000000
vn 0.000000 0.000000 -1.000000
vn -1.000000 0.000000 0.000000
vn -1.000000 0.000000 0.000000
vn -1.000000 0.000000 0.000000
vn -1.000000 0.000000 0.000000
vn 1.000000 0.000000 0.000000
vn 1.000000 0.000000 0.000000
vn 1.000000 0.000000 0.000000
vn 1.000000 0.000000 0.000000
vn 0.000000 1.000000 0.000000
vn 0.000000 1.000000 0.000000
vn 0.000000 1.000000 0.000000
vn 0.000000 1.000000 0.000000
vn 0.000000 1.000000 0.000000
vn 0.000000 1.000000 0.000000
vn 0.000000 1.000000 0.000000
vn 0.000001 -0.975994 -0.217796
vn -0.000000 -0.975994 -0.217796
vn -0.000001 -0.975994 -0.217797
vn -0.000000 -0.975994 -0.217796
vn 0.000000 -0.975994 -0.217797
vn -0.000000 -0.975994 -0.217796
vn 0.000000 0.975994 0.217797
vn 0.000000 0.975994 0.217797
vn 0.000000 0.975994 0.217796
vn 0.000000 0.975994 0.217797
vn -0.000000 0.975994 0.217796
vn -0.000000 0.975994 0.217796
vn -0.000000 0.975994 0.217797
vn 1.000000 0.000001 0.000000
vn 1.000000 0.000001 0.000000
vn 0.000001 -0.975994 -0.217795
vn 0.000001 -0.975995 -0.217795
vn -0.000000 -0.975994 -0.217796
vn -0.000000 -0.975994 -0.217796
vn -0.000000 -0.975994 -0.217796
vn -0.000000 -0.975994 -0.217796
vn 0.000000 -0.975994 -0.217796
vn -0.000000 -0.975994 -0.217796
vn -1.000000 0.000001 0.000000
vn -1.000000 0.000001 0.000000
vn -0.001308 0.000417 0.999999
vn -0.003348 0.001068 0.999994
vn -0.000000 -0.000000 1.000000
vn 0.000000 -0.000000 1.000000
vn 0.000001 -0.000000 1.000000
vn -0.002079 0.999998 0.000000
vn -0.002079 0.999998 0.000000
vn -0.002079 0.999998 0.000000
vn -0.002079 0.999998 0.000000
vn -0.000000 0.000000 1.000000
vn -0.000000 0.000000 1.000000
vn 0.000009 -0.000429 1.000000
vn 0.000009 -0.000429 1.000000
vn 0.002079 -0.999998 -0.000000
vn 0.002079 -0.999998 -0.000000
vn 0.002079 -0.999998 0.000000
vn 0.002079 -0.999998 0.000000
vn 0.002079 -0.999998 -0.000000
vn 0.002079 -0.999998 -0.000000
vn 0.000000 0.000000 -1.000000
vn 0.000000 0.000000 -1.000000
vn 0.000000 0.000000 -1.000000
vn -0.000000 0.000000 -1.000000
vn -0.000000 0.000000 -1.000000
vn -0.001092 -0.976532 -0.215369
vn 0.006942 -0.976508 -0.215370
vn 0.000000 0.000000 1.000000
vn 0.000000 1.000000 0.000000
vn 0.000000 -0.000403 -1.000000
vn 0.000000 -0.000403 -1.000000
vn 0.000000 -0.000403 -1.000000
vn 0.000000 -0.000403 -1.000000
vn -1.000000 0.000000 0.000000
vn -1.000000 0.000000 0.000000
vn -1.000000 0.000000 0.000000
vn -1.000000 0.000000 0.000000
vn 0.000000 -0.000431 1.000000
vn 0.000000 -0.000431 1.000000
vn 1.000000 0.000000 0.000000
vn 1.000000 0.000000 0.000000
vn 0.000009 -0.000440 1.000000
vn 0.000009 -0.000440 1.000000
vn 1.000000 0.000000 0.000000
vn 1.000000 0.000000 0.000000
vn 1.000000 0.000000 0.000000
vn 1.000000 0.000000 0.000000
vn -0.000013 -0.000388 -1.000000
vn -0.000013 -0.000388 -1.000000
vn -0.000013 -0.000388 -1.000000
vn -0.000013 -0.000388 -1.000000
vn -1.000000 -0.000000 -0.000000
vn -1.000000 -0.000000 -0.000000
vn 1.000000 0.000000 0.000001
vn 1.000000 0.000000 0.000001
vn 1.000000 0.000000 0.000001
vn 1.000000 0.000001 0.000000
vn 1.000000 0.000000 0.000000
vn -1.000000 0.000002 0.000001
vn -1.000000 0.000005 0.000000
vn -1.000000 0.000005 0.000000
vn -1.000000 0.000004 0.000000
vn -1.000000 0.000000 0.000002
vn -1.000000 0.000005 0.000000
vn 1.000000 0.000000 0.000000
vn -0.020025 -0.974483 -0.223568
vn -0.020025 -0.974483 -0.223568
vn -0.020025 -0.974483 -0.223568
vn -0.020025 -0.974483 -0.223568
vn -0.014967 -0.976426 -0.215333
vn -0.014967 -0.976426 -0.215333
s 1
g House01_geo Asset_grp
usemtl lambert5SG
f 78/1/1 286/2/2 287/3/3 90/4/4
s 2
f 156/5/5 144/6/6 67/7/7 61/8/8
s 3
f 9/9/9 10/453/10 2/11/11
s 4
f 79/12/12 280/13/13 281/14/14 77/15/15
s 5
f 45/390/16 42/17/17 14/18/18 15/392/19
s 6
f 77/15/20 78/1/21 90/4/22 79/12/23
s 3
f 276/20/24 277/452/25 11/407/26 3/23/27
s 7
f 199/24/28 200/25/29 201/26/30 202/27/31
s 8
f 72/28/32 48/29/33 84/30/34 95/31/35
s off
f 22/388/36 23/33/37 24/34/38 21/391/39
s 9
f 71/36/40 47/37/41 85/38/42 96/39/43
s 10
f 24/34/44 43/40/45 44/41/46 21/391/47
s 11
f 70/42/48 71/36/49 96/39/50 97/43/51
s 1
f 1/44/52 68/45/53 326/46/54 89/47/55
s 13
f 340/48/56 339/49/57 316/50/58 114/51/59
s 14
f 311/52/60 117/53/61 148/54/62
s 1
f 326/46/54 68/45/53 38/55/63 88/56/64
s 15
f 340/48/65 341/57/66 342/58/67 339/49/68
s 1
f 316/50/69 317/59/70 114/51/71
s 17
f 46/385/72 70/42/73 97/43/74 86/387/75
s off
f 33/394/76 15/392/77 14/18/78 28/63/79
s 15
f 312/64/80 313/65/81 115/66/82 116/67/83
s 19
f 31/404/84 283/405/85 284/70/86 30/71/87
f 35/72/88 34/472/89 32/471/90 37/75/91
f 37/75/91 32/471/90 41/76/92
s 9
f 289/77/93 299/78/94 85/38/42 47/37/41
s 10
f 44/41/46 43/40/45 301/79/95 302/380/96
s 20
f 83/363/97 292/82/98 305/83/99 73/84/100
s 5
f 296/85/101 297/86/102 42/17/17 45/390/16
s 20
f 107/87/103 294/88/104 323/371/105 307/90/106
s 17
f 28/63/107 110/91/108 49/386/109 33/393/110
s 11
f 14/18/111 109/93/112 110/91/113 28/63/114
s 9
f 42/17/115 50/94/116 109/93/117 14/18/118
f 297/86/119 288/95/120 50/94/116 42/17/115
s 8
f 13/96/121 16/379/122 51/98/123 108/99/124
s 20
f 302/80/125 290/376/126 19/101/127 44/381/128
s 8
f 53/102/129 52/103/130 20/104/131 25/105/132
s 9
f 300/106/133 301/79/134 43/40/135 104/107/136
f 54/108/137 104/107/136 43/40/135 24/34/138
s 11
f 24/34/139 23/33/140 55/109/141 54/108/142
s 17
f 56/383/143 55/109/144 23/33/145 22/389/146
s 30
f 86/61/147 87/362/148 36/366/149 46/60/150
s 20
f 19/101/127 27/369/151 21/35/152 44/381/128
s 30
f 22/32/153 21/35/154 27/369/155 18/354/156
f 18/354/156 56/110/157 22/32/153
f 29/367/158 15/19/159 33/62/160 39/116/161
f 33/62/160 49/92/162 39/116/161
s 33
f 142/418/163 143/420/164 74/119/165 82/120/166
s 7
f 203/121/167 199/24/28 202/27/31 204/122/168
s 3
f 63/123/169 62/466/170 10/453/10 9/9/9
f 9/9/9 17/125/171 64/468/172 63/123/169
s 34
f 38/55/173 69/127/174 151/128/175 88/56/176
s 19
f 65/469/177 40/130/178 41/76/92 66/131/179
f 149/132/180 66/131/179 41/76/92 32/471/90
s 14
f 311/52/60 312/64/181 116/67/182 117/53/61
s 2
f 61/8/8 67/7/7 6/133/183 7/134/184
s 20
f 73/84/100 305/83/99 8/135/185
s 33
f 143/420/164 60/419/186 74/119/165
f 75/137/187 155/138/188 156/5/189 61/8/190
f 76/139/191 75/137/187 61/8/190 7/134/192
s 4
f 77/15/15 281/14/14 282/140/193 12/141/194
s 6
f 12/141/195 4/142/196 78/1/21 77/15/20
s 1
f 4/142/197 286/2/2 78/1/1
s 4
f 79/12/12 279/143/198 280/13/13
s 33
f 91/144/199 92/145/200 81/146/201 80/147/202
f 92/145/200 153/148/203 154/149/204 81/146/201
f 142/418/163 82/120/166 93/150/205
s 20
f 94/361/206 292/82/98 83/363/97
s 6
f 79/12/23 90/4/22 325/152/207 98/153/208
s 4
f 98/153/209 278/154/210 279/143/198 79/12/12
s 33
f 99/155/211 100/156/212 92/145/200 91/144/199
s 36
f 207/157/213 208/158/214 209/159/215 210/160/216
s 33
f 248/161/217 142/418/163 93/150/205 101/162/218
s 20
f 102/356/219 291/377/220 292/82/98 94/361/206
s 8
f 95/31/35 84/30/34 103/165/221 53/102/129
s 9
f 299/78/94 300/106/133 104/107/136 85/38/42
f 96/39/43 85/38/42 104/107/136 54/108/137
s 11
f 97/43/51 96/39/50 54/108/142 55/109/141
s 17
f 86/387/75 97/43/74 55/109/144 105/382/222
s 30
f 105/166/223 106/353/224 87/362/148 86/61/147
s 1
f 90/4/4 287/3/3 325/152/225
s 6
f 324/402/226 325/152/207 3/23/227 11/407/228
s 33
f 10/10/229 62/124/230 336/169/231 337/170/232
f 62/124/230 335/171/233 336/169/231
f 59/467/234 248/161/217 334/173/235
s 20
f 19/101/127 290/376/126 291/377/220 102/356/219
s 1
f 326/46/54 88/56/64 17/125/236 9/9/237
f 2/11/238 89/47/55 326/46/54 9/9/237
f 3/23/239 325/152/225 287/3/3 276/20/240
s 20
f 122/359/241 293/175/242 294/88/104 107/87/103
s 8
f 108/99/124 51/98/123 123/176/243 136/177/244
s 9
f 288/95/120 298/178/245 124/179/246 50/94/116
f 109/93/117 50/94/116 124/179/246 137/180/247
s 11
f 110/91/113 109/93/112 137/180/248 138/181/249
s 17
f 49/386/109 110/91/108 138/181/250 125/384/251
s 30
f 125/182/252 139/360/253 111/349/254 49/92/162
s 34
f 113/185/255 112/186/256 150/187/257 126/188/258
s 1
f 126/188/259 140/189/260 319/190/261 113/185/262
f 318/191/263 319/190/261 140/189/260 127/192/264
f 114/51/71 317/59/70 285/193/265 128/194/266
s 13
f 343/195/267 340/48/56 114/51/59 128/194/268
s 15
f 343/195/269 344/196/270 341/57/66 340/48/65
f 116/67/83 115/66/82 129/197/271 119/198/272
s 14
f 117/53/61 116/67/182 119/198/273 120/199/274
f 147/200/275 148/54/62 117/53/61 120/199/274
f 146/201/276 147/200/275 120/199/274
s 15
f 345/202/277 346/203/278 344/196/270 343/195/269
f 119/198/272 129/197/271 131/204/279 132/205/280
s 14
f 120/199/274 119/198/273 132/205/281 133/206/282
f 145/207/283 146/201/276 120/199/274 133/206/282
s 20
f 135/357/284 293/175/242 122/359/241
s 1
f 128/194/266 285/193/265 141/209/285
s 13
f 345/202/286 343/195/267 128/194/268 141/209/287
s 15
f 348/210/288 347/211/289 346/203/278 345/202/277
f 132/205/280 131/204/279 7/134/290 6/133/291
s 14
f 133/206/282 132/205/281 6/133/292 67/7/293
f 144/6/294 145/207/283 133/206/282 67/7/293
s 20
f 135/357/284 5/212/295 8/135/185
f 8/135/185 305/83/99 293/175/242 135/357/284
s 8
f 136/177/244 123/176/243 48/29/33 72/28/32
s 9
f 298/178/245 289/77/93 47/37/41 124/179/246
f 137/180/247 124/179/246 47/37/41 71/36/40
s 11
f 137/180/248 71/36/49 70/42/48 138/181/249
s 17
f 125/384/251 138/181/250 70/42/73 46/385/72
s 30
f 36/366/149 139/360/253 125/182/252 46/60/150
s 34
f 126/188/258 150/187/257 69/127/174 38/55/173
s 1
f 38/55/63 68/45/53 140/189/260 126/188/259
f 127/192/264 140/189/260 68/45/53 1/44/52
f 141/209/285 285/193/265 286/2/2 4/142/197
s 13
f 4/142/296 348/210/297 345/202/286 141/209/287
s 14
f 134/213/298 145/207/283 144/6/294 57/214/299
s off
f 218/215/300 219/216/301 220/217/302 217/218/303
s 14
f 121/219/304 147/200/275 146/201/276 130/220/305
s off
f 214/221/306 215/222/307 216/223/308 213/224/309
s 14
f 310/225/310 311/52/60 148/54/62 118/226/311
s 19
f 157/227/312 66/131/179 149/132/180 195/464/313
f 158/454/314 65/469/177 66/131/179 157/227/312
s 34
f 150/187/257 112/186/256 320/230/315 194/231/316
f 69/127/174 150/187/257 194/231/316 159/232/317
f 151/128/175 69/127/174 159/232/317 161/233/318
s 3
f 58/234/319 63/123/169 64/468/172 160/456/320
f 58/234/319 59/409/321 62/466/170 63/123/169
s 33
f 62/124/230 59/467/234 334/173/235 335/171/233
s 36
f 209/159/215 208/158/214 211/236/322 212/237/323
s 33
f 154/149/204 153/148/203 93/150/205 82/120/166
s 7
f 201/26/30 200/25/29 205/238/324 206/239/325
s 33
f 60/419/186 156/5/189 155/138/188 74/119/165
s 2
f 60/419/326 57/214/327 144/6/6 156/5/5
s 3
f 58/234/319 162/465/328 59/409/321
s 39
f 240/241/329 239/242/330 333/243/331 259/244/332
f 333/243/331 241/245/333 242/246/334 259/244/332
f 241/245/333 243/247/335 244/248/336 242/246/334
f 243/247/335 245/249/337 246/250/338 244/248/336
s 2
f 166/416/339 57/214/327 60/419/326
s 14
f 167/252/340 168/253/341 186/254/342 187/255/343
s off
f 221/256/344 222/257/345 223/258/346 224/259/347
s 14
f 169/260/348 170/261/349 197/262/350 198/263/351
s off
f 225/264/352 226/265/353 227/266/354 228/267/355
s 14
f 308/268/356 309/269/357 196/270/358 171/271/359
s 19
f 172/463/360 173/273/361 157/227/312 195/464/313
f 173/273/361 174/455/362 158/454/314 157/227/312
s 34
f 321/275/363 175/276/364 194/231/316 320/230/315
f 175/276/364 176/277/365 159/232/317 194/231/316
f 176/277/365 177/278/366 161/233/318 159/232/317
s 3
f 58/234/319 160/456/320 178/457/367 179/280/368
f 179/280/368 180/459/369 193/458/370 58/234/319
s 43
f 193/282/371 180/281/372 181/283/373 192/284/374
s off
f 229/285/375 230/286/376 231/287/377 232/288/378
s 43
f 182/289/379 183/290/380 190/291/381 191/292/382
s 45
f 233/293/383 234/294/384 235/295/385 236/296/386
s 43
f 184/297/387 185/298/388 188/299/389 189/300/390
s 2
f 185/298/391 167/252/392 187/255/393 188/299/394
s 14
f 135/208/395 168/253/341 167/252/340 5/358/396
f 122/174/397 169/260/348 168/253/341 135/208/395
f 122/174/397 170/261/349 169/260/348
f 107/352/398 171/271/359 170/261/349 122/174/397
f 307/351/399 308/268/356 171/271/359 107/352/398
s 19
f 29/115/400 173/273/361 172/463/360 26/474/401
f 29/115/400 39/350/402 174/455/362 173/273/361
s 34
f 139/183/403 175/276/364 321/275/363 111/184/404
f 36/112/405 176/277/365 175/276/364 139/183/403
f 87/111/406 177/278/366 176/277/365 36/112/405
f 106/167/407 177/278/366 87/111/406
s 3
f 178/457/367 18/461/408 27/113/409 179/280/368
f 179/280/368 27/113/409 19/355/410
f 19/355/410 180/459/369 179/280/368
s 43
f 102/163/411 181/283/373 180/281/372 19/460/412
f 94/151/413 182/289/379 181/283/373 102/163/411
f 83/81/414 183/290/380 182/289/379 94/151/413
f 73/364/415 184/297/387 183/290/380 83/81/414
f 8/365/416 185/298/388 184/297/387 73/364/415
s 2
f 5/358/417 167/252/392 185/298/391 8/365/418
s 14
f 187/255/343 186/254/342 134/213/298 57/214/299
s 2
f 188/299/394 187/255/393 57/214/327 166/416/339
s 43
f 189/300/390 188/299/389 166/416/419 165/415/420
s 45
f 236/296/386 235/295/385 237/413/421 238/304/422
s 43
f 191/292/382 190/291/381 164/414/423 163/417/424
f 192/284/374 191/292/382 163/417/424 327/411/425
f 162/410/426 193/282/371 192/284/374 327/411/425
s 3
f 58/234/319 193/458/370 162/465/328
s 14
f 309/269/357 310/225/310 118/226/311 196/270/358
f 197/262/350 196/270/358 118/226/311 121/219/304
f 198/263/351 197/262/350 121/219/304 130/220/305
f 186/254/342 198/263/351 130/220/305 134/213/298
s 48
f 81/146/427 154/149/428 200/25/429 199/24/430
s 49
f 155/138/431 75/137/432 202/27/433 201/26/434
s 48
f 80/147/435 81/146/427 199/24/430 203/121/436
s 49
f 75/137/432 76/139/437 204/122/438 202/27/433
s 4
f 76/139/439 80/147/440 203/121/441 204/122/442
s 48
f 154/149/428 82/120/443 205/238/444 200/25/429
s off
f 82/120/445 74/119/446 206/239/447 205/238/448
s 49
f 74/119/449 155/138/431 201/26/434 206/239/450
s 50
f 100/156/451 152/308/452 208/158/453 207/157/454
s 51
f 153/148/455 92/145/456 210/160/457 209/159/458
s off
f 92/145/459 100/156/460 207/157/461 210/160/462
s 50
f 152/308/452 101/162/463 211/236/464 208/158/453
s off
f 101/162/465 93/150/466 212/237/467 211/236/468
s 51
f 93/150/469 153/148/455 209/159/458 212/237/470
s off
f 121/219/471 118/226/472 214/221/473 213/224/474
f 118/226/475 148/54/476 215/222/477 214/221/478
f 148/54/479 147/200/480 216/223/481 215/222/482
f 147/200/483 121/219/484 213/224/485 216/223/486
f 134/213/487 130/220/488 218/215/489 217/218/490
f 130/220/491 146/201/492 219/216/493 218/215/494
f 146/201/495 145/207/496 220/217/497 219/216/498
f 145/207/499 134/213/500 217/218/501 220/217/502
f 168/253/503 169/260/504 222/257/505 221/256/506
f 169/260/507 198/263/508 223/258/509 222/257/510
f 198/263/511 186/254/512 224/259/513 223/258/514
f 186/254/515 168/253/516 221/256/517 224/259/518
f 170/261/519 171/271/520 226/265/521 225/264/522
f 171/271/523 196/270/524 227/266/525 226/265/526
f 196/270/527 197/262/528 228/267/529 227/266/530
f 197/262/531 170/261/532 225/264/533 228/267/534
f 181/283/535 182/289/536 230/286/537 229/285/538
f 182/289/539 191/292/540 231/287/541 230/286/542
f 191/292/543 192/284/544 232/288/545 231/287/546
f 192/284/547 181/283/548 229/285/549 232/288/550
f 183/290/551 184/297/552 234/294/553 233/293/554
s 52
f 184/297/555 189/300/556 235/295/557 234/294/558
s 53
f 190/291/559 183/290/560 233/293/561 236/296/562
s 52
f 189/300/556 165/415/563 237/413/564 235/295/557
s 54
f 165/302/565 164/305/566 238/412/567 237/303/568
s 53
f 164/414/569 190/291/559 236/296/562 238/304/570
s 55
f 264/309/571 265/451/572 330/311/573 331/312/574
f 330/311/573 266/314/575 267/316/576 331/312/574
f 266/314/575 268/318/577 269/323/578 267/316/576
f 268/318/577 270/325/579 271/327/580 269/323/578
s 54
f 327/307/581 163/306/582 247/319/583
f 163/306/582 164/305/566 247/319/583
f 164/305/566 165/302/565 247/319/583
f 263/422/584 162/240/585 327/307/581 328/321/586
f 332/322/587 333/243/588 239/242/589 250/424/590
f 327/307/581 247/319/583 251/324/591 328/321/586
f 241/245/592 333/243/588 332/322/587 252/433/593
f 247/319/583 165/302/565 253/326/594 251/324/591
f 243/247/595 241/245/592 252/433/593 254/431/596
f 165/302/565 166/251/597 260/426/598 253/326/594
f 256/432/599 245/249/600 243/247/595 254/431/596
f 250/424/590 239/242/589 162/240/585 249/434/601
f 262/421/602 263/422/584 328/321/586 329/423/603
f 328/321/586 251/324/591 257/430/604 329/423/603
f 251/324/591 253/326/594 258/429/605 257/430/604
f 253/326/594 260/426/598 261/427/606 258/429/605
f 166/251/597 245/249/600 256/432/599 255/428/607
s 2
f 166/435/339 60/136/326 246/250/608 245/436/609
s 59
f 246/250/610 60/136/611 143/118/612 244/248/613
f 143/118/612 142/117/614 242/246/615 244/248/613
f 142/117/614 248/408/616 259/244/617 242/246/615
f 259/244/617 248/408/616 59/172/618 240/241/619
s off
f 59/172/620 162/437/621 239/438/622 240/241/623
s 54
f 260/426/598 166/251/597 255/428/607
s 55
f 270/450/579 272/449/624 273/329/625 271/327/580
f 274/330/626 275/448/627 265/310/572 264/309/571
s 54
f 162/240/585 263/422/584 249/434/601
s 8
f 53/102/129 103/165/221 52/103/130
s 17
f 105/382/222 55/109/144 56/383/143
s 30
f 18/354/156 106/353/224 105/166/223 56/110/157
s 34
f 18/114/628 178/279/629 177/278/366 106/167/407
f 161/233/318 177/278/366 178/279/629 160/235/630
f 160/235/630 64/126/631 151/128/175 161/233/318
f 88/56/176 151/128/175 64/126/631 17/125/632
s 60
f 262/331/633 329/332/634 330/444/635 265/447/636
s 61
f 331/312/637 332/337/638 250/338/639 264/309/640
s 60
f 329/332/634 257/333/641 266/313/642 330/444/635
s 61
f 252/339/643 332/337/638 331/312/637 267/316/644
s 60
f 257/333/641 258/334/645 268/315/646 266/313/642
s 61
f 254/425/647 252/339/643 267/316/644 269/323/648
s 60
f 258/334/645 261/335/649 270/317/650 268/315/646
s 61
f 256/439/651 254/425/647 269/323/648 271/327/652
s off
f 261/335/653 260/445/654 272/446/655 270/317/656
f 260/440/657 255/441/658 273/329/659 272/328/660
f 255/441/661 256/439/662 271/327/663 273/329/664
f 249/442/665 263/443/666 275/336/667 274/330/668
f 263/320/669 262/331/670 265/447/671 275/340/672
f 250/338/673 249/442/674 274/330/675 264/309/676
s 3
f 2/11/11 10/453/10 277/452/25 276/20/24
s 4
f 337/170/677 338/399/678 277/406/679 10/10/680
f 279/143/198 278/154/210 99/155/681 91/144/682
f 280/13/13 279/143/198 91/144/682 80/147/440
f 281/14/14 280/13/13 80/147/440 76/139/439
f 282/140/193 281/14/14 76/139/439 7/134/683
s 15
f 346/203/278 347/211/289 7/134/290 131/204/279
f 344/196/270 346/203/278 131/204/279 129/197/271
f 341/57/66 344/196/270 129/197/271 115/66/82
f 313/65/81 342/58/67 341/57/66 115/66/82
s 19
f 284/70/86 283/405/85 34/472/89 35/72/88
s 1
f 285/193/265 317/59/70 318/191/263 127/192/264
f 286/2/2 285/193/265 127/192/264 1/44/52
f 287/3/3 286/2/2 1/44/52 89/47/55
f 276/20/240 287/3/3 89/47/55 2/11/238
s 20
f 302/80/125 303/374/684 290/376/126
f 292/82/98 291/377/220 304/375/685
f 322/370/686 323/371/105 294/88/104
f 296/378/687 295/372/688 306/373/689
s 9
f 108/99/690 288/95/120 297/86/119 13/96/691
f 136/177/692 298/178/245 288/95/120 108/99/690
f 72/28/693 289/77/93 298/178/245 136/177/692
f 95/31/694 299/78/94 289/77/93 72/28/693
f 53/102/695 300/106/133 299/78/94 95/31/694
f 25/105/696 301/79/134 300/106/133 53/102/695
s 10
f 302/380/96 301/79/95 25/105/697 20/395/698
s 20
f 20/104/699 52/103/700 303/374/684 302/80/125
f 304/375/685 303/374/684 52/103/700 103/165/701
f 292/82/98 304/375/685 103/165/701 84/30/702
f 305/83/99 292/82/98 84/30/702 48/29/703
f 293/175/242 305/83/99 48/29/703 123/176/704
f 294/88/104 293/175/242 123/176/704 51/98/705
f 51/98/705 322/370/686 294/88/104
f 296/378/687 306/373/689 51/98/705 16/379/706
s 5
f 13/96/707 297/86/102 296/85/101 16/97/708
s 14
f 172/272/709 308/268/356 307/351/399 26/368/710
f 195/228/711 309/269/357 308/268/356 172/272/709
f 195/228/711 310/225/310 309/269/357
f 149/470/712 311/52/60 310/225/310 195/228/711
f 32/74/713 312/64/181 311/52/60 149/470/712
s 15
f 34/73/714 313/65/81 312/64/80 32/74/715
f 283/473/716 314/347/717 313/65/81 34/73/714
s 64
f 30/71/718 316/50/719 315/348/720 31/404/721
s 1
f 284/70/722 317/59/70 316/50/69 30/71/723
f 35/72/724 318/191/263 317/59/70 284/70/722
f 37/75/725 319/190/261 318/191/263 35/72/724
f 41/76/726 319/190/261 37/75/725
f 319/190/261 41/76/726 40/130/727 113/185/262
s 34
f 65/129/728 112/186/256 113/185/255 40/130/729
f 112/186/256 65/129/728 158/229/730 320/230/315
f 174/274/731 321/275/363 320/230/315 158/229/730
f 111/184/404 321/275/363 174/274/731 39/462/732
s 30
f 49/92/162 111/349/254 39/116/161
s 20
f 306/373/689 322/370/686 51/98/705
f 307/90/106 323/371/105 295/372/733 26/301/734
s 6
f 98/153/208 325/152/207 324/402/226
s 33
f 334/173/235 248/161/217 101/162/218
f 335/171/233 334/173/235 101/162/218 152/308/735
f 336/169/231 335/171/233 152/308/735 100/156/212
f 337/170/232 336/169/231 100/156/212 99/155/211
s 4
f 278/154/210 338/399/678 337/170/677 99/155/681
f 324/402/736 338/399/678 278/154/210 98/153/209
s off
f 277/21/737 338/400/738 291/164/739 290/100/740
f 338/341/741 324/168/742 304/343/743 291/401/744
s 6
f 304/343/745 324/168/226 11/22/228 303/342/746
s 3
f 11/22/26 277/21/25 290/100/747 303/342/748
s 64
f 31/68/721 315/403/720 322/344/749 306/346/750
s 65
f 315/403/751 314/396/752 323/89/753 322/344/754
s off
f 314/397/755 283/69/756 295/345/757 323/398/758
s 19
f 283/69/85 31/68/84 306/346/759 295/345/760
s off
f 315/348/761 316/50/762 339/49/763
s 65
f 314/347/752 315/348/751 339/49/764 342/58/765
s 66
f 12/141/766 282/140/767 347/211/768 348/210/769
f 4/142/770 12/141/766 348/210/769
f 282/140/767 7/134/771 347/211/768
s 65
f 313/65/772 314/347/752 342/58/765
s off
f 45/16/773 15/19/774 29/367/775 26/301/776
s 20
f 296/378/777 45/16/778 26/301/734 295/372/733
