# This file uses centimeters as units for non-parametric coordinates.

mtllib Minimaret_geo.mtl
g default
v -571.571594 0.000006 0.000000
v 571.570679 0.000000 0.000000
v -571.571594 15.240879 0.000000
v 571.570679 15.240879 0.000000
v -571.571594 15.240879 -798.545898
v 571.570679 15.240891 -798.545959
v -571.571594 0.000000 -798.545959
v 571.570679 0.000006 -798.545959
v -533.469543 15.240917 -60.963516
v 533.468445 15.240879 -60.963516
v 533.468445 15.240879 -760.443726
v -533.469482 15.240916 -760.443726
v -533.469116 297.090393 -60.963516
v 533.468445 297.090637 -60.963570
v -533.469482 396.262817 -38.102219
v 533.468445 396.262878 -38.102219
v 533.468445 320.058502 -760.443726
v -533.469482 320.058472 -760.443726
v -533.469482 304.710938 -38.102219
v 533.468445 304.710907 -38.102219
v 573.498535 400.462616 1.706039
v 573.498535 315.858887 -800.253052
v -573.498535 315.858887 -800.253052
v -573.498535 400.462616 1.706039
v 573.498535 400.462616 1.706041
v -573.498535 400.462616 1.706041
v 573.498535 423.197357 -0.692436
v 573.498596 338.593811 -802.653381
v -573.498535 338.593811 -802.653381
v -573.498535 423.197357 -0.692436
v -464.847748 0.000005 0.000000
v -464.847748 0.000000 -798.545959
v -464.847748 15.240887 -798.545898
v -464.847382 15.240915 -760.443726
v -464.847382 320.058472 -760.443726
v -464.847748 315.858887 -800.253052
v -464.847748 338.593811 -802.653381
v -464.847748 423.197357 -0.692436
v -464.847748 400.462616 1.706041
v -464.847382 396.262817 -38.102219
v -464.847382 304.710938 -38.102219
v -464.847382 297.090424 -60.963516
v -464.847382 15.240915 -60.963516
v -464.847748 15.240879 0.000000
v -354.351196 338.593811 -802.653381
v -354.351196 315.859009 -800.253052
v -354.351013 320.058472 -760.443726
v -354.351013 15.240912 -760.443726
v -354.351196 15.240889 -798.545898
v -354.351196 0.000001 -798.545959
v -354.351196 0.000005 0.000000
v -354.351196 15.240879 0.000000
v -354.351013 15.240912 -60.963516
v -354.351013 297.090485 -60.963547
v -354.351013 304.710938 -38.102219
v -354.351013 396.262817 -38.102219
v -354.351196 400.462616 1.706041
v -354.351196 423.197357 -0.692436
v -232.423859 338.593811 -802.653381
v -232.423859 315.859039 -800.253052
v -232.423935 320.058472 -760.443726
v -232.423935 15.240908 -760.443726
v -232.423859 15.240890 -798.545898
v -232.423859 0.000002 -798.545959
v -232.423859 0.000004 0.000000
v -232.423859 15.240879 0.000000
v -232.423935 15.240908 -60.963516
v -232.423935 297.090515 -60.963554
v -232.423935 304.710938 -38.102219
v -232.423935 396.262817 -38.102219
v -232.423859 400.462616 1.706041
v -232.423859 423.197357 -0.692436
v -110.496841 338.593811 -802.653381
v -110.496841 315.858948 -800.253052
v -110.496964 320.058472 -760.443726
v -110.496964 15.240906 -760.443726
v -110.496841 15.240891 -798.545837
v -110.496841 0.000002 -798.545898
v -110.496826 0.000003 0.000000
v -110.496826 15.240879 0.000000
v -121.927589 15.240906 -60.963516
v -110.496941 297.090515 -60.963558
v -110.496941 304.710938 -38.102219
v -110.496941 396.262817 -38.102219
v -110.496826 400.462616 1.706041
v -110.496826 423.197357 -0.692435
v -99.066292 15.240906 -60.963516
v 110.495987 338.593811 -802.653381
v 110.495987 315.858887 -800.253052
v 110.495865 320.058472 -760.443726
v 110.495865 15.240896 -760.443726
v 110.495972 15.240891 -798.545898
v 110.495972 0.000003 -798.545898
v 110.495972 0.000002 0.000000
v 110.495972 15.240878 0.000000
v 99.065216 15.240896 -60.963516
v 110.495865 297.090576 -60.963562
v 110.495865 304.710907 -38.102219
v 110.495865 396.262878 -38.102215
v 110.495987 400.462616 1.706041
v 110.495987 423.197357 -0.692436
v 121.926521 15.240895 -60.963509
v 223.206177 338.593811 -802.653381
v 223.206177 315.859009 -800.253052
v 223.206146 320.058502 -760.443726
v 232.422958 15.240891 -760.443726
v 232.423035 15.240891 -798.545898
v 232.423035 0.000004 -798.545898
v 232.423035 0.000002 0.000000
v 232.423035 15.240879 0.000000
v 232.422958 15.240891 -60.963516
v 223.206146 297.090607 -60.963570
v 202.558670 304.710907 -38.102219
v 202.558670 396.262878 -38.102215
v 223.206177 400.462616 1.706041
v 223.206177 423.197357 -0.692436
v 243.853638 304.710907 -38.102219
v 243.853638 396.262878 -38.102215
v 354.350159 338.593811 -802.653381
v 354.350159 315.858887 -800.253052
v 354.349976 320.058502 -760.443726
v 354.349976 15.240891 -760.443726
v 354.350159 15.240891 -798.545898
v 354.350159 0.000005 -798.545898
v 354.350159 0.000001 0.000000
v 354.350159 15.240879 0.000000
v 354.349976 15.240891 -60.963516
v 354.349976 297.090637 -60.963570
v 354.349976 304.710938 -38.102219
v 354.349976 396.262878 -38.102215
v 354.350159 400.462616 1.706041
v 354.350159 423.197357 -0.692436
v 472.413483 338.593811 -802.653381
v 472.413544 315.858887 -800.253052
v 472.413544 320.058502 -760.443726
v 464.846588 15.240889 -760.443726
v 464.846649 15.240891 -798.545898
v 464.846649 0.000005 -798.545898
v 464.846649 0.000000 0.000000
v 464.846649 15.240879 0.000000
v 464.846588 15.240889 -60.963516
v 472.413544 297.090637 -60.963570
v 472.413544 304.710907 -38.102219
v 472.413544 396.262878 -38.102215
v 472.413544 400.462616 1.706041
v 472.413544 423.197357 -0.692436
v -533.469238 205.752014 -60.963516
v -464.847382 205.752014 -60.963516
v -365.781647 205.752014 -60.963516
v -342.920410 205.752014 -60.963516
v -243.854599 205.752014 -60.963554
v -220.993271 205.752014 -60.963554
v -121.927589 205.752014 -60.963554
v -99.066292 205.752014 -60.963554
v 99.065216 205.752014 -60.963558
v 121.926521 205.752014 -60.963558
v 220.992279 205.752014 -60.963562
v 243.853638 205.752014 -60.963562
v 342.919312 205.752014 -60.963562
v 365.780670 205.752014 -60.963562
v 464.846588 205.752014 -60.963562
v 533.468445 205.752014 -60.963570
v -464.847382 38.102215 -60.963516
v -365.781647 38.102215 -60.963516
v -342.920410 38.102215 -60.963516
v -243.854599 38.102215 -60.963547
v -220.993271 38.102215 -60.963547
v -121.927589 38.102215 -60.963547
v -99.066292 38.102215 -60.963547
v 99.065216 38.102215 -60.963547
v 121.926521 38.102215 -60.963516
v 220.992279 38.102215 -60.963547
v 243.853638 38.102215 -60.963547
v 342.919312 38.102215 -60.963547
v 365.780670 38.102215 -60.963547
v 464.846588 38.102215 -60.963547
v 204.768509 306.920837 -30.989323
v 204.768509 394.052979 -30.989311
v 243.853638 306.920837 -30.989321
v 243.853638 394.052979 -30.989309
v 354.349976 306.920959 -30.989323
v 354.349976 394.052979 -30.989311
v 470.203430 306.920837 -30.989323
v 470.203430 394.052979 -30.989311
v -456.464905 197.369476 -74.299294
v -374.164154 197.369476 -74.299294
v -456.464905 46.484692 -74.299294
v -374.164154 46.484692 -74.299294
v -334.537903 197.369476 -74.299294
v -252.237122 197.369476 -74.299309
v -334.537933 46.484692 -74.299294
v -252.237122 46.484692 -74.299301
v -212.610825 197.369476 -74.299309
v -130.310074 197.369476 -74.299309
v -212.610825 46.484692 -74.299301
v -130.310074 46.484692 -74.299301
v 130.309021 197.369476 -74.299316
v 212.609787 197.369476 -74.299324
v 130.309021 46.484688 -74.299294
v 212.609787 46.484688 -74.299301
v 252.236115 197.369476 -74.299324
v 334.536804 197.369476 -74.299324
v 252.236115 46.484692 -74.299301
v 334.536804 46.484692 -74.299301
v 374.163208 197.369476 -74.299324
v 456.463959 197.369476 -74.299324
v 374.163208 46.484692 -74.299301
v 456.463959 46.484692 -74.299301
v -92.598450 199.438248 -77.880920
v 92.597366 199.438248 -77.880936
v -92.598450 37.344555 -77.880920
v 92.597366 37.344555 -77.880920
v -92.598450 15.240891 -77.880905
v 92.597366 15.240885 -77.880905
v -0.000356 338.593811 -802.653381
v -0.000361 423.197357 -0.692436
v -0.000361 400.462616 1.706041
v -0.000536 396.262878 -38.102219
v -0.000536 304.710907 -38.102219
v -0.000536 297.090546 -60.963558
v -0.000536 205.752014 -60.963558
v -0.000536 199.438248 -77.880928
v -0.000536 37.344555 -77.880920
v -0.000536 15.240890 -77.880905
v -0.000536 15.240901 -60.963516
v -0.000367 15.240879 0.000000
v -0.000367 0.000003 0.000000
v -0.000367 0.000003 -798.545898
v -0.000367 15.240891 -798.545898
v -0.000536 15.240901 -760.443726
v -0.000536 320.058441 -760.443726
v -0.000361 315.858887 -800.253052
v -464.847382 285.022247 -60.963531
v -533.469177 285.022217 -60.963516
v 533.468445 285.022461 -60.963570
v 471.413727 285.022461 -60.963570
v 354.349976 285.022430 -60.963570
v 224.423920 285.022400 -60.963570
v 110.495880 285.022369 -60.963562
v -0.000536 285.022339 -60.963558
v -110.496941 285.022339 -60.963558
v -232.423935 285.022339 -60.963554
v -354.351013 285.022308 -60.963539
v -533.469238 268.222534 -60.963516
v -464.847382 268.222565 -60.963531
v -354.351013 268.222626 -60.963535
v -232.423935 268.222656 -60.963554
v -110.496941 268.222656 -60.963558
v -0.000536 268.222656 -60.963558
v 110.495880 268.222656 -60.963558
v 226.119171 268.222687 -60.963570
v 354.349976 268.222687 -60.963570
v 470.021973 268.222717 -60.963570
v 533.468445 268.222717 -60.963570
v -464.847382 248.155930 81.827904
v -464.847382 231.356247 81.827904
v -354.351013 231.356323 81.827911
v -533.469238 231.356232 81.827911
v -533.469177 248.155899 81.827911
v -354.351013 248.156052 81.827896
v -232.423920 231.356323 81.827873
v -232.423920 248.156036 81.827873
v -110.496941 231.356323 81.827866
v -110.496941 248.156052 81.827866
v -0.000536 248.156067 81.827881
v -0.000536 231.356339 81.827881
v 110.495888 231.356369 81.827881
v 110.495888 248.156113 81.827881
v 226.119171 231.356384 81.827850
v 224.423920 248.156128 81.827850
v 354.349976 231.356400 81.827850
v 354.349976 248.156143 81.827850
v 471.413727 248.156174 81.827858
v 470.021973 231.356430 81.827858
v 533.468445 248.156174 81.827850
v 533.468445 231.356430 81.827850
vt 0.089296 0.614985
vt 0.090850 0.614985
vt 0.090850 0.626247
vt 0.089296 0.626247
vt 0.172244 0.614985
vt 0.173798 0.614985
vt 0.173798 0.626247
vt 0.172244 0.626247
vt 0.090850 0.720625
vt 0.172244 0.720625
vt 0.173798 0.720625
vt 0.089296 0.720625
vt 0.172244 0.604106
vt 0.090850 0.604106
vt 0.089296 0.604106
vt 0.172244 0.602553
vt 0.065087 0.619895
vt 0.065501 0.631442
vt 0.177682 0.716741
vt 0.068046 0.725254
vt 0.070009 0.524445
vt 0.069269 0.535708
vt 0.064900 0.613280
vt 0.068792 0.542689
vt 0.204695 0.609288
vt 0.204695 0.598025
vt 0.205123 0.582378
vt 0.205123 0.571115
vt 0.190091 0.480621
vt 0.044963 0.798993
vt 0.189663 0.699783
vt 0.037843 0.540898
vt 0.190091 0.589373
vt 0.189663 0.591031
vt 0.024487 0.620420
vt 0.033542 0.620877
vt 0.033786 0.632240
vt 0.024326 0.632303
vt 0.038872 0.727253
vt 0.083496 0.470163
vt 0.035670 0.612974
vt 0.083671 0.579247
vt 0.035979 0.620563
vt 0.036278 0.632146
vt 0.036915 0.725845
vt 0.033782 0.614469
vt 0.174418 0.466230
vt 0.089906 0.463839
vt 0.174378 0.560746
vt 0.038924 0.522542
vt 0.178482 0.572001
vt 0.174401 0.572002
vt 0.087789 0.582477
vt 0.172097 0.585407
vt 0.087585 0.466266
vt 0.087790 0.582477
vt 0.087539 0.572061
vt 0.087485 0.560828
vt 0.172088 0.466228
vt 0.089903 0.466170
vt 0.172047 0.560746
vt 0.172071 0.572004
vt 0.089940 0.583196
vt 0.172095 0.583076
vt 0.089878 0.572082
vt 0.089821 0.560813
vt 0.205123 0.589373
vt 0.204695 0.591031
vt 0.172034 0.548329
vt 0.174365 0.548330
vt 0.039689 0.510071
vt 0.070806 0.512000
vt 0.173798 0.638675
vt 0.172244 0.638675
vt 0.090850 0.638675
vt 0.089296 0.638675
vt 0.065960 0.644159
vt 0.206835 0.558687
vt 0.205123 0.558687
vt 0.036638 0.645122
vt 0.034150 0.645189
vt 0.024717 0.645416
vt 0.087480 0.548376
vt 0.089811 0.548374
vt 0.172031 0.535913
vt 0.174362 0.535914
vt 0.040462 0.497608
vt 0.071594 0.499548
vt 0.173798 0.651103
vt 0.172244 0.651103
vt 0.090850 0.651103
vt 0.089296 0.651103
vt 0.066528 0.655765
vt 0.206835 0.546260
vt 0.205123 0.546260
vt 0.037003 0.658156
vt 0.034528 0.658219
vt 0.025134 0.658494
vt 0.087486 0.535931
vt 0.089816 0.535934
vt 0.083082 0.652268
vt 0.172041 0.513404
vt 0.174371 0.513406
vt 0.174365 0.524661
vt 0.172034 0.524659
vt 0.041870 0.475025
vt 0.178446 0.524664
vt 0.177682 0.673628
vt 0.173798 0.673628
vt 0.173798 0.662366
vt 0.072303 0.488260
vt 0.172244 0.662366
vt 0.172244 0.673628
vt 0.090850 0.662366
vt 0.090850 0.673628
vt 0.089296 0.662366
vt 0.089296 0.673628
vt 0.083082 0.662366
vt 0.083082 0.672463
vt 0.206835 0.523734
vt 0.204695 0.645407
vt 0.205123 0.534997
vt 0.205123 0.523734
vt 0.034872 0.670028
vt 0.037334 0.669964
vt 0.037662 0.681795
vt 0.035227 0.681855
vt 0.025496 0.670305
vt 0.083423 0.513380
vt 0.087495 0.524657
vt 0.087504 0.513385
vt 0.089825 0.524660
vt 0.089834 0.513388
vt 0.067362 0.682699
vt 0.172049 0.501922
vt 0.174380 0.501924
vt 0.042590 0.463509
vt 0.073792 0.464515
vt 0.173798 0.686056
vt 0.172244 0.686056
vt 0.090850 0.686056
vt 0.089296 0.686056
vt 0.067387 0.694334
vt 0.206835 0.512121
vt 0.205123 0.511948
vt 0.038000 0.694030
vt 0.035345 0.691880
vt 0.026054 0.691660
vt 0.087513 0.501888
vt 0.089843 0.501892
vt 0.035625 0.696426
vt 0.026483 0.692365
vt 0.034816 0.692577
vt 0.034856 0.696515
vt 0.025873 0.696568
vt 0.025101 0.696483
vt 0.172061 0.488561
vt 0.174392 0.488563
vt 0.043428 0.450109
vt 0.074572 0.452058
vt 0.173798 0.698484
vt 0.172244 0.698484
vt 0.090850 0.698484
vt 0.089296 0.698484
vt 0.067621 0.707059
vt 0.206835 0.498878
vt 0.205123 0.498878
vt 0.038421 0.708016
vt 0.035919 0.707996
vt 0.035133 0.707985
vt 0.025959 0.708814
vt 0.025195 0.708915
vt 0.087528 0.488512
vt 0.089859 0.488517
vt 0.172075 0.476530
vt 0.174405 0.476533
vt 0.044183 0.438046
vt 0.075278 0.440768
vt 0.173798 0.709747
vt 0.172244 0.709747
vt 0.090850 0.709747
vt 0.089296 0.709747
vt 0.067842 0.718624
vt 0.206835 0.486946
vt 0.205123 0.487088
vt 0.038857 0.720364
vt 0.036440 0.720197
vt 0.035838 0.719676
vt 0.027626 0.720577
vt 0.027185 0.721295
vt 0.087549 0.476477
vt 0.089883 0.476479
vt 0.206835 0.480621
vt 0.205123 0.480621
vt 0.062751 0.619884
vt 0.045206 0.620080
vt 0.045126 0.613124
vt 0.046696 0.629384
vt 0.046604 0.621401
vt 0.061501 0.621281
vt 0.061697 0.629090
vt 0.045482 0.633121
vt 0.045422 0.630824
vt 0.063119 0.630382
vt 0.063202 0.632622
vt 0.047071 0.642406
vt 0.046902 0.634424
vt 0.061946 0.634044
vt 0.062152 0.641870
vt 0.045890 0.646172
vt 0.045805 0.643866
vt 0.063585 0.643137
vt 0.063676 0.645382
vt 0.047644 0.655502
vt 0.047334 0.647462
vt 0.062436 0.646833
vt 0.062742 0.654697
vt 0.046571 0.659311
vt 0.046397 0.656994
vt 0.064197 0.655941
vt 0.064345 0.658180
vt 0.048523 0.678782
vt 0.048186 0.669778
vt 0.064890 0.669277
vt 0.065131 0.678570
vt 0.047142 0.682632
vt 0.047166 0.680313
vt 0.065038 0.680404
vt 0.065026 0.682652
vt 0.048552 0.692042
vt 0.048542 0.683985
vt 0.063715 0.684044
vt 0.063639 0.691914
vt 0.047301 0.695784
vt 0.047249 0.693476
vt 0.065033 0.693233
vt 0.065069 0.695483
vt 0.048845 0.705094
vt 0.048714 0.697105
vt 0.063790 0.696893
vt 0.063854 0.704725
vt 0.047649 0.708837
vt 0.047571 0.706539
vt 0.065264 0.706008
vt 0.065309 0.708251
vt 0.049269 0.718122
vt 0.049067 0.710137
vt 0.064042 0.709683
vt 0.064112 0.717515
vt 0.048320 0.726555
vt 0.048018 0.719583
vt 0.065510 0.718772
vt 0.081358 0.662366
vt 0.067393 0.678557
vt 0.046327 0.669830
vt 0.064552 0.660002
vt 0.048012 0.660760
vt 0.081358 0.652927
vt 0.189663 0.598025
vt 0.189663 0.693458
vt 0.189663 0.681525
vt 0.189663 0.668282
vt 0.189663 0.656670
vt 0.189663 0.645407
vt 0.189663 0.634144
vt 0.189663 0.621716
vt 0.189663 0.609288
vt 0.190091 0.582378
vt 0.190091 0.571115
vt 0.190091 0.558687
vt 0.190091 0.546260
vt 0.190091 0.534997
vt 0.190091 0.523734
vt 0.190091 0.511948
vt 0.190091 0.498878
vt 0.190091 0.487088
vt 0.083415 0.524650
vt 0.025857 0.682027
vt 0.178452 0.513410
vt 0.041165 0.486316
vt 0.083470 0.476450
vt 0.028539 0.727278
vt 0.178486 0.476537
vt 0.168015 0.459814
vt 0.083447 0.488504
vt 0.178472 0.488567
vt 0.083435 0.499777
vt 0.178461 0.501928
vt 0.083431 0.503989
vt 0.083406 0.535924
vt 0.178443 0.535917
vt 0.083400 0.548372
vt 0.178446 0.548331
vt 0.083404 0.560837
vt 0.178459 0.560745
vt 0.083456 0.572168
vt 0.038247 0.533857
vt 0.025362 0.613536
vt 0.178493 0.578994
vt 0.089942 0.585526
vt 0.174423 0.583075
vt 0.172090 0.463897
vt 0.087585 0.466266
vt 0.094023 0.589600
vt 0.168022 0.589493
vt 0.178493 0.470314
vt 0.093989 0.459762
vt 0.177681 0.662366
vt 0.073011 0.476972
vt 0.067153 0.669203
vt 0.081358 0.671804
vt 0.066809 0.659872
vt 0.067379 0.680399
vt 0.066685 0.658043
vt 0.083082 0.709747
vt 0.097064 0.726062
vt 0.177682 0.709747
vt 0.075717 0.795676
vt 0.083082 0.698484
vt 0.177682 0.698484
vt 0.083082 0.686056
vt 0.177681 0.686056
vt 0.083082 0.674793
vt 0.177681 0.651103
vt 0.083082 0.649938
vt 0.083082 0.638675
vt 0.177681 0.638675
vt 0.083082 0.626247
vt 0.177682 0.626247
vt 0.083082 0.614985
vt 0.177681 0.614985
vt 0.083082 0.607990
vt 0.168361 0.598669
vt 0.173798 0.604106
vt 0.177682 0.607990
vt 0.172244 0.722179
vt 0.168361 0.726062
vt 0.090850 0.722179
vt 0.083082 0.716741
vt 0.090850 0.602553
vt 0.097064 0.598669
vt 0.041670 0.720223
vt 0.041864 0.726976
vt 0.041319 0.707889
vt 0.040933 0.694174
vt 0.040563 0.681724
vt 0.040226 0.670002
vt 0.039893 0.658294
vt 0.039521 0.645179
vt 0.039156 0.632129
vt 0.038836 0.620305
vt 0.038667 0.613055
vt 0.040124 0.727137
vt 0.036925 0.613030
vt 0.037524 0.632093
vt 0.037152 0.620421
vt 0.037885 0.645088
vt 0.038243 0.658125
vt 0.038567 0.669933
vt 0.038891 0.681745
vt 0.039265 0.694095
vt 0.039663 0.708035
vt 0.040027 0.720328
vt 0.206835 0.534997
vt 0.204695 0.634144
vt 0.204695 0.699783
vt 0.204695 0.478963
vt 0.204695 0.693458
vt 0.189663 0.478963
vt 0.204695 0.681525
vt 0.204695 0.668282
vt 0.204695 0.656670
vt 0.204695 0.621716
vt 0.206835 0.571115
vt 0.206835 0.589373
vt 0.206835 0.582378
vt 0.075717 0.433757
vt 0.044573 0.431808
vn 0.000000 0.000000 1.000000
vn 0.000000 0.000000 1.000000
vn 0.000000 0.000000 1.000000
vn 0.000000 0.000000 1.000000
vn 0.000000 0.000004 -1.000000
vn 0.000000 0.000004 -1.000000
vn 0.000001 0.000004 -1.000000
vn 0.000001 0.000004 -1.000000
vn 0.000000 -1.000000 0.000000
vn 0.000000 -1.000000 0.000000
vn -0.000000 -1.000000 0.000000
vn -0.000000 -1.000000 0.000000
vn 1.000000 0.000000 0.000000
vn 1.000000 0.000000 0.000000
vn 1.000000 0.000000 0.000000
vn 1.000000 0.000000 0.000000
vn -1.000000 -0.000000 0.000000
vn -1.000000 -0.000000 0.000000
vn -1.000000 -0.000000 0.000000
vn -1.000000 -0.000000 0.000000
vn 0.000000 1.000000 0.000001
vn 0.000000 1.000000 0.000001
vn 0.000000 1.000000 0.000001
vn 0.000000 1.000000 0.000001
vn -0.000000 1.000000 0.000000
vn -0.000000 1.000000 0.000000
vn -0.000000 1.000000 0.000000
vn -0.000000 1.000000 0.000000
vn 0.000000 1.000000 -0.000001
vn 0.000000 1.000000 -0.000001
vn -0.000000 1.000000 -0.000001
vn -0.000000 1.000000 -0.000001
vn -0.000001 1.000000 -0.000000
vn -0.000001 1.000000 0.000000
vn -0.000001 1.000000 0.000000
vn -0.000001 1.000000 -0.000000
vn 0.000000 0.000000 1.000000
vn 0.000000 0.000000 1.000000
vn 0.000000 0.000000 1.000000
vn 0.000000 0.000000 1.000000
vn 1.000000 0.000000 0.000000
vn 1.000000 -0.000000 0.000000
vn 1.000000 0.000000 0.000000
vn -1.000000 0.000000 0.000000
vn -1.000000 0.000000 0.000000
vn -1.000000 0.000006 0.000001
vn 0.000000 0.000000 1.000000
vn 0.000000 0.000000 1.000000
vn 0.000000 0.000000 1.000000
vn 0.000000 0.000000 1.000000
vn 1.000000 -0.000000 0.000000
vn 1.000000 -0.000000 0.000000
vn -1.000000 -0.000002 0.000000
vn -1.000000 -0.000004 0.000000
vn 0.000000 -0.948682 0.316230
vn 0.000000 -0.948682 0.316230
vn 0.000000 -0.948683 0.316228
vn 0.000000 -0.948683 0.316228
vn 1.000000 0.000000 0.000000
vn -1.000000 0.000000 -0.000016
vn 0.000003 -0.994481 0.104914
vn 0.000003 -0.994481 0.104914
vn 0.000003 -0.994481 0.104914
vn 0.000003 -0.994481 0.104914
vn 0.000000 -0.994482 0.104908
vn 0.000000 -0.994482 0.104908
vn 0.000000 -0.994482 0.104909
vn 0.000000 -0.994482 0.104909
vn -0.000004 -0.994481 0.104914
vn -0.000004 -0.994481 0.104914
vn -0.000004 -0.994481 0.104914
vn -0.000004 -0.994481 0.104914
vn 0.000000 0.000000 0.000000
vn 0.000000 0.000000 0.000000
vn 0.000000 0.000000 0.000000
vn 0.000000 0.000000 0.000000
vn 0.000000 0.000000 0.000000
vn 0.000000 0.000000 0.000000
vn 0.000000 -0.994481 0.104919
vn 0.000000 -0.994481 0.104919
vn 0.000000 -0.994481 0.104918
vn 0.000000 -0.994481 0.104918
vn 1.000000 0.000000 0.000000
vn 1.000000 0.000000 0.000000
vn 1.000000 0.000000 0.000000
vn 1.000000 0.000000 0.000000
vn -0.000000 -0.104996 -0.994473
vn -0.000000 -0.104996 -0.994473
vn 0.000000 -0.104995 -0.994473
vn 0.000000 -0.104995 -0.994473
vn -1.000000 -0.000000 0.000000
vn -1.000000 -0.000000 0.000000
vn -1.000000 -0.000000 0.000000
vn -1.000000 -0.000000 0.000000
vn 0.139255 -0.990257 0.000000
vn 0.139255 -0.990257 0.000000
vn 0.000000 -0.000000 0.000000
vn -0.139255 -0.990257 0.000000
vn -0.139255 -0.990257 0.000000
vn -0.000000 -0.000000 0.000000
vn -0.000000 0.104916 0.994481
vn -0.000000 0.104916 0.994481
vn 0.000000 0.104916 0.994481
vn 0.000000 0.104916 0.994481
vn 0.000000 0.994481 -0.104914
vn 0.000000 0.994481 -0.104914
vn 0.000000 0.994481 -0.104914
vn 0.000000 0.994481 -0.104914
vn 0.000000 -1.000000 0.000000
vn 0.000000 -1.000000 0.000000
vn -0.000001 0.000004 -1.000000
vn -0.000001 0.000004 -1.000000
vn 0.000000 -0.994482 0.104910
vn 0.000000 -0.994482 0.104910
vn 0.000000 -0.104995 -0.994473
vn 0.000000 -0.104995 -0.994473
vn 0.000000 0.994481 -0.104914
vn 0.000000 0.994481 -0.104914
vn -0.000000 0.104916 0.994481
vn -0.000000 0.104916 0.994481
vn 0.000000 -0.994481 0.104918
vn 0.000000 -0.994481 0.104918
vn 0.000000 0.000000 1.000000
vn 0.000000 0.000000 1.000000
vn 0.000000 -0.948682 0.316232
vn 0.000000 -0.948682 0.316232
vn 0.000000 -0.000000 1.000000
vn 0.000000 -0.000000 1.000000
vn 0.000000 0.000000 1.000000
vn 0.000000 0.000000 1.000000
vn 0.000000 -0.104996 -0.994473
vn 0.000000 -0.104996 -0.994473
vn -0.000000 -0.994482 0.104908
vn -0.000000 -0.994482 0.104908
vn 0.000000 1.000000 -0.000000
vn 0.000000 1.000000 -0.000000
vn -0.000000 0.000004 -1.000000
vn -0.000000 0.000004 -1.000000
vn -0.000000 -1.000000 0.000000
vn -0.000000 -1.000000 0.000000
vn -0.000000 0.000000 1.000000
vn -0.000000 0.000000 1.000000
vn 0.000000 1.000000 0.000000
vn 0.000000 1.000000 0.000000
vn 0.000000 0.000000 1.000000
vn 0.000000 0.000000 1.000000
vn 0.000000 -0.948684 0.316227
vn 0.000000 -0.948684 0.316227
vn 0.000000 0.000000 1.000000
vn 0.000000 0.000000 1.000000
vn 0.000000 -0.994481 0.104918
vn 0.000000 -0.994481 0.104918
vn -0.000000 0.104916 0.994481
vn -0.000000 0.104916 0.994481
vn 0.000000 0.994481 -0.104914
vn 0.000000 0.994481 -0.104914
vn 0.000000 -0.104996 -0.994473
vn 0.000000 -0.104996 -0.994473
vn -0.000000 -0.994482 0.104908
vn -0.000000 -0.994482 0.104908
vn 0.000000 1.000000 -0.000000
vn 0.000000 1.000000 -0.000000
vn 0.000000 0.000003 -1.000000
vn 0.000000 0.000003 -1.000000
vn -0.000000 -1.000000 0.000000
vn -0.000000 -1.000000 0.000000
vn 0.000000 0.000000 1.000000
vn 0.000000 0.000000 1.000000
vn 0.000000 1.000000 0.000000
vn 0.000000 1.000000 0.000000
vn -0.000000 0.000000 1.000000
vn -0.000000 0.000000 1.000000
vn 0.000000 -0.948684 0.316227
vn 0.000000 -0.948684 0.316227
vn -0.000000 0.000000 1.000000
vn -0.000000 0.000000 1.000000
vn 0.000000 -0.994481 0.104918
vn 0.000000 -0.994481 0.104918
vn 0.000000 0.104916 0.994481
vn 0.000000 0.104916 0.994481
vn 0.000000 0.994481 -0.104914
vn 0.000000 0.994481 -0.104914
vn 0.000000 1.000000 0.000000
vn 0.000000 -0.104996 -0.994473
vn 0.000000 -0.104996 -0.994473
vn 0.000000 -0.104995 -0.994473
vn 0.000000 -0.104995 -0.994473
vn 0.000000 -0.994482 0.104909
vn 0.000000 -0.994482 0.104909
vn -0.000000 -0.994482 0.104909
vn -0.000000 -0.994482 0.104909
vn 0.000000 1.000000 -0.000000
vn 0.000000 1.000000 -0.000000
vn 0.000000 1.000000 -0.000000
vn 0.000000 1.000000 -0.000000
vn 0.000000 0.000001 -1.000000
vn 0.000000 0.000001 -1.000000
vn -0.000000 0.000000 -1.000000
vn -0.000000 0.000000 -1.000000
vn -0.000000 -1.000000 0.000000
vn -0.000000 -1.000000 0.000000
vn 0.000000 -1.000000 -0.000000
vn 0.000000 -1.000000 -0.000000
vn 0.000000 0.000000 1.000000
vn 0.000000 0.000000 1.000000
vn 0.000000 0.000000 1.000000
vn 0.000000 0.000000 1.000000
vn 0.000000 1.000000 0.000000
vn 0.000000 1.000000 0.000000
vn 0.000000 1.000000 0.000000
vn 0.000000 1.000000 0.000000
vn 0.000000 0.000000 1.000000
vn -0.000000 0.000000 1.000000
vn -0.000000 0.000000 1.000000
vn 0.000000 0.000000 1.000000
vn 0.000000 -0.948684 0.316226
vn 0.000000 -0.948684 0.316226
vn 0.000000 -0.948685 0.316223
vn 0.000000 -0.948685 0.316223
vn -0.000000 -0.000000 1.000000
vn -0.000000 -0.000000 1.000000
vn 0.000000 -0.000000 1.000000
vn 0.000000 -0.000000 1.000000
vn 0.000000 -0.994481 0.104918
vn 0.000000 -0.994481 0.104918
vn -0.000000 -0.994481 0.104918
vn -0.000000 -0.994481 0.104918
vn 0.000000 0.104916 0.994481
vn 0.000000 0.104916 0.994481
vn -0.000000 0.104916 0.994481
vn -0.000000 0.104916 0.994481
vn 0.000000 0.994481 -0.104914
vn 0.000000 0.994481 -0.104914
vn 0.000000 0.994481 -0.104914
vn 0.000000 0.994481 -0.104914
vn 0.000000 1.000000 0.000000
vn 0.000000 -0.104996 -0.994473
vn 0.000000 -0.104996 -0.994473
vn 0.000000 -0.994482 0.104909
vn 0.000000 -0.994482 0.104909
vn 0.000000 1.000000 -0.000000
vn 0.000000 1.000000 -0.000000
vn -0.000000 0.000000 -1.000000
vn -0.000000 0.000000 -1.000000
vn 0.000000 -1.000000 -0.000000
vn 0.000000 -1.000000 -0.000000
vn 0.000000 0.000000 1.000000
vn 0.000000 0.000000 1.000000
vn 0.000000 1.000000 0.000000
vn 0.000000 1.000000 0.000000
vn 0.000000 0.000000 1.000000
vn 0.000000 0.000000 1.000000
vn 0.000000 -0.948685 0.316222
vn 0.000000 -0.949071 0.315062
vn 0.000000 -0.000000 1.000000
vn 0.000000 -0.000000 1.000000
vn 0.000000 -0.994481 0.104918
vn 0.000000 -0.994481 0.104917
vn 0.000000 0.104916 0.994481
vn 0.000000 0.104916 0.994481
vn 0.000000 0.994481 -0.104914
vn 0.000000 0.994481 -0.104914
vn 0.000000 -0.949972 0.312335
vn -0.000000 -0.000000 1.000000
vn -0.000000 -0.000000 1.000000
vn -0.000000 -0.000000 1.000000
vn 0.000000 -0.000000 1.000000
vn 0.000000 -0.994481 0.104916
vn 0.000000 -0.104996 -0.994473
vn 0.000000 -0.104996 -0.994473
vn -0.000000 -0.994482 0.104911
vn -0.000000 -0.994482 0.104911
vn 0.000000 1.000000 0.000000
vn 0.000000 1.000000 0.000000
vn -0.000000 0.000000 -1.000000
vn -0.000000 0.000000 -1.000000
vn 0.000000 -1.000000 -0.000000
vn 0.000000 -1.000000 -0.000000
vn 0.000000 0.000000 1.000000
vn 0.000000 0.000000 1.000000
vn 0.000000 1.000000 0.000000
vn 0.000000 1.000000 0.000000
vn -0.000000 0.000000 1.000000
vn -0.000000 0.000000 1.000000
vn 0.000000 -0.948685 0.316222
vn 0.000000 -0.950149 0.311796
vn 0.000000 -0.000000 1.000000
vn 0.000000 -0.000000 1.000000
vn 0.000000 -0.994481 0.104917
vn 0.000000 -0.994481 0.104917
vn 0.000000 0.104916 0.994481
vn 0.000000 0.104916 0.994481
vn 0.000000 0.994481 -0.104914
vn 0.000000 0.994481 -0.104914
vn 0.000000 -0.104995 -0.994473
vn 0.000000 -0.104995 -0.994473
vn 0.000000 -0.994482 0.104911
vn 0.000000 -0.994482 0.104911
vn 0.000000 1.000000 0.000000
vn 0.000000 1.000000 0.000000
vn -0.000000 0.000000 -1.000000
vn -0.000000 0.000000 -1.000000
vn 0.000000 -1.000000 -0.000000
vn 0.000000 -1.000000 -0.000000
vn 0.000000 0.000000 1.000000
vn 0.000000 0.000000 1.000000
vn 0.000000 1.000000 0.000000
vn 0.000000 1.000000 0.000000
vn 0.000000 -0.000000 1.000000
vn -0.000000 0.000000 1.000000
vn -0.000000 -0.948685 0.316222
vn -0.000000 -0.949598 0.313469
vn 0.000000 -0.000000 1.000000
vn 0.000000 -0.000000 1.000000
vn 0.000000 -0.994481 0.104917
vn 0.000000 -0.994481 0.104917
vn 0.000000 0.104916 0.994481
vn 0.000000 0.104916 0.994481
vn 0.000000 0.994481 -0.104914
vn 0.000000 0.994481 -0.104914
vn 0.000000 -0.104995 -0.994473
vn 0.000000 -0.104995 -0.994473
vn 0.000000 -0.994482 0.104911
vn 0.000000 -0.994482 0.104911
vn -0.000001 0.000000 -1.000000
vn -0.000001 0.000000 -1.000000
vn 0.000000 -1.000000 -0.000000
vn 0.000000 -1.000000 -0.000000
vn 0.000000 0.000000 1.000000
vn 0.000000 0.000000 1.000000
vn 0.000000 -0.000000 1.000000
vn 0.000000 -0.000000 1.000000
vn 0.000000 -0.948686 0.316220
vn 0.000000 -0.948686 0.316220
vn 0.000000 -0.000000 1.000000
vn 0.000000 -0.000000 1.000000
vn 0.000000 -0.000000 1.000000
vn 0.000000 -0.000000 1.000000
vn 0.000000 -0.994481 0.104917
vn 0.000000 -0.994481 0.104917
vn 0.000000 0.104916 0.994481
vn 0.000000 0.104916 0.994481
vn 0.000000 0.994481 -0.104914
vn 0.000000 0.994481 -0.104914
vn 0.000000 0.000000 1.000000
vn 0.000000 0.000000 1.000000
vn 0.000000 0.000000 1.000000
vn 0.000000 0.000000 1.000000
vn 0.000000 0.000000 1.000000
vn 0.000000 0.000000 1.000000
vn 0.000000 0.000000 1.000000
vn 0.000000 0.000000 1.000000
vn 0.000000 0.000000 1.000000
vn 0.000000 0.000000 1.000000
vn 0.000000 0.000000 1.000000
vn 0.000000 0.000000 1.000000
vn 0.000000 0.000000 1.000000
vn 0.000000 0.000000 1.000000
vn 0.000000 0.000000 1.000000
vn 0.000000 0.000000 1.000000
vn 0.000000 0.000000 1.000000
vn 0.000000 0.000000 1.000000
vn 0.000000 0.000000 1.000000
vn 0.000000 0.000001 1.000000
vn 0.000000 0.000000 1.000000
vn 0.000000 0.000000 1.000000
vn 0.000000 0.000000 1.000000
vn 0.000000 0.000000 1.000000
vn 0.000000 0.000000 1.000000
vn 0.000000 0.000000 1.000000
vn 0.000000 0.000001 1.000000
vn 0.000000 0.000000 1.000000
vn 0.000000 0.000000 1.000000
vn 0.000000 0.000000 1.000000
vn 0.000000 0.000000 1.000000
vn 0.000000 0.000000 1.000000
vn -0.000000 0.000000 1.000000
vn -0.000000 0.000000 1.000000
vn -0.000001 0.000000 1.000000
vn -0.000000 0.000000 1.000000
vn 0.000000 0.000000 1.000000
vn 0.000000 0.000000 1.000000
vn 0.000000 0.000000 1.000000
vn 0.000000 0.000000 1.000000
vn 0.000000 0.000000 1.000000
vn 0.000000 0.000000 1.000000
vn 0.000000 0.000000 1.000000
vn 0.000000 0.000001 1.000000
vn 0.000000 0.000000 1.000000
vn 0.000000 0.000000 1.000000
vn 0.000000 0.000000 1.000000
vn 0.000000 0.000000 1.000000
vn -0.000000 0.000000 1.000000
vn 0.000000 0.000000 1.000000
vn 0.000000 0.000001 1.000000
vn 0.000000 0.000001 1.000000
vn 0.000000 0.000000 1.000000
vn 0.000000 0.000000 1.000000
vn 0.000000 0.000000 1.000000
vn 0.000000 0.000000 1.000000
vn -0.000000 0.000000 1.000000
vn -0.000000 0.000000 1.000000
vn -0.000000 0.000000 1.000000
vn -0.000000 0.000000 1.000000
vn 1.000000 0.000000 0.000000
vn 1.000000 0.000000 0.000000
vn 1.000000 0.000000 0.000000
vn -0.000001 0.000000 -1.000000
vn 0.000000 0.000000 -1.000000
vn 0.000000 0.000000 -1.000000
vn -0.000001 0.000000 -1.000000
vn -0.000000 0.000000 -1.000000
vn -0.000000 0.000000 -1.000000
vn 0.000000 0.000000 -1.000000
vn 0.000000 0.000000 -1.000000
vn -0.000000 0.000000 -1.000000
vn -0.000000 0.000000 -1.000000
vn 0.000000 0.000000 -1.000000
vn 0.000000 0.000000 -1.000000
vn 0.000000 0.000000 -1.000000
vn 0.000000 0.000000 -1.000000
vn 0.000000 0.000000 -1.000000
vn 0.000000 0.000000 -1.000000
vn 0.000000 0.000000 -1.000000
vn 0.000000 0.000000 -1.000000
vn 0.000000 0.000000 -1.000000
vn 0.000000 0.000000 -1.000000
vn 0.000000 0.000000 -1.000000
vn 0.000000 0.000000 -1.000000
vn -1.000000 0.000000 0.000000
vn -1.000000 0.000000 0.000000
vn -1.000000 0.000000 0.000000
vn 0.000000 0.000000 1.000000
vn 0.000000 0.000000 1.000000
vn 0.000000 0.000001 1.000000
vn 0.000000 0.000001 1.000000
vn 0.000000 0.000001 1.000000
vn -0.000000 0.000001 1.000000
vn 0.000000 0.000001 1.000000
vn -0.000000 0.000001 1.000000
vn 0.000000 0.000001 1.000000
vn 0.000000 0.000001 1.000000
vn 0.000000 0.000001 1.000000
vn 0.000000 0.000001 1.000000
vn -0.954973 0.000000 0.296692
vn -0.954973 0.000000 0.296692
vn -0.954973 0.000000 0.296691
vn -0.954973 0.000000 0.296691
vn 0.000000 -0.954969 0.296707
vn 0.000000 -0.954971 0.296701
vn 0.000000 0.954971 0.296701
vn 0.000000 0.954971 0.296700
vn 0.000000 0.954971 0.296700
vn 0.000000 0.954971 0.296701
vn 0.000000 -0.954968 0.296708
vn 0.000000 0.954970 0.296701
vn 0.000000 0.954970 0.296701
vn -0.000001 -0.954969 0.296706
vn 0.954963 0.000000 0.296725
vn 0.954963 0.000000 0.296725
vn 0.954963 0.000000 0.296725
vn 0.954963 0.000000 0.296725
vn 0.000000 0.954970 0.296701
vn 0.000000 0.954970 0.296701
vn 0.000000 -0.846635 0.532174
vn 0.000000 -0.846635 0.532174
vn 0.000000 -0.846635 0.532174
vn 0.000000 -0.846635 0.532174
vn 0.846637 0.000000 0.532171
vn 0.846637 0.000000 0.532171
vn 0.846637 0.000000 0.532171
vn 0.846637 0.000000 0.532171
vn 0.000000 0.846637 0.532171
vn 0.000000 0.846637 0.532171
vn 0.000000 0.846637 0.532171
vn 0.000000 0.846637 0.532171
vn -0.846636 0.000000 0.532173
vn -0.846636 0.000000 0.532173
vn -0.846636 0.000000 0.532173
vn -0.846636 0.000000 0.532173
vn 0.000000 -0.846635 0.532174
vn 0.000000 -0.846635 0.532174
vn 0.000000 -0.846635 0.532174
vn 0.000000 -0.846635 0.532174
vn 0.846636 0.000000 0.532172
vn 0.846636 0.000000 0.532172
vn 0.846636 0.000000 0.532172
vn 0.846636 0.000000 0.532172
vn 0.000000 0.846637 0.532171
vn 0.000000 0.846637 0.532171
vn 0.000000 0.846637 0.532171
vn 0.000000 0.846637 0.532171
vn -0.846635 0.000000 0.532174
vn -0.846635 0.000000 0.532174
vn -0.846635 0.000000 0.532174
vn -0.846635 0.000000 0.532174
vn 0.000000 -0.846635 0.532174
vn 0.000000 -0.846635 0.532174
vn 0.000000 -0.846635 0.532174
vn 0.000000 -0.846635 0.532174
vn 0.846637 0.000000 0.532170
vn 0.846637 0.000000 0.532170
vn 0.846637 0.000000 0.532170
vn 0.846637 0.000000 0.532170
vn 0.000000 0.846636 0.532172
vn 0.000000 0.846636 0.532172
vn 0.000000 0.846636 0.532172
vn 0.000000 0.846636 0.532172
vn -0.846636 0.000000 0.532172
vn -0.846636 0.000000 0.532172
vn -0.846636 0.000000 0.532172
vn -0.846636 0.000000 0.532172
vn 0.000000 -0.846635 0.532174
vn 0.000000 -0.846635 0.532174
vn 0.000000 -0.846635 0.532174
vn 0.000000 -0.846635 0.532174
vn 0.846636 0.000000 0.532172
vn 0.846636 0.000000 0.532172
vn 0.846636 0.000000 0.532172
vn 0.846636 0.000000 0.532172
vn 0.000000 0.846637 0.532171
vn 0.000000 0.846637 0.532171
vn 0.000000 0.846637 0.532171
vn 0.000000 0.846637 0.532171
vn -0.846636 0.000000 0.532172
vn -0.846636 0.000000 0.532172
vn -0.846636 0.000000 0.532172
vn -0.846636 0.000000 0.532172
vn 0.000000 -0.846634 0.532175
vn 0.000000 -0.846635 0.532175
vn 0.000000 -0.846634 0.532175
vn 0.000000 -0.846635 0.532175
vn 0.846637 0.000000 0.532171
vn 0.846637 0.000000 0.532171
vn 0.846637 0.000000 0.532171
vn 0.846637 0.000000 0.532171
vn 0.000000 0.846637 0.532172
vn 0.000000 0.846637 0.532172
vn 0.000000 0.846637 0.532172
vn 0.000000 0.846637 0.532172
vn -0.846636 0.000000 0.532173
vn -0.846636 0.000000 0.532173
vn -0.846636 0.000000 0.532173
vn -0.846636 0.000000 0.532173
vn 0.000000 -0.846635 0.532174
vn 0.000000 -0.846635 0.532174
vn 0.000000 -0.846635 0.532174
vn 0.000000 -0.846635 0.532174
vn 0.846635 0.000000 0.532174
vn 0.846635 0.000000 0.532174
vn 0.846635 0.000000 0.532174
vn 0.846635 0.000000 0.532174
vn 0.000000 0.846637 0.532172
vn 0.000000 0.846637 0.532172
vn 0.000000 0.846637 0.532172
vn 0.000000 0.846637 0.532172
vn -0.846632 0.000000 0.532179
vn -0.846632 0.000000 0.532178
vn -0.846632 0.000000 0.532178
vn -0.846632 0.000000 0.532179
vn 0.000000 -0.936879 0.349655
vn 0.000000 -0.936879 0.349655
vn 0.000000 -0.936879 0.349655
vn 0.000000 -0.936879 0.349655
vn 0.934062 0.000000 0.357110
vn 0.934062 0.000000 0.357110
vn 0.934062 0.000000 0.357110
vn 0.934062 0.000000 0.357110
vn -0.934062 0.000000 0.357111
vn -0.934062 0.000000 0.357111
vn -0.934062 0.000000 0.357111
vn -0.934062 0.000000 0.357111
vn 0.934062 0.000000 0.357110
vn 0.934062 0.000000 0.357110
vn 0.000000 1.000000 -0.000001
vn 0.000000 1.000000 -0.000001
vn -0.934062 0.000000 0.357110
vn -0.934062 0.000000 0.357110
vn 0.000000 -0.936879 0.349654
vn 0.000000 -0.936879 0.349654
vn 0.000000 0.000000 1.000000
vn -0.000000 0.000000 1.000000
vn -0.000000 0.000001 1.000000
vn 0.000000 1.000000 -0.000001
vn 0.000000 -0.000001 1.000000
vn 0.000000 -0.000000 1.000000
vn 0.000000 -0.000000 1.000000
vn 0.000000 -0.000001 1.000000
vn 0.000000 0.000000 1.000000
vn 0.000000 0.000000 1.000000
vn 0.000000 0.000000 1.000000
vn 0.000000 0.000000 1.000000
vn -0.000000 0.000000 1.000000
vn -0.000000 0.000000 1.000000
vn 0.000000 0.000000 1.000000
vn -0.000000 0.000000 1.000000
vn 0.000000 0.000000 1.000000
vn 0.000000 0.000000 1.000000
vn 0.000000 0.000000 1.000000
vn 0.000000 0.000000 1.000000
vn 0.000000 0.000000 1.000000
vn 0.000000 0.000000 1.000000
vn 0.000000 0.000000 1.000000
vn 0.000000 0.000000 1.000000
vn 0.000000 0.000000 1.000000
vn 0.000000 0.000000 1.000000
vn 0.000000 0.000000 1.000000
vn 0.000000 0.000000 1.000000
vn 0.000000 0.000000 1.000000
vn 0.000000 0.000000 1.000000
vn 0.000000 0.000000 1.000000
vn 0.000000 0.000000 1.000000
vn 0.000000 0.000000 1.000000
vn 0.000000 0.000000 1.000000
vn 0.000000 0.000000 1.000000
vn -0.000000 0.000000 1.000000
vn 0.000000 0.000000 1.000000
vn 0.000000 0.000000 1.000000
vn -0.000001 0.968250 0.249985
vn -0.000000 0.968250 0.249985
vn -0.000000 0.968250 0.249985
vn -0.000001 0.968250 0.249985
vn 0.000000 -0.968250 -0.249986
vn 0.000000 -0.968250 -0.249985
vn 0.000000 -0.968250 -0.249985
vn 0.000000 -0.968250 -0.249986
vn 0.000000 -0.968250 -0.249985
vn 0.000000 -0.968250 -0.249985
vn -0.000000 0.968250 0.249985
vn -0.000000 0.968250 0.249985
vn -1.000000 0.000003 0.000001
vn -1.000000 0.000003 0.000001
vn -0.000000 0.968250 0.249986
vn -0.000000 0.968250 0.249986
vn 0.000000 -0.968250 -0.249986
vn 0.000000 -0.968250 -0.249986
vn -0.000000 0.968250 0.249985
vn -0.000000 0.968250 0.249985
vn 0.000000 -0.968250 -0.249986
vn 0.000000 -0.968250 -0.249986
vn -0.000000 0.968250 0.249985
vn -0.000000 0.968250 0.249985
vn -0.000000 0.968250 0.249985
vn -0.000000 0.968250 0.249985
vn 0.000000 -0.968250 -0.249985
vn 0.000000 -0.968250 -0.249986
vn 0.000000 -0.968250 -0.249986
vn 0.000000 -0.968250 -0.249985
vn -0.000000 0.968250 0.249985
vn -0.000000 0.968250 0.249985
vn 0.000000 -0.968250 -0.249985
vn 0.000000 -0.968250 -0.249985
vn -0.000000 0.968250 0.249985
vn -0.000000 0.968250 0.249985
vn 0.000000 -0.968250 -0.249985
vn 0.000000 -0.968250 -0.249985
vn -0.000000 0.968250 0.249985
vn -0.000000 0.968250 0.249985
vn 0.000000 -0.968250 -0.249986
vn 0.000000 -0.968250 -0.249986
vn 0.000000 0.968250 0.249986
vn 0.000000 0.968250 0.249986
vn -0.000000 -0.968250 -0.249986
vn -0.000000 -0.968249 -0.249986
vn 1.000000 0.000000 0.000000
vn 1.000000 0.000000 0.000000
s 1
g Minimaret_geo Asset_grp
usemtl lambert8SG
f 44/1/1 31/2/2 51/3/3 52/4/4
s 2
f 32/5/5 33/6/6 49/7/7 50/8/8
s 3
f 31/2/9 32/5/10 50/8/11 51/3/12
s off
f 2/9/13 8/10/14 6/336/15 4/338/16
f 7/13/17 1/14/18 3/340/19 5/16/20
s 4
f 43/330/21 44/1/22 52/4/23 53/328/24
f 4/338/25 6/336/26 11/337/27 10/316/28
f 48/329/29 49/7/30 33/6/31 34/331/32
f 5/16/33 3/340/34 9/341/35 12/333/36
s 7
f 260/374/37 255/376/38 256/27/39 257/28/40
s 8
f 254/343/41 17/30/42 235/353/43
s 9
f 18/32/44 244/352/45 234/354/46
s 10
f 40/35/47 41/36/48 55/37/49 56/38/50
s 8
f 14/39/51 17/30/42 16/282/52
s 9
f 18/32/44 13/41/53 15/298/54
s 11
f 41/36/55 42/43/56 54/44/57 55/37/58
s 8
f 14/39/51 16/282/52 20/45/59
s 9
f 15/298/54 13/41/53 19/46/60
s off
f 16/307/61 17/284/62 22/302/63 21/48/64
s 12
f 46/49/65 47/295/66 35/51/67 36/52/68
s off
f 18/305/69 15/304/70 24/300/71 23/54/72
f 16/40/73 21/303/74 25/55/75
f 15/42/76 26/56/77 24/53/78
s 13
f 39/57/79 40/296/80 56/294/81 57/58/82
s off
f 21/48/83 22/302/84 28/59/85 27/60/86
s 14
f 45/61/87 46/49/88 36/52/89 37/62/90
s off
f 23/54/91 24/300/92 30/63/93 29/64/94
f 25/55/95 21/303/96 27/60/97
f 24/53/98 26/56/99 30/63/100
s 15
f 38/65/101 39/57/102 57/58/103 58/66/104
s 16
f 37/62/105 38/65/106 58/66/107 45/61/108
s 3
f 7/13/109 32/5/10 31/2/9 1/14/110
s 2
f 5/334/111 33/6/6 32/5/5 7/13/112
s 4
f 34/331/32 33/6/31 5/334/33 12/335/36
s 12
f 36/52/68 35/51/67 18/299/113 23/301/114
s 14
f 37/62/90 36/52/89 23/301/115 29/64/116
s 16
f 30/63/117 38/65/106 37/62/105 29/64/118
s 15
f 26/56/119 39/57/102 38/65/101 30/63/120
s 13
f 15/42/121 40/296/80 39/57/79 26/56/122
s 10
f 19/46/123 41/36/48 40/35/47 15/298/124
s 11
f 13/41/125 42/43/56 41/36/55 19/46/126
s 7
f 258/67/127 256/27/39 255/376/38 259/375/128
s 4
f 3/15/34 44/1/22 43/330/21 9/332/35
s 1
f 1/14/129 31/2/2 44/1/1 3/15/130
s 14
f 59/69/131 60/70/132 46/49/88 45/61/87
s 12
f 60/70/133 61/293/134 47/295/66 46/49/65
s 4
f 62/327/135 63/73/136 49/7/30 48/329/29
s 2
f 50/8/8 49/7/7 63/73/137 64/74/138
s 3
f 51/3/12 50/8/11 64/74/139 65/75/140
s 1
f 52/4/4 51/3/3 65/75/141 66/76/142
s 4
f 53/328/24 52/4/23 66/76/143 67/326/144
s 7
f 262/78/145 260/374/37 257/28/40 261/79/146
s 11
f 55/37/58 54/44/57 68/80/147 69/81/148
s 10
f 56/38/50 55/37/49 69/81/149 70/82/150
s 13
f 57/58/82 56/294/81 70/292/151 71/83/152
s 15
f 58/66/104 57/58/103 71/83/153 72/84/154
s 16
f 45/61/108 58/66/107 72/84/155 59/69/156
s 14
f 73/85/157 74/86/158 60/70/132 59/69/131
s 12
f 74/86/159 75/291/160 61/293/134 60/70/133
s 4
f 76/324/161 77/89/162 63/73/136 62/327/135
s 2
f 64/74/138 63/73/137 77/89/163 78/90/164
s 3
f 65/75/140 64/74/139 78/90/165 79/91/166
s 1
f 66/76/142 65/75/141 79/91/167 80/92/168
s 4
f 67/326/144 66/76/143 80/92/169 81/325/170
s 7
f 264/94/171 262/78/145 261/79/146 263/95/172
s 11
f 69/81/148 68/80/147 82/96/173 83/97/174
s 10
f 70/82/150 69/81/149 83/97/175 84/98/176
s 13
f 71/83/152 70/292/151 84/290/177 85/99/178
s 15
f 72/84/154 71/83/153 85/99/179 86/100/180
s 16
f 59/69/156 72/84/155 86/100/181 73/85/182
s 4
f 81/325/170 80/92/169 87/101/183
s 14
f 88/102/184 89/103/185 232/104/186 215/105/187
s 12
f 89/103/188 90/279/189 231/107/190 232/104/191
s 4
f 91/108/192 92/109/193 229/110/194 230/308/195
s 2
f 228/112/196 229/110/197 92/109/198 93/113/199
s 3
f 227/114/200 228/112/201 93/113/202 94/115/203
s 1
f 226/116/204 227/114/205 94/115/206 95/117/207
s 4
f 225/118/208 226/116/209 95/117/210 96/119/211
s 7
f 268/120/212 265/364/213 266/122/214 267/123/215
s 11
f 219/124/216 220/125/217 97/126/218 98/127/219
s 10
f 218/128/220 219/124/221 98/127/222 99/278/223
s 13
f 217/130/224 218/277/225 99/129/226 100/131/227
s 15
f 216/132/228 217/130/229 100/131/230 101/133/231
s 16
f 215/105/232 216/132/233 101/133/234 88/102/235
s 4
f 96/119/211 95/117/210 102/323/236
s 14
f 103/135/237 104/136/238 89/103/185 88/102/184
s 12
f 104/136/239 105/288/240 90/279/189 89/103/188
s 4
f 106/322/241 107/139/242 92/109/193 91/108/192
s 2
f 93/113/199 92/109/198 107/139/243 108/140/244
s 3
f 94/115/203 93/113/202 108/140/245 109/141/246
s 1
f 95/117/207 94/115/206 109/141/247 110/142/248
s 4
f 102/323/236 95/117/210 110/142/249 111/321/250
s 7
f 270/144/251 268/120/212 267/123/215 269/145/252
s 11
f 98/127/219 97/126/218 112/146/253 113/147/254
s 10
f 99/278/223 98/127/222 113/147/255 114/148/256
s 13
f 100/131/227 99/129/226 114/289/257 115/149/258
s 15
f 101/133/231 100/131/230 115/149/259 116/150/260
s 16
f 88/102/235 101/133/234 116/150/261 103/135/262
s 11
f 113/147/254 112/146/253 117/151/263
s 20
f 178/152/264 177/153/265 179/154/266 180/155/267
s 13
f 115/149/258 114/289/257 118/287/268
s 14
f 119/157/269 120/158/270 104/136/238 103/135/237
s 12
f 120/158/271 121/286/272 105/288/240 104/136/239
s 4
f 122/320/273 123/161/274 107/139/242 106/322/241
s 2
f 108/140/244 107/139/243 123/161/275 124/162/276
s 3
f 109/141/246 108/140/245 124/162/277 125/163/278
s 1
f 110/142/248 109/141/247 125/163/279 126/164/280
s 4
f 111/321/250 110/142/249 126/164/281 127/319/282
s 7
f 272/166/283 270/144/251 269/145/252 271/167/284
s 11
f 117/151/263 112/146/253 128/168/285 129/169/286
s 20
f 180/155/267 179/154/266 181/170/287 182/171/288
s 13
f 115/149/258 118/287/268 130/285/289 131/173/290
s 15
f 116/150/260 115/149/259 131/173/291 132/174/292
s 16
f 103/135/262 116/150/261 132/174/293 119/157/294
s 14
f 133/175/295 134/176/296 120/158/270 119/157/269
s 12
f 134/176/297 135/283/298 121/286/272 120/158/271
s 4
f 136/317/299 137/179/300 123/161/274 122/320/273
s 2
f 124/162/276 123/161/275 137/179/301 138/180/302
s 3
f 125/163/278 124/162/277 138/180/303 139/181/304
s 1
f 126/164/280 125/163/279 139/181/305 140/182/306
s 4
f 127/319/282 126/164/281 140/182/307 141/315/308
s 7
f 273/184/309 272/166/283 271/167/284 274/185/310
s 11
f 129/169/286 128/168/285 142/186/311 143/187/312
s 20
f 182/171/288 181/170/287 183/188/313 184/189/314
s 13
f 131/173/290 130/285/289 144/281/315 145/191/316
s 15
f 132/174/292 131/173/291 145/191/317 146/192/318
s 16
f 119/157/294 132/174/293 146/192/319 133/175/320
s 14
f 22/47/321 134/176/296 133/175/295 28/59/322
s 12
f 17/306/323 135/283/298 134/176/297 22/47/324
s 4
f 6/11/26 137/179/300 136/317/299 11/19/27
s 2
f 138/180/302 137/179/301 6/11/325 8/10/326
s 3
f 139/181/304 138/180/303 8/10/327 2/9/328
s 1
f 140/182/306 139/181/305 2/9/329 4/12/330
s 4
f 141/315/308 140/182/307 4/12/25 10/339/28
s 7
f 275/193/331 273/184/309 274/185/310 276/194/332
s 11
f 143/187/312 142/186/311 14/39/333 20/45/334
s off
f 144/190/335 143/187/336 20/45/337 16/282/338
s 13
f 145/191/316 144/281/315 16/40/339 25/55/340
s 15
f 146/192/318 145/191/317 25/55/341 27/60/342
s 16
f 133/175/320 146/192/319 27/60/343 28/59/344
s 21
f 9/23/345 163/195/346 148/196/347 147/197/348
s off
f 186/198/349 185/199/350 187/200/351 188/201/352
s 21
f 150/202/353 149/203/354 164/204/355 165/205/356
s off
f 190/206/357 189/207/358 191/208/359 192/209/360
s 21
f 152/210/361 151/211/362 166/212/363 167/213/364
s off
f 194/214/365 193/215/366 195/216/367 196/217/368
s 21
f 154/218/369 153/219/370 168/220/371 169/221/372
s 25
f 210/222/373 222/223/374 223/224/375 212/225/376
s 21
f 156/226/377 155/227/378 170/228/379 171/229/380
s off
f 198/230/381 197/231/382 199/232/383 200/233/384
s 21
f 158/234/385 157/235/386 172/236/387 173/237/388
s off
f 202/238/389 201/239/390 203/240/391 204/241/392
s 21
f 160/242/393 159/243/394 174/244/395 175/245/396
s off
f 206/246/397 205/247/398 207/248/399 208/249/400
s 21
f 162/250/401 161/251/402 176/252/403 10/20/404
s 8
f 17/30/42 162/250/405 10/20/406 11/318/407
s 30
f 135/177/408 17/378/409 11/377/410 136/178/411
f 121/159/412 135/177/408 136/178/411 122/160/413
f 105/137/414 121/159/412 122/160/413 106/138/415
f 90/106/416 105/137/414 106/138/415 91/309/417
f 230/111/418 231/280/419 90/106/416 91/309/417
f 61/71/420 75/87/421 76/88/422 62/72/423
f 47/50/424 61/71/420 62/72/423 48/21/425
f 35/297/426 47/50/424 48/21/425 34/22/427
f 18/32/428 35/297/426 34/22/427 12/24/429
s 9
f 9/23/430 147/197/431 18/32/44 12/24/432
s 21
f 9/23/345 43/17/433 163/195/346
f 164/204/355 163/195/346 43/17/433 53/18/434
f 165/205/356 164/204/355 53/18/434
f 166/212/363 165/205/356 53/18/434 67/77/435
f 167/213/364 166/212/363 67/77/435
f 168/220/371 167/213/364 67/77/435 81/93/436
f 169/221/372 168/220/371 81/93/436 87/314/437
s 25
f 212/225/376 223/224/375 224/310/438 214/254/439
s 21
f 171/229/380 170/228/379 96/313/440 102/134/441
f 172/236/387 171/229/380 102/134/441 111/143/442
f 173/237/388 172/236/387 111/143/442
f 174/244/395 173/237/388 111/143/442 127/165/443
f 175/245/396 174/244/395 127/165/443
f 176/252/403 175/245/396 127/165/443 141/183/444
f 10/20/404 176/252/403 141/183/444
s off
f 114/148/445 113/147/446 177/153/447 178/152/448
s 11
f 113/147/254 117/151/263 179/154/449 177/153/450
s 31
f 118/156/451 114/148/452 178/152/453 180/155/454
s 11
f 117/151/263 129/169/286 181/170/455 179/154/449
s 31
f 130/172/456 118/156/451 180/155/454 182/171/457
s 11
f 129/169/286 143/187/312 183/188/458 181/170/455
s off
f 143/187/459 144/190/460 184/189/461 183/188/462
s 31
f 144/190/463 130/172/456 182/171/457 184/189/464
s off
f 149/203/465 148/196/466 185/199/467 186/198/468
f 148/196/469 163/195/470 187/200/471 185/199/472
f 163/195/473 164/204/474 188/201/475 187/200/476
f 164/204/477 149/203/478 186/198/479 188/201/480
f 151/211/481 150/202/482 189/207/483 190/206/484
f 150/202/485 165/205/486 191/208/487 189/207/488
f 165/205/489 166/212/490 192/209/491 191/208/492
f 166/212/493 151/211/494 190/206/495 192/209/496
f 153/219/497 152/210/498 193/215/499 194/214/500
f 152/210/501 167/213/502 195/216/503 193/215/504
f 167/213/505 168/220/506 196/217/507 195/216/508
f 168/220/509 153/219/510 194/214/511 196/217/512
f 157/235/513 156/226/514 197/231/515 198/230/516
f 156/226/517 171/229/518 199/232/519 197/231/520
f 171/229/521 172/236/522 200/233/523 199/232/524
f 172/236/525 157/235/526 198/230/527 200/233/528
f 159/243/529 158/234/530 201/239/531 202/238/532
f 158/234/533 173/237/534 203/240/535 201/239/536
f 173/237/537 174/244/538 204/241/539 203/240/540
f 174/244/541 159/243/542 202/238/543 204/241/544
f 161/251/545 160/242/546 205/247/547 206/246/548
f 160/242/549 175/245/550 207/248/551 205/247/552
f 175/245/553 176/252/554 208/249/555 207/248/556
f 176/252/557 161/251/558 206/246/559 208/249/560
s 32
f 155/227/561 221/255/562 222/223/563 210/222/564
s 33
f 154/218/565 169/221/566 211/256/567 209/257/568
s 34
f 170/228/569 155/227/570 210/222/571 212/225/572
s 33
f 169/221/566 87/314/573 213/312/574 211/256/567
s 4
f 224/253/575 225/118/208 96/119/211 214/311/576
s 34
f 96/313/577 170/228/569 212/225/572 214/254/578
s 16
f 73/85/182 86/100/181 216/132/233 215/105/232
s 15
f 86/100/180 85/99/179 217/130/229 216/132/228
s 13
f 85/99/178 84/290/177 218/277/225 217/130/224
s 10
f 84/98/176 83/97/175 219/124/221 218/128/220
s 11
f 83/97/174 82/96/173 220/125/217 219/124/216
s 7
f 265/364/213 264/94/171 263/95/172 266/122/214
s 32
f 222/223/563 221/255/562 154/218/579 209/257/580
s 25
f 223/224/375 222/223/374 209/257/581 211/256/582
f 224/310/438 223/224/375 211/256/582 213/312/583
s 4
f 87/101/183 225/118/208 224/253/575 213/258/584
f 87/101/183 80/92/169 226/116/209 225/118/208
s 1
f 80/92/168 79/91/167 227/114/205 226/116/204
s 3
f 79/91/166 78/90/165 228/112/201 227/114/200
s 2
f 78/90/164 77/89/163 229/110/197 228/112/196
s 4
f 230/308/195 229/110/194 77/89/162 76/324/161
s 30
f 76/88/422 75/87/421 231/280/419 230/111/418
s 12
f 232/104/191 231/107/190 75/291/160 74/86/159
s 14
f 215/105/187 232/104/186 74/86/158 73/85/157
s 35
f 234/354/585 233/356/586 42/43/587 13/41/588
s 9
f 18/32/44 234/354/46 13/41/53
s 8
f 235/353/43 17/30/42 14/39/51
s 35
f 142/186/589 236/363/590 235/353/591 14/39/592
f 128/168/593 237/362/594 236/363/590 142/186/589
f 112/146/595 238/361/596 237/362/594 128/168/593
f 97/126/597 239/360/598 238/361/596 112/146/595
f 220/125/599 240/359/600 239/360/598 97/126/597
f 82/96/601 241/358/602 240/359/600 220/125/599
f 68/80/603 242/357/604 241/358/602 82/96/601
f 54/44/605 243/355/606 242/357/604 68/80/603
f 42/43/587 233/356/586 243/355/606 54/44/605
s 21
f 147/197/348 148/196/347 245/351/607 244/352/608
f 246/350/609 245/351/607 148/196/347 149/203/354
f 246/350/609 149/203/354 150/202/353
f 247/349/610 246/350/609 150/202/353 151/211/362
f 247/349/610 151/211/362 152/210/361
f 248/348/611 247/349/610 152/210/361 153/219/370
f 248/348/611 153/219/370 154/218/369
f 249/347/612 248/348/611 154/218/369 221/255/613
f 250/346/614 249/347/612 221/255/613 155/227/378
f 250/346/614 155/227/378 156/226/377
f 251/345/615 250/346/614 156/226/377 157/235/386
f 251/345/615 157/235/386 158/234/385
f 252/344/616 251/345/615 158/234/385 159/243/394
f 252/344/616 159/243/394 160/242/393
f 253/342/617 252/344/616 160/242/393 161/251/402
f 254/343/618 253/342/617 161/251/402 162/250/401
s 8
f 162/250/405 17/30/42 254/343/41
s 9
f 18/32/44 147/197/431 244/352/45
s 37
f 255/26/619 260/25/620 243/267/621 233/259/622
s 38
f 257/28/623 256/27/624 245/268/625 246/269/626
f 256/27/624 258/67/627 244/33/628 245/268/625
s 37
f 259/68/629 255/26/619 233/259/622 234/34/630
s 9
f 258/67/631 259/68/632 234/34/46 244/33/45
s 37
f 260/25/620 262/373/633 242/266/634 243/267/621
s 38
f 261/79/635 257/28/623 246/269/626 247/270/636
s 37
f 262/373/633 264/365/637 241/265/638 242/266/634
s 38
f 263/95/639 261/79/635 247/270/636 248/271/640
s 37
f 265/121/641 268/372/642 239/263/643 240/264/644
s 38
f 267/123/645 266/122/646 249/272/647 250/273/648
s 37
f 268/372/642 270/371/649 238/262/650 239/263/643
s 38
f 269/145/651 267/123/645 250/273/648 251/274/652
s 37
f 270/371/649 272/370/653 237/261/654 238/262/650
s 38
f 271/167/655 269/145/651 251/274/652 252/275/656
s 37
f 272/370/653 273/368/657 236/260/658 237/261/654
s 38
f 274/185/659 271/167/655 252/275/656 253/276/660
s 37
f 273/368/657 275/366/661 235/31/662 236/260/658
s 38
f 276/194/663 274/185/659 253/276/660 254/29/664
s 8
f 275/367/665 276/194/666 254/29/41 235/369/43
s 37
f 264/365/637 265/121/641 240/264/644 241/265/638
s 38
f 266/122/646 263/95/639 248/271/640 249/272/647
