# This file uses centimeters as units for non-parametric coordinates.

mtllib monas.mtl
g default
v 2.459613 0.783379 -2.459613
v 1.000000 -1.000000 -1.000000
v 2.459613 0.783379 2.459613
v 1.000000 -1.000000 1.000000
v -2.459613 0.783379 -2.459613
v -1.000000 -1.000000 -1.000000
v -2.459613 0.783379 2.459613
v -1.000000 -1.000000 1.000000
v 2.601275 1.172668 2.601275
v -2.601275 1.172668 2.601275
v 2.601275 1.172668 -2.601275
v -2.601275 1.172668 -2.601275
v 2.023824 0.434512 -2.023824
v 1.801687 0.163101 -1.801687
v 1.579549 -0.108311 -1.579549
v 1.357412 -0.379722 -1.357412
v 1.135274 -0.651133 -1.135274
v -1.135274 -0.651133 1.135274
v -1.357412 -0.379722 1.357412
v -1.579549 -0.108311 1.579549
v -1.801687 0.163101 1.801687
v -2.023824 0.434512 2.023824
v 2.023824 0.434512 2.023824
v 1.801687 0.163101 1.801687
v 1.579549 -0.108311 1.579549
v 1.357412 -0.379722 1.357412
v 1.135274 -0.651133 1.135274
v -2.023824 0.434512 -2.023824
v -1.801687 0.163101 -1.801687
v -1.579549 -0.108311 -1.579549
v -1.357412 -0.379722 -1.357412
v -1.135274 -0.651133 -1.135274
v 0.965407 1.172668 0.965407
v -0.965407 1.172668 0.965407
v 0.965407 1.172668 -0.965407
v -0.965407 1.172668 -0.965407
v 0.484074 11.340646 0.484074
v -0.484074 11.340646 0.484074
v 0.484074 11.340646 -0.484074
v -0.484074 11.340646 -0.484074
v 0.652135 11.344830 0.652135
v -0.652135 11.344830 0.652135
v 0.652135 11.344830 -0.652135
v -0.652135 11.344830 -0.652135
v 0.652135 11.633079 0.652135
v -0.652135 11.633079 0.652135
v 0.652135 11.633079 -0.652135
v -0.652135 11.633079 -0.652135
v 0.417186 11.633079 0.417186
v -0.417186 11.633079 0.417186
v 0.417186 11.633079 -0.417186
v -0.417186 11.633079 -0.417186
v 0.417186 11.752766 0.417186
v -0.417186 11.752766 0.417186
v 0.417186 11.752766 -0.417186
v -0.417186 11.752766 -0.417186
v 0.565518 11.752766 0.565518
v -0.565518 11.752766 0.565518
v 0.565518 11.752766 -0.565518
v -0.565518 11.752766 -0.565518
v 0.565518 11.900650 0.565518
v -0.565518 11.900650 0.565518
v 0.565518 11.900650 -0.565518
v -0.565518 11.900650 -0.565518
v 0.224380 11.900650 0.224380
v -0.224380 11.900650 0.224380
v 0.224380 11.900650 -0.224380
v -0.224380 11.900650 -0.224380
v 0.349078 11.857037 0.349078
v -0.349077 11.857038 0.349077
v 0.349078 11.857037 -0.349078
v -0.349078 11.857037 -0.349078
v 0.175574 11.857035 0.351147
v -0.000062 11.857029 0.250760
v -0.175573 11.857035 0.351147
v -0.175574 11.857036 -0.351147
v -0.000062 11.857029 -0.250636
v 0.175574 11.857035 -0.351147
v 0.351147 11.857035 -0.175574
v 0.250636 11.857029 0.000062
v 0.351147 11.857036 0.175574
v -0.351147 11.857035 0.175573
v -0.250760 11.857029 0.000062
v -0.351147 11.857036 -0.175574
v -0.160617 11.549504 0.321234
v -0.321234 11.549504 0.321234
v 0.321234 11.549504 0.160617
v 0.321234 11.549504 0.321234
v -0.321234 11.549504 -0.160617
v -0.321234 11.549504 -0.321234
v 0.160617 11.549504 -0.321234
v 0.321234 11.549504 -0.321234
v 0.160617 11.549504 0.321234
v 0.000000 11.549504 0.321234
v -0.160617 11.549504 -0.321234
v 0.000000 11.549504 -0.321234
v 0.160617 11.549504 0.160617
v 0.000000 11.549504 0.160617
v -0.160617 11.549504 0.160617
v 0.321234 11.549504 -0.160617
v 0.321234 11.549504 0.000000
v -0.321234 11.549504 0.160617
v -0.321234 11.549504 0.000000
v 0.160617 11.549504 -0.160617
v 0.160617 11.549504 0.000000
v 0.000000 11.549504 -0.160617
v 0.000000 11.549504 0.000000
v -0.160617 11.549504 -0.160617
v -0.160617 11.549504 0.000000
v -0.000032 13.680225 -0.000031
v 0.267346 12.055558 -0.018855
v 0.243646 12.323680 -0.122005
v 0.080051 12.663323 -0.229044
v -0.082952 13.047288 -0.159177
v -0.075166 13.339873 -0.082687
v -0.039854 13.516505 -0.043932
v -0.170278 12.055640 0.383418
v -0.031925 12.323776 0.425705
v 0.234343 12.663323 0.299546
v 0.280579 13.039273 0.020652
v 0.169669 13.334892 -0.043227
v 0.089589 13.515696 -0.025312
v 0.366281 12.055640 -0.204553
v 0.281013 12.323776 -0.321359
v -0.007617 12.663323 -0.380203
v -0.211915 13.039259 -0.184893
v -0.161530 13.334881 -0.067240
v -0.086724 13.515692 -0.033510
v 0.018868 12.055558 0.267470
v 0.122085 12.323680 0.243751
v 0.229214 12.663323 0.080055
v 0.159336 13.047288 -0.083091
v 0.082820 13.339873 -0.075342
v 0.044064 13.516505 -0.040030
v 0.204562 12.055640 0.366277
v 0.321396 12.323776 0.280990
v 0.380252 12.663323 -0.007684
v 0.184923 13.039268 -0.212010
v 0.067277 13.334888 -0.161624
v 0.033551 13.515695 -0.086816
v 0.365622 12.055859 -0.381793
v 0.250990 12.324054 -0.477346
v -0.098333 12.663323 -0.470856
v -0.307922 13.030979 -0.177257
v -0.219730 13.333123 -0.028357
v -0.117523 13.514312 -0.005493
v -0.267457 12.055558 0.018992
v -0.243671 12.323680 0.122190
v -0.079885 12.663323 0.229218
v 0.083250 13.047288 0.159197
v 0.075474 13.339873 0.082644
v 0.040162 13.516505 0.043888
v 0.025353 13.515695 0.089497
v 0.043258 13.334889 0.169581
v -0.020624 13.039272 0.280501
v -0.299511 12.663326 0.234293
v -0.425683 12.323777 -0.031946
v -0.383413 12.055641 -0.170283
v -0.381799 12.055859 -0.365614
v -0.477361 12.324054 -0.250940
v -0.470819 12.663323 0.098439
v -0.177139 13.030988 0.308003
v -0.028243 13.333131 0.219778
v -0.005401 13.514315 0.117564
v 0.170290 12.055640 -0.383411
v 0.031985 12.323776 -0.425686
v -0.234220 12.663323 -0.299560
v -0.280448 13.039259 -0.020726
v -0.169540 13.334881 0.043161
v -0.089456 13.515692 0.025261
v 0.117656 13.514318 0.005442
v 0.219867 13.333139 0.028279
v 0.308088 13.031000 0.177166
v 0.098496 12.663326 0.470858
v -0.250919 12.324056 0.477387
v -0.365610 12.055860 0.381803
v -0.366272 12.055640 0.204567
v -0.280956 12.323776 0.321403
v 0.007760 12.663323 0.380220
v 0.212077 13.039273 0.184829
v 0.161670 13.334892 0.067175
v 0.086857 13.515696 0.033459
v -0.025220 13.515693 -0.089549
v -0.043129 13.334886 -0.169629
v 0.020756 13.039267 -0.280526
v 0.299598 12.663326 -0.234267
v 0.425708 12.323777 0.031970
v 0.383415 12.055641 0.170287
v 0.381798 12.055859 0.365617
v 0.477376 12.324054 0.250961
v 0.470892 12.663323 -0.098407
v 0.177266 13.030988 -0.308017
v 0.028376 13.333131 -0.219823
v 0.005534 13.514315 -0.117615
v -0.033418 13.515693 0.086764
v -0.067139 13.334886 0.161576
v -0.184795 13.039267 0.211985
v -0.380171 12.663326 0.007705
v -0.321371 12.323777 -0.280972
v -0.204561 12.055641 -0.366274
v -0.018982 12.055558 -0.267333
v -0.122115 12.323680 -0.243563
v -0.229050 12.663323 -0.079876
v -0.159038 13.047278 0.083112
v -0.082511 13.339863 0.075298
v -0.043756 13.516498 0.039986
vt 0.566800 0.180453
vt 0.151453 0.197031
vt 0.142006 0.216081
vt 0.577641 0.205573
vt 0.267333 0.223127
vt 0.262161 0.249584
vt 0.164300 0.172171
vt 0.071906 0.036946
vt 0.195004 0.022669
vt 0.374319 0.127496
vt 0.289334 0.139055
vt 0.232773 0.103903
vt 0.388335 0.221309
vt 0.388033 0.248315
vt 0.108887 0.281756
vt 0.006795 0.234390
vt 0.387592 0.269131
vt 0.257580 0.270047
vt 0.171071 0.024637
vt 0.379359 0.148381
vt 0.146229 0.024816
vt 0.383315 0.167214
vt 0.121276 0.027038
vt 0.386111 0.185593
vt 0.096450 0.031130
vt 0.387775 0.203606
vt 0.284109 0.156995
vt 0.279737 0.173560
vt 0.275470 0.190047
vt 0.271342 0.206545
vt 0.214470 0.115370
vt 0.199411 0.128300
vt 0.186107 0.142208
vt 0.174433 0.156886
vt 0.226771 0.319313
vt 0.355036 0.325022
vt 0.224709 0.891089
vt 0.168482 0.885181
vt 0.280160 0.897638
vt 0.110942 0.883402
vt 0.111277 0.891962
vt 0.046025 0.890279
vt 0.222029 0.899330
vt 0.047897 0.909753
vt 0.218873 0.914885
vt 0.167369 0.893131
vt 0.066419 0.925205
vt 0.213834 0.926065
vt 0.167064 0.909132
vt 0.114034 0.908275
vt 0.115347 0.921322
vt 0.117453 0.928212
vt 0.257096 0.944679
vt 0.165249 0.921179
vt 0.118890 0.935166
vt 0.063296 0.943436
vt 0.165479 0.927785
vt 0.211491 0.932577
vt 0.165171 0.935112
vt 0.208289 0.939307
vt 0.205810 0.947186
vt 0.165643 0.943564
vt 0.256710 0.965094
vt 0.121467 0.943147
vt 0.125480 0.963524
vt 0.195479 0.988660
vt 0.162411 0.962587
vt 0.196188 0.963648
vt 0.629107 0.048013
vt 0.638440 0.050452
vt 0.628471 0.050331
vt 0.632389 0.058526
vt 0.633590 0.060510
vt 0.636006 0.038033
vt 0.634330 0.039322
vt 0.628842 0.045454
vt 0.631304 0.056120
vt 0.628935 0.043258
vt 0.629532 0.054261
vt 0.628218 0.052452
vt 0.638011 0.061120
vt 0.640369 0.062259
vt 0.630584 0.042098
vt 0.635623 0.061003
vt 0.632732 0.041153
vt 0.524718 0.122249
vt 0.572802 0.145061
vt 0.579941 0.152411
vt 0.586429 0.159690
vt 0.546919 0.110870
vt 0.552358 0.119457
vt 0.558937 0.128799
vt 0.539488 0.114481
vt 0.565702 0.137267
vt 0.532069 0.118273
vt 0.525285 0.065535
vt 0.523383 0.102869
vt 0.516177 0.107178
vt 0.521773 0.056747
vt 0.527675 0.110601
vt 0.520422 0.114730
vt 0.529162 0.074745
vt 0.530503 0.098403
vt 0.534886 0.106498
vt 0.533323 0.084726
vt 0.537517 0.093794
vt 0.541992 0.102424
vt 0.598139 0.173512
vt 0.602962 0.180513
vt 0.592373 0.166728
vt 0.547030 0.076165
vt 0.543390 0.067298
vt 0.612978 0.165290
vt 0.606223 0.157406
vt 0.571584 0.119737
vt 0.566204 0.111766
vt 0.578584 0.128230
vt 0.550450 0.085068
vt 0.586231 0.136212
vt 0.555206 0.094676
vt 0.535842 0.047125
vt 0.618045 0.172738
vt 0.593069 0.142895
vt 0.560769 0.103928
vt 0.539553 0.057117
vt 0.599219 0.149795
vt 0.545377 0.040622
vt 0.548828 0.050764
vt 0.559482 0.029357
vt 0.562657 0.039340
vt 0.583958 0.017154
vt 0.583835 0.026329
vt 0.612435 0.017527
vt 0.609732 0.023724
vt 0.627907 0.029125
vt 0.625542 0.032805
vt 0.568831 0.098513
vt 0.574239 0.106701
vt 0.578131 0.087382
vt 0.582064 0.096728
vt 0.589544 0.070323
vt 0.592313 0.079763
vt 0.604578 0.055410
vt 0.605476 0.062725
vt 0.618806 0.050773
vt 0.618764 0.055070
vt 0.601005 0.136786
vt 0.606961 0.142975
vt 0.607904 0.125568
vt 0.614118 0.129990
vt 0.614553 0.106001
vt 0.619764 0.108918
vt 0.620781 0.083948
vt 0.624950 0.085995
vt 0.628193 0.069370
vt 0.631406 0.070718
vt 0.552167 0.061948
vt 0.564097 0.051328
vt 0.582098 0.037086
vt 0.605239 0.030283
vt 0.621752 0.035349
vt 0.622280 0.158689
vt 0.542786 0.031795
vt 0.631465 0.143957
vt 0.558118 0.021119
vt 0.636297 0.119193
vt 0.584970 0.010440
vt 0.637645 0.092807
vt 0.615045 0.013140
vt 0.639707 0.074210
vt 0.630471 0.026616
vt 0.614676 0.150018
vt 0.622726 0.135123
vt 0.627419 0.112486
vt 0.631015 0.088299
vt 0.635661 0.071532
vt 0.555479 0.071460
vt 0.565180 0.062004
vt 0.580705 0.047285
vt 0.601821 0.037075
vt 0.618898 0.038504
vt 0.579154 0.113743
vt 0.587049 0.102240
vt 0.596248 0.084100
vt 0.608316 0.066360
vt 0.620768 0.058008
vt 0.586184 0.121481
vt 0.594319 0.108591
vt 0.602251 0.089690
vt 0.612653 0.071054
vt 0.623845 0.061226
vt 0.558510 0.079589
vt 0.568444 0.068839
vt 0.582879 0.052944
vt 0.602585 0.041680
vt 0.618882 0.042019
vt 0.594040 0.129788
vt 0.601781 0.117341
vt 0.608676 0.097830
vt 0.616628 0.077620
vt 0.625780 0.065547
vt 0.563268 0.088718
vt 0.573518 0.077001
vt 0.586533 0.060500
vt 0.604198 0.047884
vt 0.619654 0.046383
vt 0.065657 0.953215
vt 0.261317 0.956198
vt 0.068944 0.933075
vt 0.260833 0.937695
vt 0.280031 0.927367
vt 0.287109 0.909411
vt 0.054186 0.880077
vt 0.472623 0.321727
vt 0.521779 0.136994
vt 0.538527 0.153693
vt 0.504071 0.121442
vt 0.485496 0.107159
vt 0.466319 0.094218
vt 0.365233 0.010437
vt 0.448716 0.079446
vt 0.006795 0.062011
vt 0.260509 0.026927
vt 0.031222 0.046540
vt 0.096182 0.970373
vt 0.225322 0.974672
vt 0.166891 0.989563
vt 0.643847 0.076171
vt 0.642532 0.062906
vt 0.644210 0.097488
vt 0.644210 0.127064
vt 0.637901 0.153669
vt 0.627823 0.167257
vt 0.532315 0.038670
vt 0.504755 0.103970
vt 0.517953 0.048820
vt 0.513151 0.118880
vt 0.517426 0.126363
vt 0.508913 0.111370
vt 0.512028 0.099749
vt 0.526379 0.090486
vt 0.519246 0.095311
vt 0.528970 0.129611
vt 0.536405 0.125710
vt 0.544080 0.122157
vt 0.521660 0.133711
vn -0.939714 -0.341961 0.000000
vn -0.939714 -0.341961 0.000000
vn -0.939714 -0.341961 0.000000
vn -0.939714 -0.341961 0.000000
vn 0.000000 -0.780663 0.624953
vn 0.000000 -0.780663 0.624953
vn 0.000000 -0.780663 0.624953
vn 0.000000 -0.780663 0.624953
vn -0.624952 -0.780663 0.000000
vn -0.624952 -0.780663 0.000000
vn -0.624952 -0.780663 0.000000
vn -0.624952 -0.780663 0.000000
vn 0.000000 -1.000000 0.000000
vn 0.000000 -1.000000 0.000000
vn 0.000000 -1.000000 0.000000
vn 0.000000 -1.000000 0.000000
vn 0.624952 -0.780663 0.000000
vn 0.624952 -0.780663 0.000000
vn 0.624952 -0.780663 0.000000
vn 0.624952 -0.780663 0.000000
vn 0.000000 -0.780663 -0.624953
vn 0.000000 -0.780663 -0.624953
vn 0.000000 -0.780663 -0.624953
vn 0.000000 -0.780663 -0.624953
vn 0.000000 1.000000 0.000000
vn 0.000000 1.000000 0.000000
vn 0.000000 1.000000 0.000000
vn 0.000000 1.000000 0.000000
vn 0.939714 -0.341961 0.000000
vn 0.939714 -0.341961 0.000000
vn 0.939714 -0.341961 0.000000
vn 0.939714 -0.341961 0.000000
vn 0.000000 -0.341961 -0.939714
vn 0.000000 -0.341961 -0.939714
vn 0.000000 -0.341961 -0.939714
vn 0.000000 -0.341961 -0.939714
vn 0.000000 -0.341961 0.939714
vn 0.000000 -0.341961 0.939714
vn 0.000000 -0.341961 0.939714
vn 0.000000 -0.341961 0.939714
vn 0.000000 -0.361526 -0.932362
vn 0.000000 -0.361526 -0.932362
vn 0.000000 -0.361526 -0.932362
vn 0.000000 -0.361526 -0.932362
vn 0.000000 -0.633365 -0.773853
vn 0.000000 -0.633365 -0.773853
vn 0.000000 -0.633365 -0.773853
vn 0.000000 -0.633365 -0.773853
vn 0.000000 -0.633363 -0.773855
vn 0.000000 -0.633363 -0.773855
vn 0.000000 -0.633363 -0.773855
vn 0.000000 -0.633363 -0.773855
vn 0.000000 -0.633364 -0.773854
vn 0.000000 -0.633364 -0.773854
vn 0.000000 -0.633364 -0.773854
vn 0.000000 -0.633364 -0.773854
vn 0.000000 -0.633363 -0.773855
vn 0.000000 -0.633363 -0.773855
vn 0.000000 -0.633363 -0.773855
vn 0.000000 -0.633363 -0.773855
vn 0.932362 -0.361526 0.000000
vn 0.932362 -0.361526 0.000000
vn 0.932362 -0.361526 0.000000
vn 0.932362 -0.361526 0.000000
vn 0.773853 -0.633365 0.000000
vn 0.773853 -0.633365 0.000000
vn 0.773853 -0.633365 0.000000
vn 0.773853 -0.633365 0.000000
vn 0.773855 -0.633363 0.000000
vn 0.773855 -0.633363 0.000000
vn 0.773855 -0.633363 0.000000
vn 0.773855 -0.633363 0.000000
vn 0.773854 -0.633364 0.000000
vn 0.773854 -0.633364 0.000000
vn 0.773854 -0.633364 0.000000
vn 0.773854 -0.633364 0.000000
vn 0.773855 -0.633363 0.000000
vn 0.773855 -0.633363 0.000000
vn 0.773855 -0.633363 0.000000
vn 0.773855 -0.633363 0.000000
vn -0.932362 -0.361526 0.000000
vn -0.932362 -0.361526 0.000000
vn -0.932362 -0.361526 0.000000
vn -0.932362 -0.361526 0.000000
vn -0.773853 -0.633365 0.000000
vn -0.773853 -0.633365 0.000000
vn -0.773853 -0.633365 0.000000
vn -0.773853 -0.633365 0.000000
vn -0.773855 -0.633363 0.000000
vn -0.773855 -0.633363 0.000000
vn -0.773855 -0.633363 0.000000
vn -0.773855 -0.633363 0.000000
vn -0.773854 -0.633364 0.000000
vn -0.773854 -0.633364 0.000000
vn -0.773854 -0.633364 0.000000
vn -0.773854 -0.633364 0.000000
vn -0.773855 -0.633363 0.000000
vn -0.773855 -0.633363 0.000000
vn -0.773855 -0.633363 0.000000
vn -0.773855 -0.633363 0.000000
vn 0.000000 -0.361526 0.932362
vn 0.000000 -0.361526 0.932362
vn 0.000000 -0.361526 0.932362
vn 0.000000 -0.361526 0.932362
vn 0.000000 -0.633365 0.773853
vn 0.000000 -0.633365 0.773853
vn 0.000000 -0.633365 0.773853
vn 0.000000 -0.633365 0.773853
vn 0.000000 -0.633363 0.773855
vn 0.000000 -0.633363 0.773855
vn 0.000000 -0.633363 0.773855
vn 0.000000 -0.633363 0.773855
vn 0.000000 -0.633364 0.773854
vn 0.000000 -0.633364 0.773854
vn 0.000000 -0.633364 0.773854
vn 0.000000 -0.633364 0.773854
vn 0.000000 -0.633363 0.773855
vn 0.000000 -0.633363 0.773855
vn 0.000000 -0.633363 0.773855
vn 0.000000 -0.633363 0.773855
vn 0.998881 0.047285 0.000000
vn 0.998881 0.047285 0.000000
vn 0.998881 0.047285 0.000000
vn 0.998881 0.047285 0.000000
vn 0.000000 1.000000 -0.000000
vn 0.000000 1.000000 -0.000000
vn 0.000000 1.000000 -0.000000
vn 0.000000 1.000000 -0.000000
vn 0.000000 1.000000 0.000000
vn 0.000000 1.000000 0.000000
vn 0.000000 1.000000 0.000000
vn 0.000000 1.000000 0.000000
vn 0.000000 1.000000 0.000000
vn 0.000000 1.000000 0.000000
vn 0.000000 1.000000 0.000000
vn 0.000000 1.000000 0.000000
vn -0.024887 -0.999690 0.000000
vn -0.024887 -0.999690 0.000000
vn -0.024887 -0.999690 0.000000
vn -0.024887 -0.999690 0.000000
vn -0.998881 0.047285 0.000000
vn -0.998881 0.047285 0.000000
vn -0.998881 0.047285 0.000000
vn -0.998881 0.047285 0.000000
vn 0.000000 0.047285 0.998881
vn 0.000000 0.047285 0.998881
vn 0.000000 0.047285 0.998881
vn 0.000000 0.047285 0.998881
vn 0.000000 0.047285 -0.998881
vn 0.000000 0.047285 -0.998881
vn 0.000000 0.047285 -0.998881
vn 0.000000 0.047285 -0.998881
vn 0.000000 0.000000 -1.000000
vn 0.000000 0.000000 -1.000000
vn 0.000000 0.000000 -1.000000
vn 0.000000 0.000000 -1.000000
vn 0.000000 -0.999690 0.024889
vn 0.000000 -0.999690 0.024889
vn 0.000000 -0.999690 0.024889
vn 0.000000 -0.999690 0.024889
vn 0.000000 -0.999690 -0.024889
vn 0.000000 -0.999690 -0.024889
vn 0.000000 -0.999690 -0.024889
vn 0.000000 -0.999690 -0.024889
vn 0.024887 -0.999690 0.000000
vn 0.024887 -0.999690 0.000000
vn 0.024887 -0.999690 0.000000
vn 0.024887 -0.999690 0.000000
vn 0.000000 1.000000 -0.000002
vn 0.000000 1.000000 -0.000002
vn 0.000000 1.000000 -0.000002
vn 0.000000 1.000000 -0.000002
vn 1.000000 0.000000 0.000000
vn 1.000000 0.000000 0.000000
vn 1.000000 0.000000 0.000000
vn 1.000000 0.000000 0.000000
vn -1.000000 0.000000 0.000000
vn -1.000000 0.000000 0.000000
vn -1.000000 0.000000 0.000000
vn -1.000000 0.000000 0.000000
vn 0.000000 0.000000 1.000000
vn 0.000000 0.000000 1.000000
vn 0.000000 0.000000 1.000000
vn 0.000000 0.000000 1.000000
vn -1.000000 0.000000 0.000000
vn -1.000000 0.000000 0.000000
vn -1.000000 0.000000 0.000000
vn -1.000000 0.000000 0.000000
vn 0.000000 1.000000 0.000000
vn 0.000000 1.000000 0.000000
vn 0.000000 1.000000 0.000000
vn 0.000000 1.000000 0.000000
vn 0.000000 1.000000 0.000000
vn 0.000000 1.000000 0.000000
vn 0.000000 1.000000 0.000000
vn 0.000000 1.000000 0.000000
vn 0.000000 1.000000 0.000002
vn 0.000000 1.000000 0.000002
vn 0.000000 1.000000 0.000002
vn 0.000000 1.000000 0.000002
vn 0.000000 -1.000000 0.000000
vn 0.000000 -1.000000 0.000000
vn 0.000000 -1.000000 0.000000
vn 0.000000 -1.000000 0.000000
vn 0.000000 0.000000 1.000000
vn 0.000000 0.000000 1.000000
vn 0.000000 0.000000 1.000000
vn 0.000000 0.000000 1.000000
vn 0.000000 0.000000 -1.000000
vn 0.000000 0.000000 -1.000000
vn 0.000000 0.000000 -1.000000
vn 0.000000 0.000000 -1.000000
vn 1.000000 0.000000 0.000000
vn 1.000000 0.000000 0.000000
vn 1.000000 0.000000 0.000000
vn 1.000000 0.000000 0.000000
vn 1.000000 0.000000 0.000000
vn 1.000000 0.000000 0.000000
vn 1.000000 0.000000 0.000000
vn 1.000000 0.000000 0.000000
vn 0.000000 -1.000000 0.000002
vn 0.000000 -1.000000 0.000002
vn 0.000000 -1.000000 0.000002
vn 0.000000 -1.000000 0.000002
vn 0.000000 -1.000000 -0.000002
vn 0.000000 -1.000000 -0.000002
vn 0.000000 -1.000000 -0.000002
vn 0.000000 -1.000000 -0.000002
vn 0.000000 -1.000000 0.000000
vn 0.000000 -1.000000 0.000000
vn 0.000000 -1.000000 0.000000
vn 0.000000 -1.000000 0.000000
vn 0.000000 1.000000 0.000000
vn 0.000000 1.000000 0.000000
vn 0.000000 1.000000 0.000000
vn 0.000000 1.000000 0.000000
vn -1.000000 0.000000 0.000000
vn -1.000000 0.000000 0.000000
vn -1.000000 0.000000 0.000000
vn -1.000000 0.000000 0.000000
vn 0.000000 0.000000 1.000000
vn 0.000000 0.000000 1.000000
vn 0.000000 0.000000 1.000000
vn 0.000000 0.000000 1.000000
vn 0.000000 0.000000 -1.000000
vn 0.000000 0.000000 -1.000000
vn 0.000000 0.000000 -1.000000
vn 0.000000 0.000000 -1.000000
vn 0.000000 1.000000 -0.000002
vn 0.000000 1.000000 -0.000002
vn 0.000000 1.000000 -0.000002
vn 0.000000 1.000000 -0.000002
vn 0.000000 1.000000 0.000002
vn 0.000000 1.000000 0.000002
vn 0.000000 1.000000 0.000002
vn 0.000000 1.000000 0.000002
vn 0.000000 1.000000 0.000000
vn 0.000000 1.000000 0.000000
vn 0.000000 1.000000 0.000000
vn 0.000000 1.000000 0.000000
vn -0.634157 0.299323 -0.712917
vn -0.000152 1.000000 0.000009
vn -0.788304 0.327889 -0.520639
vn 0.521427 0.328276 -0.787622
vn 0.860651 0.508395 0.028539
vn -0.028540 0.508338 0.860684
vn -0.865362 0.334582 0.373099
vn -0.373399 0.334680 -0.865195
vn 0.712789 0.299849 -0.634053
vn -0.860731 0.508259 -0.028567
vn 0.864623 0.335084 -0.374360
vn 0.028604 0.508327 -0.860689
vn 0.634006 0.299828 0.712839
vn 0.787464 0.328332 0.521631
vn -0.520859 0.327944 0.788136
vn 0.374047 0.334985 0.864797
vn -0.712972 0.299290 0.634110
vn 0.000000 -1.000000 0.000000
vn 0.133734 -0.449056 0.883439
vn -0.640844 -0.422653 0.640846
vn -0.883439 -0.449056 -0.133734
vn 0.883457 -0.448968 -0.133908
vn 0.640844 -0.422655 0.640844
vn -0.133715 -0.449001 0.883470
vn 0.000000 -1.000000 0.000000
vn -0.000035 -0.391797 0.920052
vn 0.000000 -1.000000 0.000000
vn -0.000034 -0.391631 -0.920122
vn 0.000000 -1.000000 0.000000
vn 0.000000 -1.000000 0.000000
vn 0.133907 -0.448968 -0.883457
vn 0.000000 -1.000000 0.000000
vn 0.000000 -1.000000 0.000000
vn -0.133886 -0.448915 -0.883487
vn 0.000000 -1.000000 0.000000
vn 0.000000 -1.000000 0.000000
vn 0.640844 -0.422655 -0.640845
vn 0.883487 -0.448915 0.133887
vn 0.920122 -0.391631 0.000033
vn -0.883469 -0.449001 0.133716
vn -0.640844 -0.422655 -0.640844
vn -0.920052 -0.391796 0.000035
vn 0.699317 -0.148205 -0.699279
vn -0.200061 -0.074786 -0.976925
vn -0.976968 -0.074846 0.199827
vn -0.999729 0.003965 0.022937
vn -0.202693 -0.025633 0.978907
vn 0.699276 -0.148204 0.699320
vn 0.022967 0.003953 0.999729
vn 0.978858 -0.025569 0.202937
vn 0.199869 -0.074853 0.976959
vn 0.999728 0.004078 -0.022969
vn 0.202993 -0.025532 -0.978847
vn -0.699275 -0.148199 -0.699322
vn -0.699323 -0.148202 0.699273
vn 0.976915 -0.074791 -0.200106
vn -0.022943 0.004090 -0.999728
vn -0.978896 -0.025600 -0.202748
vn 0.208709 0.167170 -0.963584
vn -0.190335 -0.087162 -0.977842
vn -0.075389 0.469308 -0.879811
vn -0.503068 0.016298 -0.864093
vn -0.474691 0.607519 -0.636859
vn -0.856924 0.210628 -0.470443
vn -0.811104 0.537445 -0.230787
vn -0.959299 0.272713 0.073301
vn -0.909801 0.369385 0.189255
vn -0.826602 0.253569 0.502425
vn 0.916252 -0.253574 -0.310135
vn 0.713935 -0.028869 0.699617
vn 0.758337 -0.324560 -0.565320
vn 0.910122 0.149016 0.386616
vn 0.324072 -0.247082 -0.913197
vn 0.950328 0.156377 -0.269114
vn -0.306587 -0.040355 -0.950987
vn 0.528679 0.250866 -0.810904
vn -0.690443 0.187994 -0.698532
vn 0.120960 0.398765 -0.909041
vn -0.699615 -0.028821 0.713938
vn -0.963661 0.167135 -0.208383
vn -0.386567 0.149074 0.910133
vn -0.879788 0.469302 0.075692
vn 0.269190 0.156431 0.950298
vn -0.636661 0.607540 0.474930
vn 0.810945 0.250908 0.528595
vn -0.230383 0.537481 0.811195
vn 0.909032 0.398805 0.120893
vn 0.189916 0.369469 0.909629
vn -0.310085 -0.253460 -0.916300
vn -0.565295 -0.324375 -0.758434
vn -0.913220 -0.246849 -0.324182
vn -0.951029 -0.040132 0.306487
vn -0.698641 0.188099 0.690304
vn -0.916377 -0.253455 0.309862
vn -0.713935 -0.028811 -0.699619
vn -0.758541 -0.324343 0.565170
vn -0.910112 0.149117 -0.386601
vn -0.324348 -0.246760 0.913186
vn -0.950303 0.156514 0.269124
vn 0.306214 -0.039993 0.951122
vn -0.528657 0.250994 0.810878
vn 0.689903 0.188242 0.698998
vn -0.120969 0.398834 0.909009
vn -0.977839 -0.087191 0.190337
vn -0.864072 0.016289 0.503104
vn -0.470354 0.210676 0.856962
vn 0.073401 0.272808 0.959264
vn 0.502463 0.253699 0.826539
vn 0.699615 -0.028871 -0.713936
vn 0.386649 0.149054 -0.910102
vn -0.269044 0.156467 -0.950333
vn -0.810828 0.250960 -0.528751
vn -0.909015 0.398799 -0.121043
vn -0.208283 0.167007 0.963705
vn 0.075807 0.469142 0.879863
vn 0.475109 0.607403 0.636658
vn 0.811332 0.537354 0.230200
vn 0.909585 0.369429 -0.190203
vn 0.190343 -0.087289 0.977829
vn 0.503077 0.016096 0.864092
vn 0.856961 0.210494 0.470436
vn 0.959292 0.272716 -0.073383
vn 0.826544 0.253704 -0.502453
vn 0.963629 0.167028 0.208616
vn 0.879893 0.469138 -0.075483
vn 0.636885 0.607380 -0.474833
vn 0.230690 0.537318 -0.811216
vn -0.189471 0.369338 -0.909775
vn 0.309901 -0.253566 0.916333
vn 0.565179 -0.324510 0.758463
vn 0.913155 -0.246968 0.324275
vn 0.951098 -0.040192 -0.306263
vn 0.698927 0.188154 -0.690000
vn 0.977835 -0.087260 -0.190329
vn 0.864120 0.016101 -0.503028
vn 0.470534 0.210442 -0.856920
vn -0.073294 0.272616 -0.959327
vn -0.502427 0.253577 -0.826599
vn 0.000000 1.000000 0.000000
vn 0.000000 1.000000 0.000000
vn 0.000000 1.000000 0.000000
vn 0.000000 1.000000 0.000000
s off
g monas:Mesh
usemtl initialShadingGroup
f 5/224/1 7/2/2 10/3/3 12/222/4
f 23/5/5 3/6/6 7/2/7 22/7/8
f 22/7/9 7/2/10 5/224/11 28/8/12
f 6/220/13 2/10/14 4/11/15 8/223/16
f 13/13/17 1/14/18 3/6/19 23/5/20
f 28/216/21 5/1/22 1/14/23 13/13/24
f 12/222/25 10/3/26 34/15/27 36/16/28
f 3/6/29 1/14/30 11/17/31 9/18/32
f 1/14/33 5/1/34 12/4/35 11/17/36
f 7/2/37 3/6/38 9/18/39 10/3/40
f 6/221/41 32/219/42 17/20/43 2/10/44
f 32/219/45 31/218/46 16/22/47 17/20/48
f 31/218/49 30/217/50 15/24/51 16/22/52
f 30/217/53 29/215/54 14/26/55 15/24/56
f 29/215/57 28/216/58 13/13/59 14/26/60
f 2/10/61 17/20/62 27/27/63 4/11/64
f 17/20/65 16/22/66 26/28/67 27/27/68
f 16/22/69 15/24/70 25/29/71 26/28/72
f 15/24/73 14/26/74 24/30/75 25/29/76
f 14/26/77 13/13/78 23/5/79 24/30/80
f 8/12/81 18/31/82 32/19/83 6/9/84
f 18/31/85 19/32/86 31/21/87 32/19/88
f 19/32/89 20/33/90 30/23/91 31/21/92
f 20/33/93 21/34/94 29/25/95 30/23/96
f 21/34/97 22/7/98 28/8/99 29/25/100
f 4/11/101 27/27/102 18/31/103 8/12/104
f 27/27/105 26/28/106 19/32/107 18/31/108
f 26/28/109 25/29/110 20/33/111 19/32/112
f 25/29/113 24/30/114 21/34/115 20/33/116
f 24/30/117 23/5/118 22/7/119 21/34/120
f 33/35/121 35/36/122 39/37/123 37/38/124
f 10/3/125 9/18/126 33/35/127 34/15/128
f 11/17/129 12/4/130 36/214/131 35/36/132
f 9/18/133 11/17/134 35/36/135 33/35/136
f 40/213/137 38/40/138 42/41/139 44/42/140
f 36/16/141 34/15/142 38/40/143 40/213/144
f 34/15/145 33/35/146 37/38/147 38/40/148
f 35/36/149 36/214/150 40/39/151 39/37/152
f 43/43/153 44/212/154 48/211/155 47/45/156
f 38/40/157 37/38/158 41/46/159 42/41/160
f 39/37/161 40/39/162 44/212/163 43/43/164
f 37/38/165 39/37/166 43/43/167 41/46/168
f 47/45/169 48/211/170 52/210/171 51/48/172
f 41/46/173 43/43/174 47/45/175 45/49/176
f 44/42/177 42/41/178 46/50/179 48/44/180
f 42/41/181 41/46/182 45/49/183 46/50/184
f 52/47/185 50/51/186 54/52/187 56/209/188
f 45/49/189 47/45/190 51/48/191 49/54/192
f 48/44/193 46/50/194 50/51/195 52/47/196
f 46/50/197 45/49/198 49/54/199 50/51/200
f 56/209/201 54/52/202 58/55/203 60/56/204
f 50/51/205 49/54/206 53/57/207 54/52/208
f 51/48/209 52/210/210 56/53/211 55/58/212
f 49/54/213 51/48/214 55/58/215 53/57/216
f 57/59/217 59/60/218 63/61/219 61/62/220
f 54/52/221 53/57/222 57/59/223 58/55/224
f 55/58/225 56/53/226 60/208/227 59/60/228
f 53/57/229 55/58/230 59/60/231 57/59/232
f 64/207/233 62/64/234 66/65/235 68/225/236
f 60/56/237 58/55/238 62/64/239 64/207/240
f 58/55/241 57/59/242 61/62/243 62/64/244
f 59/60/245 60/208/246 64/63/247 63/61/248
f 62/64/249 61/62/250 65/67/251 66/65/252
f 63/61/253 64/63/254 68/226/255 67/68/256
f 61/62/257 63/61/258 67/68/259 65/67/260
s 1
f 116/69/261 110/70/262 183/71/263
f 122/72/264 110/70/262 171/73/265
f 164/74/266 110/70/262 195/75/267
f 128/76/268 110/70/262 116/69/261
f 134/77/269 110/70/262 122/72/264
f 146/78/270 110/70/262 128/76/268
f 140/79/271 110/70/262 134/77/269
f 194/80/272 110/70/262 140/79/271
f 152/81/273 110/70/262 153/82/274
f 170/83/275 110/70/262 146/78/270
f 182/84/276 110/70/262 152/81/273
f 153/82/274 110/70/262 164/229/266
f 206/85/277 110/70/262 170/83/275
f 171/73/265 110/70/262 182/84/276
f 183/71/263 110/70/262 194/80/272
f 195/75/267 110/70/262 206/85/277
f 99/86/278 85/243/279 86/246/280 102/238/281
f 87/90/282 88/91/283 93/245/284 97/93/285
f 97/93/285 93/245/284 94/244/286 98/95/287
f 98/95/287 94/244/286 85/243/279 99/86/278
f 96/242/288 106/97/289 108/98/290 95/240/291
f 106/97/289 107/100/292 109/101/293 108/98/290
f 107/100/292 98/95/287 99/86/278 109/101/293
f 91/241/294 104/103/295 106/97/289 96/242/288
f 104/103/295 105/104/296 107/100/292 106/97/289
f 105/104/296 97/93/285 98/95/287 107/100/292
f 92/105/297 100/106/298 104/103/295 91/241/294
f 100/106/298 101/107/299 105/104/296 104/103/295
f 101/107/299 87/90/282 97/93/285 105/104/296
f 95/240/291 108/98/290 89/239/300 90/235/301
f 108/98/290 109/101/293 103/237/302 89/239/300
f 109/101/293 99/86/278 102/238/281 103/237/302
f 71/111/303 92/105/297 91/102/294 78/112/304
f 84/113/305 89/108/300 103/110/302 83/114/306
f 73/115/307 93/92/284 88/91/283 69/116/308
f 74/117/309 94/94/286 93/92/284 73/115/307
f 79/118/310 100/106/298 92/105/297 71/111/303
f 75/119/311 85/87/279 94/94/286 74/117/309
f 80/120/312 101/107/299 100/106/298 79/118/310
f 76/121/313 95/99/291 90/236/301 72/234/314
f 70/123/315 86/88/280 85/87/279 75/119/311
f 81/124/316 87/90/282 101/107/299 80/120/312
f 77/125/317 96/96/288 95/99/291 76/121/313
f 69/116/308 88/91/283 87/90/282 81/124/316
f 82/126/318 102/89/281 86/88/280 70/123/315
f 78/112/304 91/102/294 96/96/288 77/125/317
f 72/122/314 90/109/301 89/108/300 84/113/305
f 83/114/306 103/110/302 102/89/281 82/126/318
f 76/121/313 200/127/319 201/128/320 77/125/317
f 200/127/319 199/129/321 202/130/322 201/128/320
f 199/129/321 198/131/323 203/132/324 202/130/322
f 198/131/323 197/133/325 204/134/326 203/132/324
f 197/133/325 196/135/327 205/136/328 204/134/326
f 196/135/327 195/75/267 206/85/277 205/136/328
f 81/124/316 188/137/329 189/138/330 69/116/308
f 188/137/329 187/139/331 190/140/332 189/138/330
f 187/139/331 186/141/333 191/142/334 190/140/332
f 186/141/333 185/143/335 192/144/336 191/142/334
f 185/143/335 184/145/337 193/146/338 192/144/336
f 184/145/337 183/71/263 194/80/272 193/146/338
f 70/123/315 176/147/339 177/148/340 82/126/318
f 176/147/339 175/149/341 178/150/342 177/148/340
f 175/149/341 174/151/343 179/152/344 178/150/342
f 174/151/343 173/153/345 180/154/346 179/152/344
f 173/153/345 172/155/347 181/156/348 180/154/346
f 172/155/347 171/73/265 182/84/276 181/156/348
f 77/125/317 201/128/320 165/157/349 78/112/304
f 201/128/320 202/130/322 166/158/350 165/157/349
f 202/130/322 203/132/324 167/159/351 166/158/350
f 203/132/324 204/134/326 168/160/352 167/159/351
f 204/134/326 205/136/328 169/161/353 168/160/352
f 205/136/328 206/85/277 170/83/275 169/161/353
f 84/113/305 158/162/354 159/233/355 72/122/314
f 158/162/354 157/164/356 160/232/357 159/233/355
f 157/164/356 156/166/358 161/231/359 160/232/357
f 156/166/358 155/168/360 162/230/361 161/231/359
f 155/168/360 154/170/362 163/228/363 162/230/361
f 154/170/362 153/82/274 164/229/266 163/228/363
f 82/126/318 177/148/340 147/172/364 83/114/306
f 177/148/340 178/150/342 148/173/365 147/172/364
f 178/150/342 179/152/344 149/174/366 148/173/365
f 179/152/344 180/154/346 150/175/367 149/174/366
f 180/154/346 181/156/348 151/176/368 150/175/367
f 181/156/348 182/84/276 152/81/273 151/176/368
f 78/112/304 165/157/349 141/177/369 71/111/303
f 165/157/349 166/158/350 142/178/370 141/177/369
f 166/158/350 167/159/351 143/179/371 142/178/370
f 167/159/351 168/160/352 144/180/372 143/179/371
f 168/160/352 169/161/353 145/181/373 144/180/372
f 169/161/353 170/83/275 146/78/270 145/181/373
f 83/114/306 147/172/364 158/162/354 84/113/305
f 147/172/364 148/173/365 157/164/356 158/162/354
f 148/173/365 149/174/366 156/166/358 157/164/356
f 149/174/366 150/175/367 155/168/360 156/166/358
f 150/175/367 151/176/368 154/170/362 155/168/360
f 151/176/368 152/81/273 153/82/274 154/170/362
f 69/116/308 189/138/330 135/182/374 73/115/307
f 189/138/330 190/140/332 136/183/375 135/182/374
f 190/140/332 191/142/334 137/184/376 136/183/375
f 191/142/334 192/144/336 138/185/377 137/184/376
f 192/144/336 193/146/338 139/186/378 138/185/377
f 193/146/338 194/80/272 140/79/271 139/186/378
f 73/115/307 135/182/374 129/187/379 74/117/309
f 135/182/374 136/183/375 130/188/380 129/187/379
f 136/183/375 137/184/376 131/189/381 130/188/380
f 137/184/376 138/185/377 132/190/382 131/189/381
f 138/185/377 139/186/378 133/191/383 132/190/382
f 139/186/378 140/79/271 134/77/269 133/191/383
f 71/111/303 141/177/369 123/192/384 79/118/310
f 141/177/369 142/178/370 124/193/385 123/192/384
f 142/178/370 143/179/371 125/194/386 124/193/385
f 143/179/371 144/180/372 126/195/387 125/194/386
f 144/180/372 145/181/373 127/196/388 126/195/387
f 145/181/373 146/78/270 128/76/268 127/196/388
f 74/117/309 129/187/379 117/197/389 75/119/311
f 129/187/379 130/188/380 118/198/390 117/197/389
f 130/188/380 131/189/381 119/199/391 118/198/390
f 131/189/381 132/190/382 120/200/392 119/199/391
f 132/190/382 133/191/383 121/201/393 120/200/392
f 133/191/383 134/77/269 122/72/264 121/201/393
f 79/118/310 123/192/384 111/202/394 80/120/312
f 123/192/384 124/193/385 112/203/395 111/202/394
f 124/193/385 125/194/386 113/204/396 112/203/395
f 125/194/386 126/195/387 114/205/397 113/204/396
f 126/195/387 127/196/388 115/206/398 114/205/397
f 127/196/388 128/76/268 116/69/261 115/206/398
f 72/234/314 159/163/355 200/127/319 76/121/313
f 159/163/355 160/165/357 199/129/321 200/127/319
f 160/165/357 161/167/359 198/131/323 199/129/321
f 161/167/359 162/169/361 197/133/325 198/131/323
f 162/169/361 163/171/363 196/135/327 197/133/325
f 163/171/363 164/74/266 195/75/267 196/135/327
f 75/119/311 117/197/389 176/147/339 70/123/315
f 117/197/389 118/198/390 175/149/341 176/147/339
f 118/198/390 119/199/391 174/151/343 175/149/341
f 119/199/391 120/200/392 173/153/345 174/151/343
f 120/200/392 121/201/393 172/155/347 173/153/345
f 121/201/393 122/72/264 171/73/265 172/155/347
f 80/120/312 111/202/394 188/137/329 81/124/316
f 111/202/394 112/203/395 187/139/331 188/137/329
f 112/203/395 113/204/396 186/141/333 187/139/331
f 113/204/396 114/205/397 185/143/335 186/141/333
f 114/205/397 115/206/398 184/145/337 185/143/335
f 115/206/398 116/69/261 183/71/263 184/145/337
s off
f 66/227/399 65/67/400 67/68/401 68/66/402
